<?xml version="1.0" standalone="no"?>
<!DOCTYPE svg PUBLIC "-//W3C//DTD SVG 1.1//EN" "http://www.w3.org/Graphics/SVG/1.1/DTD/svg11.dtd" >
<svg>
<metadata>
Created by FontForge 20090622 at Thu Jun  8 20:58:10 2017
 By deploy user
Copyright &#194;&#169; 2013, Natanael Gama (www.ndiscovered.com . info(at)ndiscovered.com), with Reserved Font Name Exo. This Font Software is licensed under the SIL Open Font License, Version 1.1.
</metadata>
<defs>
<font id="Exo2-Black" horiz-adv-x="590" >
  <font-face 
    font-family="Exo 2 Black"
    font-weight="900"
    font-stretch="normal"
    units-per-em="1000"
    panose-1="0 0 10 0 0 0 0 0 0 0"
    ascent="800"
    descent="-200"
    x-height="500"
    cap-height="690"
    bbox="-174 -309 1346 968"
    underline-thickness="50"
    underline-position="-50"
    unicode-range="U+0020-U+FB02"
  />
<missing-glyph horiz-adv-x="600" 
 />
    <glyph glyph-name=".notdef" horiz-adv-x="600" 
 />
    <glyph glyph-name=".null" horiz-adv-x="0" 
 />
    <glyph glyph-name="nonmarkingreturn" horiz-adv-x="333" 
 />
    <glyph glyph-name="space" unicode=" " horiz-adv-x="210" 
 />
    <glyph glyph-name="exclam" unicode="!" horiz-adv-x="329" 
d="M268 461l-22 -234h-164l-22 234v234h208v-234zM141 185h47q41 0 56.5 -15.5t15.5 -56.5v-41q0 -41 -15.5 -56.5t-56.5 -15.5h-47q-41 0 -56.5 15.5t-15.5 56.5v41q0 41 15.5 56.5t56.5 15.5z" />
    <glyph glyph-name="quotedbl" unicode="&#x22;" horiz-adv-x="393" 
d="M167 462h-120l-12 228h144zM346 462h-120l-12 228h144z" />
    <glyph glyph-name="numbersign" unicode="#" horiz-adv-x="740" 
d="M584 404l-17 -100h110l-24 -122h-107l-32 -182h-155l32 182h-96l-32 -182h-155l32 182h-118l24 122h115l17 100h-114l24 122h111l29 164h155l-29 -164h96l29 164h155l-29 -164h114l-24 -122h-111zM429 404h-96l-17 -100h96z" />
    <glyph glyph-name="dollar" unicode="$" horiz-adv-x="595" 
d="M572 197q0 -110 -50.5 -157t-180.5 -53l-10 -97h-155l11 102q-79 9 -150 28l13 152q188 -5 244 -5q39 0 52 5t13 19t-9.5 23t-37.5 19l-131 60q-81 38 -115 85t-34 123q0 110 54.5 154.5t190.5 48.5l11 85h156l-12 -92q66 -8 121 -28l-13 -139q-116 2 -237 2
q-36 0 -48 -5t-12 -21q0 -14 12 -24t48 -23l119 -52q82 -37 116 -85t34 -125z" />
    <glyph glyph-name="percent" unicode="%" horiz-adv-x="921" 
d="M203 704q103 0 143 -44t40 -162t-40 -162t-143 -44q-102 0 -141.5 44t-39.5 162t39.5 162t141.5 44zM333 0h-126l380 690h126zM203 595q-19 0 -23.5 -15t-4.5 -82q0 -68 4.5 -82.5t23.5 -14.5q20 0 25 15t5 82t-5 82t-25 15zM717 398q103 0 143 -44t40 -162t-40 -162
t-143 -44q-102 0 -141.5 44t-39.5 162t39.5 162t141.5 44zM717 289q-19 0 -23.5 -14.5t-4.5 -82.5q0 -67 4.5 -82t23.5 -15q20 0 25 15t5 82t-5 82t-25 15z" />
    <glyph glyph-name="ampersand" unicode="&#x26;" horiz-adv-x="761" 
d="M719 146l23 -134q-55 -26 -150 -26q-96 0 -133 62q-39 -33 -85.5 -47.5t-122.5 -14.5q-116 0 -166 43.5t-50 146.5q0 82 32 127t105 52v6q-62 6 -88.5 44t-26.5 115q0 49 10 81.5t28.5 53t54.5 31.5t77.5 14.5t107.5 3.5q101 0 166 -14l-25 -140q-123 3 -147 3
q-33 0 -43.5 -12.5t-10.5 -54.5q0 -40 10.5 -53.5t43.5 -13.5h118l11 89h178v-89h87v-131h-87v-106q0 -20 7.5 -28t25.5 -8h50zM264 221q0 -45 9.5 -58.5t43.5 -12.5q63 2 122 15v123h-122q-34 0 -43.5 -12.5t-9.5 -54.5z" />
    <glyph glyph-name="quotesingle" unicode="'" horiz-adv-x="214" 
d="M167 462h-120l-12 228h144z" />
    <glyph glyph-name="parenleft" unicode="(" horiz-adv-x="372" 
d="M342 790l24 -88q-74 -30 -106 -128.5t-32 -260.5q0 -329 138 -390l-24 -88q-164 43 -240.5 158.5t-76.5 318.5q0 204 76.5 320t240.5 158z" />
    <glyph glyph-name="parenright" unicode=")" horiz-adv-x="372" 
d="M6 702l24 88q164 -42 240.5 -158t76.5 -320q0 -203 -76.5 -318.5t-240.5 -158.5l-24 88q138 61 138 390q0 162 -32 260.5t-106 128.5z" />
    <glyph glyph-name="asterisk" unicode="*" horiz-adv-x="456" 
d="M268 517l113 -129l-89 -66l-64 119l-63 -119l-90 66l115 128l-18 176h112zM433 516l-120 -24l-25 30l-2 49l113 52zM170 571v-49l-25 -30l-122 24l34 106z" />
    <glyph glyph-name="plus" unicode="+" horiz-adv-x="523" 
d="M497 226h-159v-158h-153v158h-159v155h159v158h153v-158h159v-155z" />
    <glyph glyph-name="comma" unicode="," horiz-adv-x="255" 
d="M106 185h41q40 0 55.5 -15.5t16.5 -56.5v-64q0 -71 -16 -117t-51 -94l-78 25q17 51 19 137q-59 0 -61 64l3 49q1 41 16 56.5t55 15.5z" />
    <glyph glyph-name="hyphen" unicode="-" horiz-adv-x="379" 
d="M335 196h-291v122h291v-122z" />
    <glyph glyph-name="period" unicode="." horiz-adv-x="259" 
d="M106 185h47q41 0 56.5 -15.5t15.5 -56.5v-41q0 -41 -15.5 -56.5t-56.5 -15.5h-47q-41 0 -56.5 15.5t-15.5 56.5v41q0 41 15.5 56.5t56.5 15.5z" />
    <glyph glyph-name="slash" unicode="/" horiz-adv-x="588" 
d="M180 -79h-165l393 769h165z" />
    <glyph glyph-name="zero" unicode="0" horiz-adv-x="659" 
d="M329 704q166 0 231 -77.5t65 -281.5t-65 -281.5t-231 -77.5q-165 0 -230 77.5t-65 281.5t65 281.5t230 77.5zM328 543q-34 0 -49 -12.5t-22.5 -54t-7.5 -131.5t7.5 -131.5t22.5 -54t49 -12.5q36 0 51.5 12.5t23 54t7.5 131.5t-7.5 131.5t-23 54t-51.5 12.5z" />
    <glyph glyph-name="one" unicode="1" horiz-adv-x="466" 
d="M394 0h-216v432q0 55 8 89l-159 -31l-25 133l176 67h216v-690z" />
    <glyph glyph-name="two" unicode="2" horiz-adv-x="600" 
d="M297 702q126 0 190.5 -37.5t64.5 -134.5q0 -57 -19.5 -97.5t-85.5 -106.5l-163 -154q40 12 92 10h192v-182h-535v108q0 52 30 87l144 141q123 123 123 166q0 14 -12.5 17.5t-48.5 3.5q-125 0 -223 -2l-7 159q120 22 258 22z" />
    <glyph glyph-name="three" unicode="3" horiz-adv-x="578" 
d="M285 704q134 0 187 -35t53 -126q0 -82 -24 -123.5t-90 -50.5v-4q73 -11 102 -50.5t30 -122.5q2 -111 -57 -158.5t-200 -47.5q-118 0 -258 19l6 152q116 -5 192 -5q64 0 83.5 12t19.5 58q0 41 -15.5 55.5t-61.5 13.5l-133 -2v132h133q46 0 58.5 13.5t12.5 48.5
q0 34 -15.5 45t-61.5 11h-197l-6 146q118 19 242 19z" />
    <glyph glyph-name="four" unicode="4" horiz-adv-x="659" 
d="M642 278v-118l-77 -20h-2v-140h-197v140h-277q-43 0 -66 31.5t-8 71.5l167 447h200l-140 -387q-4 -11 1 -18t16 -7h107v170l35 106h162v-276h79z" />
    <glyph glyph-name="five" unicode="5" horiz-adv-x="568" 
d="M513 535h-284l-6 -72l128 -17q190 -23 190 -231q0 -227 -261 -227q-105 0 -256 18l18 161q136 -6 181 -6q58 0 79 13t24 49q3 35 -18 49.5t-74 18.5l-126 16q-27 4 -43.5 23t-15.5 45l19 315h452z" />
    <glyph glyph-name="six" unicode="6" horiz-adv-x="608" 
d="M377 456q118 0 162 -48t44 -162q0 -72 -11.5 -118t-41 -79t-82.5 -47t-135 -14q-81 0 -131.5 14.5t-85 54.5t-48 107t-13.5 175q0 78 8.5 136t27 98t42.5 65.5t61 39.5t77 19t96 5q114 0 189 -22l-8 -129h-181q-61 0 -81 -24t-23 -105q47 34 134 34zM315 139
q45 0 55.5 19t10.5 83q0 47 -12.5 60t-56.5 13q-35 0 -70 -17q1 -106 13 -132t60 -26z" />
    <glyph glyph-name="seven" unicode="7" horiz-adv-x="543" 
d="M14 690h443q44 0 67.5 -30.5t9.5 -70.5l-207 -589h-211l159 438q18 51 38 79h-290z" />
    <glyph glyph-name="eight" unicode="8" horiz-adv-x="639" 
d="M320 704q109 0 167 -20.5t78 -58.5t20 -107q0 -59 -27 -105.5t-81 -52.5v-4q126 -11 126 -184q0 -106 -57.5 -146t-225.5 -41q-165 -1 -224 40t-59 147q0 173 126 184v4q-54 6 -81 52.5t-27 105.5q0 69 20.5 107t78.5 58.5t166 20.5zM321 564q-44 0 -58 -14t-14 -61
q0 -40 14.5 -52.5t59.5 -12.5q43 0 55.5 12t12.5 53q0 47 -13.5 61t-56.5 14zM322 292q-50 0 -66 -16t-16 -64q0 -46 15.5 -60.5t65.5 -14.5q48 0 63 14.5t15 60.5q0 49 -15 64.5t-62 15.5z" />
    <glyph glyph-name="nine" unicode="9" horiz-adv-x="608" 
d="M296 702q87 0 138 -14t83.5 -55.5t43.5 -106t11 -175.5q0 -95 -11 -158.5t-32.5 -104.5t-61 -62.5t-87 -29.5t-120.5 -8q-120 0 -205 22l9 130q65 -1 196 -1q59 0 79.5 26.5t24.5 102.5q-49 -34 -134 -34q-112 0 -157.5 53.5t-45.5 156.5q0 142 56.5 200t212.5 58z
M230 449q0 -47 12.5 -60t53.5 -13q34 0 69 18q-1 105 -12.5 131t-58.5 26q-43 0 -53.5 -19.5t-10.5 -82.5z" />
    <glyph glyph-name="colon" unicode=":" horiz-adv-x="277" 
d="M107 462h47q41 0 56.5 -15.5t15.5 -56.5v-41q0 -41 -15.5 -56.5t-56.5 -15.5h-47q-41 0 -56.5 15.5t-15.5 56.5v41q0 41 15.5 56.5t56.5 15.5zM107 186h47q41 0 56.5 -15.5t15.5 -56.5v-41q0 -41 -15.5 -56.5t-56.5 -15.5h-47q-41 0 -56.5 15.5t-15.5 56.5v41
q0 41 15.5 56.5t56.5 15.5z" />
    <glyph glyph-name="semicolon" unicode=";" horiz-adv-x="277" 
d="M116 462h47q41 0 56.5 -15.5t15.5 -56.5v-41q0 -41 -15.5 -56.5t-56.5 -15.5h-47q-41 0 -56.5 15.5t-15.5 56.5v41q0 41 15.5 56.5t56.5 15.5zM116 185h41q40 0 55.5 -15.5t16.5 -56.5v-64q0 -71 -16 -117t-51 -94l-78 25q17 51 19 137q-59 0 -61 64l3 49q1 41 16 56.5
t55 15.5z" />
    <glyph glyph-name="less" unicode="&#x3c;" horiz-adv-x="505" 
d="M461 378l-259 -75l259 -75v-163l-435 158v161l435 157v-163z" />
    <glyph glyph-name="equal" unicode="=" horiz-adv-x="571" 
d="M526 337h-481v146h481v-146zM526 121h-481v146h481v-146z" />
    <glyph glyph-name="greater" unicode="&#x3e;" horiz-adv-x="502" 
d="M476 384v-161l-432 -158v163l256 75l-256 75v163z" />
    <glyph glyph-name="question" unicode="?" horiz-adv-x="536" 
d="M288 712q116 0 171.5 -38t55.5 -117q0 -40 -17 -73.5t-41.5 -59l-50.5 -51.5t-47 -63.5t-26 -82.5h-164q-3 57 14 108t40 80l44.5 56.5t24.5 41.5q4 19 -8.5 26t-47.5 7h-207l-5 138q8 2 37.5 7.5l37.5 7t33.5 5.5t43.5 5t47.5 2t64.5 1zM227 185h47q41 0 56.5 -15.5
t15.5 -56.5v-41q0 -41 -15.5 -56.5t-56.5 -15.5h-47q-41 0 -56.5 15.5t-15.5 56.5v41q0 41 15.5 56.5t56.5 15.5z" />
    <glyph glyph-name="at" unicode="@" horiz-adv-x="801" 
d="M399 617h162q100 0 149 -43t49 -146v-290h-153l-16 63q-60 -76 -156 -76q-66 0 -110.5 34t-44.5 94v45q0 55 39.5 86.5t107.5 31.5h141v13q0 24 -11 34.5t-39 10.5h-118q-36 0 -51.5 -0.5t-38.5 -3.5t-30.5 -7.5t-20 -15t-15.5 -23.5t-7.5 -36.5t-5 -50t-0.5 -67.5
q0 -129 21 -164q19 -33 81 -38q23 -2 119 -2h309v-128q-193 -17 -309 -17q-98 0 -159.5 4t-111.5 19.5t-74.5 36.5t-41.5 64t-21 93t-4 132t3.5 131.5t18 92.5t36.5 63.5t65.5 36t97 19.5t139.5 4zM567 329l-69 -5q-34 -3 -34 -28v-14q0 -28 37 -28q32 0 66 21v54z" />
    <glyph glyph-name="A" unicode="A" horiz-adv-x="683" 
d="M436 149h-189l-35 -149h-221l179 634q7 25 27 40.5t46 15.5h197q26 0 46 -15.5t27 -40.5l179 -634h-221zM401 301l-34 148q-9 47 -12 79h-27q-6 -47 -12 -79l-34 -148h119z" />
    <glyph glyph-name="B" unicode="B" horiz-adv-x="660" 
d="M484 361v-6q80 -7 114.5 -52t34.5 -131q0 -103 -57.5 -141.5t-192.5 -38.5q-219 0 -331 8v690q102 8 298 8q147 0 203.5 -37.5t56.5 -142.5q0 -75 -29.5 -113t-96.5 -44zM403 487q0 40 -12.5 52t-51.5 12h-75v-130h77q38 0 50 13t12 53zM264 139h80q45 0 59 15t14 62
q0 48 -14 63t-60 15h-79v-155z" />
    <glyph glyph-name="C" unicode="C" horiz-adv-x="605" 
d="M345 702q129 0 227 -27l-16 -158q-140 2 -211 2q-51 0 -68 -34.5t-17 -139.5t17 -139.5t68 -34.5q149 0 226 8l16 -158q-96 -33 -242 -33q-172 0 -242.5 80t-70.5 277t70.5 277t242.5 80z" />
    <glyph glyph-name="D" unicode="D" horiz-adv-x="701" 
d="M347 700q123 0 190.5 -30.5t99.5 -107t32 -217.5t-32 -217.5t-99.5 -107t-190.5 -30.5q-150 0 -295 10v690q176 10 295 10zM269 148l78 -1q56 0 74.5 39.5t18.5 158.5t-18.5 158.5t-74.5 39.5h-78v-395z" />
    <glyph glyph-name="E" unicode="E" horiz-adv-x="596" 
d="M558 162l10 -153q-100 -13 -359 -13q-71 0 -116.5 43.5t-45.5 113.5v384q0 70 45.5 113.5t116.5 43.5q259 0 359 -13l-10 -153h-253q-19 0 -30 -10t-11 -26v-67h258v-144h-258v-83q0 -16 11 -26t30 -10h253z" />
    <glyph glyph-name="F" unicode="F" horiz-adv-x="574" 
d="M551 528h-241q-20 0 -31.5 -10t-11.5 -26v-81h247v-144h-247v-267h-217v537q0 70 46 113.5t118 43.5q252 0 347 -14z" />
    <glyph glyph-name="G" unicode="G" horiz-adv-x="668" 
d="M631 397v-397h-160l-19 71q-28 -35 -77.5 -60t-113.5 -25q-121 0 -175 82.5t-54 276.5q0 198 73 278.5t252 80.5q144 0 245 -29l-16 -156q-152 2 -228 2q-58 0 -78 -35t-20 -141q0 -104 18 -139t70 -35q35 0 75 6v220h208z" />
    <glyph glyph-name="H" unicode="H" horiz-adv-x="714" 
d="M661 690v-690h-217v290h-174v-290h-217v690h217v-248h174v248h217z" />
    <glyph glyph-name="I" unicode="I" horiz-adv-x="321" 
d="M268 0h-215v690h215v-690z" />
    <glyph glyph-name="J" unicode="J" horiz-adv-x="404" 
d="M354 690v-563q0 -67 -49 -104t-134 -37q-39 0 -88.5 7t-72.5 19l23 136h47q59 0 59 35v507h215z" />
    <glyph glyph-name="K" unicode="K" horiz-adv-x="676" 
d="M298 288h-36q8 -35 8 -63v-225h-217v690h217v-174q0 -47 -10 -88h38l144 262h233l-159 -270q-25 -46 -61 -61v-4q15 -6 36.5 -26.5t32.5 -41.5l161 -287h-241z" />
    <glyph glyph-name="L" unicode="L" horiz-adv-x="557" 
d="M267 690v-482q0 -16 11.5 -26t30.5 -10h232l10 -162q-103 -14 -337 -14q-74 0 -119 43.5t-45 113.5v537h217z" />
    <glyph glyph-name="M" unicode="M" horiz-adv-x="952" 
d="M621 690h191q73 0 76 -75l24 -615h-195l-21 528h-15l-68 -352q-11 -66 -82 -66h-112q-71 0 -83 66l-69 352h-15l-17 -528h-195l24 615q3 75 76 75h187q70 0 82 -67l50 -274q5 -32 11 -103h9q0 3 4.5 43t7.5 60l47 274q12 67 83 67z" />
    <glyph glyph-name="N" unicode="N" horiz-adv-x="738" 
d="M687 690v-615q0 -75 -75 -75h-83q-31 0 -47.5 14t-36.5 49l-150 237q-25 45 -46 118h-7q10 -70 10 -126v-292h-200v615q0 75 75 75h83q31 0 47 -14t37 -49l144 -226q27 -48 53 -118h7q-9 76 -9 125l-1 282h199z" />
    <glyph glyph-name="O" unicode="O" horiz-adv-x="707" 
d="M353 704q123 0 190.5 -30.5t99.5 -108t32 -220.5t-32 -220.5t-99.5 -108t-190.5 -30.5q-122 0 -189.5 30.5t-99.5 108t-32 220.5t32 220.5t99.5 108t189.5 30.5zM353 543q-56 0 -74.5 -39.5t-18.5 -158.5t18.5 -158.5t74.5 -39.5t74.5 39.5t18.5 158.5t-18.5 158.5
t-74.5 39.5z" />
    <glyph glyph-name="P" unicode="P" horiz-adv-x="646" 
d="M344 700q165 0 225.5 -49t60.5 -186q0 -135 -56 -184t-200 -49q-54 0 -105 6v-238h-217v690q102 10 292 10zM269 385h70q44 0 59 16t15 64q0 49 -15 65.5t-59 16.5h-70v-162z" />
    <glyph glyph-name="Q" unicode="Q" horiz-adv-x="707" 
d="M353 704q123 0 190.5 -30.5t99.5 -108t32 -220.5t-32 -220.5t-99.5 -108t-190.5 -30.5q-122 0 -189.5 30.5t-99.5 108t-32 220.5t32 220.5t99.5 108t189.5 30.5zM353 543q-56 0 -74.5 -39.5t-18.5 -158.5t18.5 -158.5t74.5 -39.5t74.5 39.5t18.5 158.5t-18.5 158.5
t-74.5 39.5zM248 -129l46 103q112 -42 329 -74l-53 -175q-198 57 -322 146z" />
    <glyph glyph-name="R" unicode="R" horiz-adv-x="676" 
d="M663 0h-227l-45 205q-6 28 -18.5 37.5t-40.5 9.5h-67v-252h-213v690q102 10 293 10q156 0 223.5 -46t67.5 -164q0 -150 -140 -164v-6q94 -12 113 -108zM265 405h75q47 0 62.5 14t15.5 57t-15.5 57t-62.5 14h-75v-142z" />
    <glyph glyph-name="S" unicode="S" horiz-adv-x="610" 
d="M314 704q151 0 251 -35l-13 -139q-120 2 -243 2q-38 0 -51 -5t-13 -21q0 -14 12.5 -23.5t47.5 -23.5l125 -52q85 -37 120 -85t35 -125q0 -117 -61 -164t-221 -47q-135 0 -267 34l13 152q198 -5 251 -5q41 0 54.5 5t13.5 19t-9.5 23t-37.5 19l-137 60q-84 37 -119 84.5
t-35 123.5q0 116 63 159.5t221 43.5z" />
    <glyph glyph-name="T" unicode="T" horiz-adv-x="623" 
d="M613 528h-193v-528h-217v528h-193v162h603v-162z" />
    <glyph glyph-name="U" unicode="U" horiz-adv-x="705" 
d="M658 690v-405q0 -165 -66 -232t-228 -67q-175 0 -246 67t-71 232v405h217v-405q0 -83 18 -110.5t71 -27.5q52 0 70 27.5t18 110.5v405h217z" />
    <glyph glyph-name="V" unicode="V" horiz-adv-x="670" 
d="M672 690l-168 -632q-6 -26 -26 -42t-48 -16h-190q-28 0 -48 16t-26 42l-168 632h223l89 -449q2 -9 13 -79h24q4 35 13 79l89 449h223z" />
    <glyph glyph-name="W" unicode="W" horiz-adv-x="1003" 
d="M983 690l-86 -632q-4 -26 -25 -42t-49 -16h-184q-28 0 -49.5 16t-24.5 42l-47 381q-4 31 -8 101h-17q-4 -70 -8 -102l-46 -380q-3 -26 -24.5 -42t-49.5 -16h-185q-28 0 -49 16t-25 42l-86 632h214l35 -423q4 -68 4 -115h16q14 98 16 116l46 358q3 28 23.5 46t49.5 18h155
q29 0 49 -17.5t24 -46.5l47 -360q3 -30 15 -114h16q0 28 5 113l34 425h214z" />
    <glyph glyph-name="X" unicode="X" horiz-adv-x="677" 
d="M467 0l-128 290l-129 -290h-215l171 352l-157 338h214l116 -273l115 273h214l-157 -338l171 -352h-215z" />
    <glyph glyph-name="Y" unicode="Y" horiz-adv-x="654" 
d="M436 215v-215h-217v213l-229 477h223l87 -217q9 -22 21 -97h13q12 73 21 98l86 216h223z" />
    <glyph glyph-name="Z" unicode="Z" horiz-adv-x="605" 
d="M577 152v-152h-548v152l298 386h-288v152h528v-152l-298 -386h308z" />
    <glyph glyph-name="bracketleft" unicode="[" horiz-adv-x="363" 
d="M339 640h-60q-22 0 -22 -22v-633q0 -22 22 -22h60v-128h-177q-49 0 -75 22.5t-26 78.5v731q0 45 28 73t73 28h177v-128z" />
    <glyph glyph-name="backslash" unicode="\" horiz-adv-x="588" 
d="M573 -79h-165l-393 769h165z" />
    <glyph glyph-name="bracketright" unicode="]" horiz-adv-x="363" 
d="M24 768h177q45 0 73 -28t28 -73v-731q0 -45 -28 -73t-73 -28h-177v128h60q22 0 22 22v633q0 22 -22 22h-60v128z" />
    <glyph glyph-name="asciicircum" unicode="^" horiz-adv-x="497" 
d="M467 414l-81 -42l-132 157h-8l-136 -157l-80 42l144 239h152z" />
    <glyph glyph-name="underscore" unicode="_" horiz-adv-x="531" 
d="M491 -122h-451v122h451v-122z" />
    <glyph glyph-name="grave" unicode="`" horiz-adv-x="392" 
d="M352 597l-57 -86l-255 103l79 133z" />
    <glyph glyph-name="a" unicode="a" 
d="M333 514q111 0 165 -46t54 -158v-310h-167l-19 70q-66 -84 -173 -84q-74 0 -123 37t-49 105v50q0 60 44 94.5t121 34.5h156v4q-1 27 -14 38.5t-45 11.5q-110 0 -216 -5l-19 133q136 25 285 25zM225 175v-16q0 -31 42 -31q33 0 75 25v53h-79q-38 0 -38 -31z" />
    <glyph glyph-name="b" unicode="b" horiz-adv-x="618" 
d="M402 514q104 0 146.5 -59.5t42.5 -198.5q0 -56 -10.5 -99.5t-38 -84t-83 -62.5t-137.5 -22q-68 0 -154.5 11t-125.5 31v670h210l2 -139q2 -63 -15 -120q79 73 163 73zM318 129q33 2 45 26.5t12 99.5q0 63 -12 82.5t-49 19.5q-29 0 -62 -13v-211q42 -5 66 -4z" />
    <glyph glyph-name="c" unicode="c" horiz-adv-x="528" 
d="M294 514q132 0 209 -37l-21 -130h-152q-49 0 -66.5 -19.5t-17.5 -76.5q0 -58 17.5 -77.5t66.5 -19.5q98 0 161 7l19 -131q-80 -42 -218 -42q-147 0 -206.5 59t-59.5 204t60 204t208 59z" />
    <glyph glyph-name="d" unicode="d" horiz-adv-x="620" 
d="M577 700v-700h-167l-17 82q-50 -94 -184 -94q-95 0 -138 68t-43 200q0 147 45.5 202.5t144.5 55.5q96 0 153 -42q-4 70 -4 109v119h210zM299 156q38 0 68 15v193q-33 13 -65 13q-34 0 -46 -21.5t-12 -97.5q0 -65 11.5 -83.5t43.5 -18.5z" />
    <glyph glyph-name="e" unicode="e" 
d="M333 149q98 0 203 11l19 -126q-91 -46 -245 -46q-153 0 -219 63.5t-66 194.5q0 147 64 207.5t220 60.5q138 0 198.5 -44t61.5 -134q1 -71 -42.5 -101.5t-151.5 -30.5h-125q6 -31 24.5 -43t58.5 -12zM315 379q-40 1 -53.5 -13t-15.5 -63h70q34 0 43 6.5t9 31.5
q0 23 -11.5 30.5t-41.5 7.5z" />
    <glyph glyph-name="f" unicode="f" horiz-adv-x="427" 
d="M439 584h-88q-28 0 -38 -11.5t-10 -40.5v-32h119v-126h-119v-374h-211v374h-84v121l84 5v61q0 163 184 163q113 0 183 -14z" />
    <glyph glyph-name="g" unicode="g" horiz-adv-x="604" 
d="M591 423l-55 -9q8 -23 8 -58q0 -87 -57.5 -122.5t-199.5 -35.5q-41 0 -74 3q-11 -11 -4 -27.5t32 -17.5l182 -12q84 -6 122 -44t38 -113q0 -102 -64 -135t-225 -33q-119 0 -181 15t-84 43.5t-22 83.5q0 37 17 62t61 44q-33 36 -23.5 85t51.5 69q-84 33 -84 135
q0 86 58.5 122t200.5 36q93 0 145 -14h168zM287 312q37 0 49.5 9t12.5 35t-12.5 34.5t-49.5 8.5t-50 -8.5t-13 -34.5t13 -35t50 -9zM387 -12q0 17 -16 22.5t-62 8.5l-89 7q-17 -13 -17 -33q0 -19 18 -25.5t70 -6.5q57 0 76.5 5.5t19.5 21.5z" />
    <glyph glyph-name="h" unicode="h" horiz-adv-x="621" 
d="M433 514q148 0 148 -140v-374h-210v307q0 16 -8 23t-28 7q-42 0 -82 -12v-325h-210v700h210l1 -149q0 -58 -10 -111q92 74 189 74z" />
    <glyph glyph-name="i" unicode="i" horiz-adv-x="303" 
d="M107 729h89q61 0 61 -62v-51q0 -62 -61 -62h-89q-61 0 -61 62v51q0 62 61 62zM256 0h-209v500h209v-500z" />
    <glyph glyph-name="j" unicode="j" horiz-adv-x="304" 
d="M105 739h89q61 0 61 -62v-51q0 -62 -61 -62h-89q-61 0 -61 62v51q0 62 61 62zM257 500v-442q0 -80 -44 -149t-118 -99l-116 92q69 69 69 156v442h209z" />
    <glyph glyph-name="k" unicode="k" horiz-adv-x="609" 
d="M273 216h-27q7 -45 7 -73v-143h-210v700h210v-268q0 -47 -8 -98h29l95 166h230l-105 -164q-21 -38 -58 -60v-4q12 -6 29.5 -26.5t28.5 -40.5l124 -205h-231z" />
    <glyph glyph-name="l" unicode="l" horiz-adv-x="358" 
d="M253 700v-518q0 -36 50 -36h34l23 -134q-20 -12 -65.5 -19t-81.5 -7q-79 0 -124 37t-45 103v574h209z" />
    <glyph glyph-name="m" unicode="m" horiz-adv-x="885" 
d="M701 514q144 0 144 -140v-374h-209v307q0 17 -7 23.5t-26 6.5q-27 0 -58 -12v-325h-202v307q0 30 -34 30q-26 0 -57 -11v-326h-209v500h164l18 -73q43 46 84.5 66.5t94.5 20.5q101 0 130 -74q75 74 167 74z" />
    <glyph glyph-name="n" unicode="n" horiz-adv-x="621" 
d="M433 514q148 0 148 -140v-374h-210v307q0 16 -8 23t-28 7q-42 0 -82 -12v-325h-210v500h165l19 -74q95 88 206 88z" />
    <glyph glyph-name="o" unicode="o" horiz-adv-x="611" 
d="M306 514q153 0 216 -59.5t63 -205.5q0 -144 -63 -202.5t-216 -58.5q-154 0 -217 58.5t-63 202.5q0 146 63 205.5t217 59.5zM306 372q-37 0 -48.5 -23t-11.5 -100q0 -74 11.5 -96.5t48.5 -22.5q36 0 47.5 22.5t11.5 96.5q0 77 -11.5 100t-47.5 23z" />
    <glyph glyph-name="p" unicode="p" horiz-adv-x="620" 
d="M412 512q95 0 137.5 -68t42.5 -200q0 -148 -45 -203t-144 -55q-97 0 -153 42q4 -71 3 -109v-99h-210v680h168l17 -68q24 34 75 57t109 23zM319 123q33 0 45 21.5t12 97.5t-11.5 97.5t-42.5 21.5q-33 0 -69 -18v-207q33 -13 66 -13z" />
    <glyph glyph-name="q" unicode="q" horiz-adv-x="618" 
d="M296 514q68 0 154.5 -11t125.5 -31v-652h-210v130q-2 63 14 122q-76 -84 -165 -84q-101 0 -144.5 65t-43.5 193q0 63 10.5 107.5t38 83t82.5 58t138 19.5zM243 247q0 -57 12 -74.5t48 -17.5q28 0 63 13v201q-42 5 -66 4q-34 -2 -45.5 -26.5t-11.5 -99.5z" />
    <glyph glyph-name="r" unicode="r" horiz-adv-x="452" 
d="M450 514l-18 -192h-53q-53 0 -126 -10v-312h-210v500h164l19 -73q93 87 195 87h29z" />
    <glyph glyph-name="s" unicode="s" horiz-adv-x="553" 
d="M256 514q149 0 256 -22l-13 -122h-197q-54 0 -64.5 -1.5t-10.5 -10.5q0 -8 18 -13l16 -4q15 -4 25 -7l115 -29q69 -19 100.5 -53.5t31.5 -97.5q0 -94 -54.5 -129.5t-187.5 -35.5q-138 0 -260 21l13 122h178q74 0 91 2t17 13q0 2 -0.5 3.5t-2 3t-3 2.5t-4.5 2.5t-6.5 2
t-9 2.5t-10.5 3t-13 3.5t-16 4.5l-110 30q-77 22 -104 61t-27 103q0 72 53 109t179 37z" />
    <glyph glyph-name="t" unicode="t" horiz-adv-x="438" 
d="M305 374v-192q0 -19 10 -27.5t33 -8.5h53l23 -134q-62 -26 -170 -26q-73 0 -116 37t-43 103v248h-85v121l84 4v132h211v-131h121v-126h-121z" />
    <glyph glyph-name="u" unicode="u" horiz-adv-x="615" 
d="M572 500v-500h-165l-19 73q-96 -87 -200 -87q-148 0 -148 140v374h210v-307q0 -31 37 -31q36 0 74 12v326h211z" />
    <glyph glyph-name="v" unicode="v" horiz-adv-x="601" 
d="M604 500l-148 -451q-15 -49 -66 -49h-179q-51 0 -66 49l-148 451h222l61 -276q6 -29 14 -94h13q1 5 15 94l60 276h222z" />
    <glyph glyph-name="w" unicode="w" horiz-adv-x="876" 
d="M868 500l-102 -447q-5 -24 -23.5 -38.5t-44.5 -14.5h-147q-28 0 -48.5 17.5t-23.5 44.5l-29 227q0 4 -6 88h-13q-4 -54 -7 -88l-29 -227q-3 -27 -23.5 -44.5t-48.5 -17.5h-145q-26 0 -44.5 14.5t-23.5 38.5l-102 447h208l36 -281q6 -62 8 -89h12q1 13 2.5 28t3.5 33t3 28
l28 220q3 27 23 44t48 17h115q28 0 48 -17t23 -45l27 -219q1 -10 5 -41t5 -48h12q9 86 9 89l35 281h209z" />
    <glyph glyph-name="x" unicode="x" horiz-adv-x="606" 
d="M401 0l-98 188l-98 -188h-208l145 255l-134 245h207l88 -175l88 175h207l-134 -245l145 -255h-208z" />
    <glyph glyph-name="y" unicode="y" horiz-adv-x="602" 
d="M604 500l-159 -486q-9 -30 -22 -57t-33.5 -56.5t-46 -50t-60.5 -37t-77 -18t-94 7.5l-14 113q59 12 93 31t54 53h-34q-51 0 -66 49l-148 451h223l59 -276q4 -27 13 -94h9q7 24 21 94l59 276h223z" />
    <glyph glyph-name="z" unicode="z" horiz-adv-x="541" 
d="M512 135v-135h-483v135l232 230h-226v135h471v-135l-232 -230h238z" />
    <glyph glyph-name="braceleft" unicode="{" horiz-adv-x="359" 
d="M330 768v-128q-23 0 -31 -0.5t-17.5 -4t-12 -11t-2.5 -22.5v-125q2 -68 -23.5 -104t-92.5 -45q67 -18 93 -53t27 -92v-185q0 -6 0.5 -10.5t1 -8t3 -6t3.5 -4.5t5.5 -3t6.5 -2t8.5 -1h9.5h12h13v-128q-132 -21 -197.5 21t-65.5 125v222q0 16 -2 25t-10.5 16t-13 9.5
t-23.5 9.5v130q23 7 29.5 11t11 15.5t4.5 37.5v165q0 83 65.5 125t197.5 21z" />
    <glyph glyph-name="bar" unicode="|" horiz-adv-x="276" 
d="M211 -169h-146v950h146v-950z" />
    <glyph glyph-name="braceright" unicode="}" horiz-adv-x="359" 
d="M29 640v128q132 21 197.5 -21t65.5 -125v-165q0 -26 4.5 -37.5t11 -15.5t29.5 -11v-130q-16 -7 -19 -8t-12.5 -6.5t-11 -10t-4 -13.5t-2.5 -22v-222q0 -83 -65.5 -125t-197.5 -21v128h13h12h9.5t8.5 1t6.5 2t5.5 3t3.5 4.5t3 6t1 8t0.5 10.5v185q1 57 27 92t93 53
q-67 9 -92.5 45t-23.5 104v125q0 27 -11.5 32.5t-51.5 5.5z" />
    <glyph glyph-name="asciitilde" unicode="~" horiz-adv-x="500" 
d="M130 376q21 0 66 -9.5t90.5 -21t52.5 -12.5q21 -4 25 3.5t4 34.5h87q15 -83 -10 -127t-75 -42q-21 0 -65 9.5t-89.5 20.5t-55.5 13q-20 3 -24 -3t-4 -29v-6h-87q-15 84 11.5 127t73.5 42z" />
    <glyph glyph-name="uni00A0" unicode="&#xa0;" horiz-adv-x="210" 
 />
    <glyph glyph-name="exclamdown" unicode="&#xa1;" horiz-adv-x="312" 
d="M133 520h47q41 0 56.5 -15.5t15.5 -56.5v-41q0 -41 -15.5 -56.5t-56.5 -15.5h-47q-41 0 -56.5 15.5t-15.5 56.5v41q0 41 15.5 56.5t56.5 15.5zM260 59v-234h-208v234l22 234h164z" />
    <glyph glyph-name="cent" unicode="&#xa2;" horiz-adv-x="541" 
d="M495 247l19 -121q-64 -33 -167 -40l-10 -86h-155l11 92q-91 18 -129.5 77.5t-38.5 177.5q0 137 54 197t184 65l10 81h156l-11 -90q51 -10 89 -27l-21 -120h-154q-60 0 -80 -20.5t-20 -85.5t20 -86t80 -21q99 0 163 7z" />
    <glyph glyph-name="sterling" unicode="&#xa3;" horiz-adv-x="603" 
d="M575 167v-167h-537v167q50 23 65.5 56t10.5 81l-1 10h-76l-2 100h70l-8 95q-8 112 43.5 153t178.5 41q103 0 234 -10l-10 -155h-185q-28 0 -39.5 -9.5t-9.5 -29.5l9 -85h151l-5 -100h-135l1 -10q7 -78 -42 -121q-6 -6 -32 -26q28 10 86 10h233z" />
    <glyph glyph-name="currency" unicode="&#xa4;" horiz-adv-x="575" 
d="M496 352q0 -52 -25 -99l71 -69l-86 -85l-70 69q-45 -25 -99 -25q-50 0 -98 24l-67 -67l-92 92l69 68q-21 45 -21 92q0 53 25 100l-67 67l86 85l67 -68q45 25 98 25q55 0 101 -26l69 69l85 -85l-70 -70q24 -46 24 -97zM287 261q36 0 63 27.5t27 64.5q0 38 -27 65t-63 27
t-63 -27t-27 -65q0 -37 27 -64.5t63 -27.5z" />
    <glyph glyph-name="yen" unicode="&#xa5;" horiz-adv-x="710" 
d="M542 378h69v-110h-510l-2 110h69l-150 312h223l87 -207q9 -20 21 -97h13q12 77 21 98l86 206h223zM99 238h512v-110h-147v-128h-217v128h-146z" />
    <glyph glyph-name="brokenbar" unicode="&#xa6;" horiz-adv-x="278" 
d="M212 381h-146v400h146v-400zM212 -169h-146v400h146v-400z" />
    <glyph glyph-name="section" unicode="&#xa7;" horiz-adv-x="565" 
d="M283 704q125 0 236 -12l-14 -142q-16 1 -157 1q-51 0 -69 -3.5t-21 -17.5q-5 -23 43 -44l115 -54q91 -43 110.5 -104.5t-18.5 -150.5h-144q0 52 -14 70t-69 48l-145 76q-49 26 -68 49q-35 44 -35 117q0 95 59.5 131t190.5 36zM57 330h144q0 -52 14 -70.5t69 -47.5
l145 -76q23 -12 33.5 -19t30.5 -26t29.5 -49.5t9.5 -72.5q0 -94 -59.5 -130t-190.5 -36q-140 0 -236 12l14 142q32 -2 157 -2q49 0 68 4.5t22 17.5q2 10 -4.5 18.5t-14.5 13t-24 11.5l-115 55q-91 43 -110.5 104.5t18.5 150.5z" />
    <glyph glyph-name="dieresis" unicode="&#xa8;" horiz-adv-x="436" 
d="M89 720h69q39 0 39 -39v-63q0 -39 -39 -39h-69q-39 0 -39 39v63q0 39 39 39zM278 720h69q39 0 39 -39v-63q0 -39 -39 -39h-69q-39 0 -39 39v63q0 39 39 39z" />
    <glyph glyph-name="copyright" unicode="&#xa9;" horiz-adv-x="782" 
d="M391 704q155 0 259.5 -101.5t104.5 -257.5t-104.5 -257.5t-259.5 -101.5q-154 0 -259 102t-105 257t105 257t259 102zM391 607q-109 0 -185.5 -75t-76.5 -187t76.5 -187t185.5 -75q110 0 186 74.5t76 187.5t-76 187.5t-186 74.5zM395 541q76 0 139 -16l-11 -109h-128
q-24 0 -29.5 -12t-5.5 -58q0 -47 5.5 -58.5t29.5 -11.5q95 0 137 3l11 -108q-62 -21 -148 -21q-107 0 -150.5 44t-43.5 152t43.5 151.5t150.5 43.5z" />
    <glyph glyph-name="ordfeminine" unicode="&#xaa;" horiz-adv-x="433" 
d="M243 623q76 0 113 -31.5t37 -109.5v-205h-121l-12 44q-42 -54 -114 -54q-49 0 -82.5 25.5t-33.5 70.5v33q0 41 30 64.5t82 23.5h100q0 29 -35 29q-88 0 -144 -3l-14 96q94 17 194 17zM176 394v-8q0 -17 25 -17q17 0 41 12v35l-42 -4q-24 -3 -24 -18z" />
    <glyph glyph-name="guillemotleft" unicode="&#xab;" horiz-adv-x="552" 
d="M289 401l-86 -150l86 -156l-110 -69l-158 203v44l158 197zM524 401l-86 -150l86 -156l-110 -69l-158 203v44l158 197z" />
    <glyph glyph-name="logicalnot" unicode="&#xac;" horiz-adv-x="571" 
d="M523 381v-243l-155 -1v100h-327v144h482z" />
    <glyph glyph-name="softhyphen" unicode="&#xad;" horiz-adv-x="380" 
d="M335 196h-291v122h291v-122z" />
    <glyph glyph-name="registered" unicode="&#xae;" horiz-adv-x="493" 
d="M247 704q92 0 157 -65t65 -157q0 -93 -65 -158t-157 -65q-93 0 -158 65t-65 158q0 92 65 157t158 65zM247 316q67 0 115.5 48.5t48.5 117.5q0 68 -48.5 116.5t-115.5 48.5q-68 0 -116.5 -48.5t-48.5 -116.5q0 -69 48.5 -117.5t116.5 -48.5zM364 383h-90l-11 60
q-4 11 -18 11h-12v-71h-85v208q32 3 103 3q56 0 80 -14t24 -50q0 -43 -49 -48v-2q34 -2 41 -34zM233 505h15q13 0 17 3.5t4 12.5t-3.5 11.5t-17.5 2.5h-15v-30z" />
    <glyph glyph-name="macron" unicode="&#xaf;" horiz-adv-x="400" 
d="M360 590h-320v123h320v-123z" />
    <glyph glyph-name="degree" unicode="&#xb0;" horiz-adv-x="325" 
d="M163 704q58 0 100 -40.5t42 -98.5q0 -59 -42 -99.5t-100 -40.5q-59 0 -101 40.5t-42 99.5q0 58 42 98.5t101 40.5zM163 614q-20 0 -33.5 -14t-13.5 -35t13.5 -35.5t33.5 -14.5q19 0 32.5 14.5t13.5 35.5t-13.5 35t-32.5 14z" />
    <glyph glyph-name="plusminus" unicode="&#xb1;" horiz-adv-x="558" 
d="M514 465v-154h-158v-107h-153v107h-159v154h159v108h152v-108h159zM44 174h470v-155h-470v155z" />
    <glyph glyph-name="twosuperior" unicode="&#xb2;" horiz-adv-x="431" 
d="M201 781q100 0 142.5 -24t42.5 -94q0 -21 -17 -49t-47 -53l-91 -75q31 9 57 8l108 -3v-131h-359v79q0 43 22 64l75 63q67 57 78 74q5 8 -8 9q-6 1 -20 1q-78 0 -139 2l-4 117q72 12 160 12z" />
    <glyph glyph-name="threesuperior" unicode="&#xb3;" horiz-adv-x="411" 
d="M207 783q93 0 129 -21t36 -76q0 -51 -16 -75t-64 -30v-2q52 -7 71.5 -29.5t20.5 -74.5q1 -68 -39 -96t-138 -28q-81 0 -175 12l4 113q32 -1 125 -1q40 0 49.5 3.5t9.5 19.5q0 15 -7 19t-34 5l-87 3v93l87 4q26 1 32 4t6 16q0 12 -6.5 15t-32.5 3q-62 0 -132 2l-4 109
q84 12 165 12z" />
    <glyph glyph-name="acute" unicode="&#xb4;" horiz-adv-x="392" 
d="M352 614l-255 -103l-57 86l233 150z" />
    <glyph glyph-name="paragraph" unicode="&#xb6;" horiz-adv-x="621" 
d="M357 702q115 0 192 -17v-685h-127v578l-39 1v-789h-127v411q-127 11 -181.5 69t-54.5 180q0 138 77 195t260 57z" />
    <glyph glyph-name="periodcentered" unicode="&#xb7;" horiz-adv-x="265" 
d="M109 351h47q41 0 56.5 -15.5t15.5 -56.5v-41q0 -41 -15.5 -56.5t-56.5 -15.5h-47q-41 0 -56.5 15.5t-15.5 56.5v41q0 41 15.5 56.5t56.5 15.5z" />
    <glyph glyph-name="cedilla" unicode="&#xb8;" horiz-adv-x="263" 
d="M53 -105l19 72q94 15 136.5 3t39.5 -68q-4 -83 -70 -121.5t-164 -25.5l22 78q40 0 62 9.5t25 41.5q1 10 -11 11h-59z" />
    <glyph glyph-name="onesuperior" unicode="&#xb9;" horiz-adv-x="321" 
d="M275 360h-160v231q0 35 6 60l-97 -14l-18 98l109 39h160v-414z" />
    <glyph glyph-name="ordmasculine" unicode="&#xba;" horiz-adv-x="435" 
d="M218 623q105 0 147.5 -40.5t42.5 -138.5q0 -97 -42.5 -136t-147.5 -39t-148 39t-43 136q0 98 43 138.5t148 40.5zM218 521q-21 0 -27 -14t-6 -63q0 -47 6 -60.5t27 -13.5q20 0 26 13.5t6 60.5q0 49 -6 63t-26 14z" />
    <glyph glyph-name="guillemotright" unicode="&#xbb;" horiz-adv-x="552" 
d="M296 273v-44l-158 -203l-110 69l86 156l-86 150l110 69zM531 273v-44l-158 -203l-110 69l86 156l-86 150l110 69z" />
    <glyph glyph-name="onequarter" unicode="&#xbc;" horiz-adv-x="944" 
d="M120 276v231q0 35 6 60l-89 -14l-18 98l101 39h160v-414h-160zM683 690l-387 -690h-126l387 690h126zM920 177v-87l-44 -14h-1v-76h-147v76h-172q-29 0 -44 20t-5 45l103 273h141l-83 -227q-4 -10 10 -10h50v93l25 61h122v-154h45z" />
    <glyph glyph-name="onehalf" unicode="&#xbd;" horiz-adv-x="943" 
d="M280 276h-160v231q0 35 6 60l-89 -14l-18 98l101 39h160v-414zM296 0h-126l386 690h127zM721 421q100 0 141.5 -24t41.5 -94q0 -20 -16.5 -48.5t-46.5 -53.5l-87 -75q31 9 55 8l104 -3v-131h-353v79q0 43 22 64l72 63q69 64 76 74q5 8 -9 10h-17q-76 0 -136 2l-4 117
q71 12 157 12z" />
    <glyph glyph-name="threequarters" unicode="&#xbe;" horiz-adv-x="1017" 
d="M375 388q1 -68 -38 -96t-135 -28q-79 0 -172 12l4 113q32 -1 122 -1q38 0 46.5 3.5t8.5 19.5q0 17 -6.5 22t-30.5 5l-85 -1v95h85q23 0 28.5 4t5.5 19q0 12 -5.5 14.5t-29.5 3.5q-96 2 -129 2l-4 109q82 12 163 12q91 0 125.5 -21t34.5 -76q0 -52 -15.5 -75.5
t-62.5 -29.5v-2q52 -7 70.5 -29.5t19.5 -74.5zM759 690l-387 -690h-126l386 690h127zM995 177v-87l-44 -14h-1v-76h-147v76h-171q-29 0 -44.5 20t-5.5 45l103 273h141l-83 -227q-2 -6 0.5 -8t10.5 -2h49v93l25 61h122v-154h45z" />
    <glyph glyph-name="questiondown" unicode="&#xbf;" horiz-adv-x="531" 
d="M260 518h47q41 0 56.5 -15.5t15.5 -56.5v-41q0 -41 -15.5 -56.5t-56.5 -15.5h-47q-41 0 -56.5 15.5t-15.5 56.5v41q0 41 15.5 56.5t56.5 15.5zM201 291h164q3 -57 -14 -108t-40 -80l-44.5 -56.5t-24.5 -41.5q-4 -19 8.5 -26t47.5 -7h207l5 -138q-8 -2 -37.5 -7.5
l-37.5 -7t-33.5 -5.5t-43.5 -5t-47.5 -2t-64.5 -1q-116 0 -171.5 38t-55.5 117q0 40 17 73.5t41.5 59l50.5 51.5t47 63.5t26 82.5z" />
    <glyph glyph-name="Agrave" unicode="&#xc0;" horiz-adv-x="683" 
d="M386 720l-255 103l79 133l233 -150zM436 149h-189l-35 -149h-221l179 634q7 25 27 40.5t46 15.5h197q26 0 46 -15.5t27 -40.5l179 -634h-221zM401 301l-34 148q-9 47 -12 79h-27q-6 -47 -12 -79l-34 -148h119z" />
    <glyph glyph-name="Aacute" unicode="&#xc1;" horiz-adv-x="683" 
d="M298 720l-57 86l233 150l79 -133zM436 149h-189l-35 -149h-221l179 634q7 25 27 40.5t46 15.5h197q26 0 46 -15.5t27 -40.5l179 -634h-221zM401 301l-34 148q-9 47 -12 79h-27q-6 -47 -12 -79l-34 -148h119z" />
    <glyph glyph-name="Acircumflex" unicode="&#xc2;" horiz-adv-x="683" 
d="M178 710l-50 77l140 133h152l135 -141l-48 -69l-159 93h-8zM436 149h-189l-35 -149h-221l179 634q7 25 27 40.5t46 15.5h197q26 0 46 -15.5t27 -40.5l179 -634h-221zM401 301l-34 148q-9 47 -12 79h-27q-6 -47 -12 -79l-34 -148h119z" />
    <glyph glyph-name="Atilde" unicode="&#xc3;" horiz-adv-x="683" 
d="M239 751h-87q-15 83 12.5 127.5t72.5 41.5q40 -3 98 -21.5t71 -21.5q21 -4 25 3.5t4 34.5h87q15 -81 -10.5 -126.5t-74.5 -42.5q-39 3 -98 22t-72 21q-20 3 -24 -3t-4 -29v-6zM436 149h-189l-35 -149h-221l179 634q7 25 27 40.5t46 15.5h197q26 0 46 -15.5t27 -40.5
l179 -634h-221zM401 301l-34 148q-9 47 -12 79h-27q-6 -47 -12 -79l-34 -148h119z" />
    <glyph glyph-name="Adieresis" unicode="&#xc4;" horiz-adv-x="683" 
d="M281 763h-69q-39 0 -39 39v63q0 39 39 39h69q39 0 39 -39v-63q0 -39 -39 -39zM470 763h-69q-39 0 -39 39v63q0 39 39 39h69q39 0 39 -39v-63q0 -39 -39 -39zM436 149h-189l-35 -149h-221l179 634q7 25 27 40.5t46 15.5h197q26 0 46 -15.5t27 -40.5l179 -634h-221z
M401 301l-34 148q-9 47 -12 79h-27q-6 -47 -12 -79l-34 -148h119z" />
    <glyph glyph-name="Aring" unicode="&#xc5;" horiz-adv-x="683" 
d="M343 713q-53 0 -91 36.5t-38 88.5t38 88.5t91 36.5t91 -36.5t38 -88.5t-38 -88.5t-91 -36.5zM343 883q-18 0 -31 -13.5t-13 -31.5q0 -19 13 -32t31 -13t31 13t13 32q0 18 -13 31.5t-31 13.5zM436 149h-189l-35 -149h-221l179 634q7 25 27 40.5t46 15.5h197q26 0 46 -15.5
t27 -40.5l179 -634h-221zM401 301l-34 148q-9 47 -12 79h-27q-6 -47 -12 -79l-34 -148h119z" />
    <glyph glyph-name="AE" unicode="&#xc6;" horiz-adv-x="954" 
d="M916 159l10 -150q-104 -13 -341 -13q-67 0 -106.5 43t-39.5 114v8h-170l-67 -161h-221l241 534q27 60 62 92t104.5 49t187.5 17q229 0 350 -11l-10 -150h-236q-17 0 -28 -10t-11 -26v-75h241v-134h-241v-91q0 -16 10.5 -26t28.5 -10h236zM439 309v189q0 32 15 62h-14
q-4 -5 -23 -44l-86 -207h108z" />
    <glyph glyph-name="Ccedilla" unicode="&#xc7;" horiz-adv-x="605" 
d="M345 702q129 0 227 -27l-16 -158q-140 2 -211 2q-51 0 -68 -34.5t-17 -139.5t17 -139.5t68 -34.5q149 0 226 8l16 -158q-96 -33 -242 -33q-172 0 -242.5 80t-70.5 277t70.5 277t242.5 80zM236 -137l19 72q94 15 136.5 3t39.5 -68q-4 -83 -70 -121.5t-164 -25.5l22 78
q40 0 62 9.5t25 41.5q1 10 -11 11h-59z" />
    <glyph glyph-name="Egrave" unicode="&#xc8;" horiz-adv-x="596" 
d="M366 720l-255 103l79 133l233 -150zM558 162l10 -153q-100 -13 -359 -13q-71 0 -116.5 43.5t-45.5 113.5v384q0 70 45.5 113.5t116.5 43.5q259 0 359 -13l-10 -153h-253q-19 0 -30 -10t-11 -26v-67h258v-144h-258v-83q0 -16 11 -26t30 -10h253z" />
    <glyph glyph-name="Eacute" unicode="&#xc9;" horiz-adv-x="596" 
d="M278 720l-57 86l233 150l79 -133zM558 162l10 -153q-100 -13 -359 -13q-71 0 -116.5 43.5t-45.5 113.5v384q0 70 45.5 113.5t116.5 43.5q259 0 359 -13l-10 -153h-253q-19 0 -30 -10t-11 -26v-67h258v-144h-258v-83q0 -16 11 -26t30 -10h253z" />
    <glyph glyph-name="Ecircumflex" unicode="&#xca;" horiz-adv-x="596" 
d="M158 710l-50 77l140 133h152l135 -141l-48 -69l-159 93h-8zM558 162l10 -153q-100 -13 -359 -13q-71 0 -116.5 43.5t-45.5 113.5v384q0 70 45.5 113.5t116.5 43.5q259 0 359 -13l-10 -153h-253q-19 0 -30 -10t-11 -26v-67h258v-144h-258v-83q0 -16 11 -26t30 -10h253z
" />
    <glyph glyph-name="Edieresis" unicode="&#xcb;" horiz-adv-x="596" 
d="M261 763h-69q-39 0 -39 39v63q0 39 39 39h69q39 0 39 -39v-63q0 -39 -39 -39zM450 763h-69q-39 0 -39 39v63q0 39 39 39h69q39 0 39 -39v-63q0 -39 -39 -39zM558 162l10 -153q-100 -13 -359 -13q-71 0 -116.5 43.5t-45.5 113.5v384q0 70 45.5 113.5t116.5 43.5
q259 0 359 -13l-10 -153h-253q-19 0 -30 -10t-11 -26v-67h258v-144h-258v-83q0 -16 11 -26t30 -10h253z" />
    <glyph glyph-name="Igrave" unicode="&#xcc;" horiz-adv-x="321" 
d="M261 806l-57 -86l-255 103l79 133zM268 0h-215v690h215v-690z" />
    <glyph glyph-name="Iacute" unicode="&#xcd;" horiz-adv-x="321" 
d="M371 823l-255 -103l-57 86l233 150zM268 0h-215v690h215v-690z" />
    <glyph glyph-name="Icircumflex" unicode="&#xce;" horiz-adv-x="321" 
d="M373 779l-48 -69l-159 93h-8l-162 -93l-50 77l140 133h152zM268 0h-215v690h215v-690z" />
    <glyph glyph-name="Idieresis" unicode="&#xcf;" horiz-adv-x="321" 
d="M30 904h69q39 0 39 -39v-63q0 -39 -39 -39h-69q-39 0 -39 39v63q0 39 39 39zM219 904h69q39 0 39 -39v-63q0 -39 -39 -39h-69q-39 0 -39 39v63q0 39 39 39zM268 0h-215v690h215v-690z" />
    <glyph glyph-name="Eth" unicode="&#xd0;" horiz-adv-x="701" 
d="M347 700q123 0 190.5 -30.5t99.5 -107t32 -217.5t-32 -217.5t-99.5 -107t-190.5 -30.5q-150 0 -295 10v305h-45v104h45v281q176 10 295 10zM269 148l78 -1q56 0 74.5 39.5t18.5 158.5t-18.5 158.5t-74.5 39.5h-78v-134h99v-104h-99v-157z" />
    <glyph glyph-name="Ntilde" unicode="&#xd1;" horiz-adv-x="738" 
d="M271 920q40 -3 98 -21.5t71 -21.5q21 -4 25 3.5t4 34.5h87q15 -81 -10.5 -126.5t-74.5 -42.5q-39 3 -98 22t-72 21q-20 3 -24 -3t-4 -29v-6h-87q-15 83 12.5 127.5t72.5 41.5zM687 690v-615q0 -75 -75 -75h-83q-31 0 -47.5 14t-36.5 49l-150 237q-25 45 -46 118h-7
q10 -70 10 -126v-292h-200v615q0 75 75 75h83q31 0 47 -14t37 -49l144 -226q27 -48 53 -118h7q-9 76 -9 125l-1 282h199z" />
    <glyph glyph-name="Ograve" unicode="&#xd2;" horiz-adv-x="707" 
d="M453 806l-57 -86l-255 103l79 133zM353 704q123 0 190.5 -30.5t99.5 -108t32 -220.5t-32 -220.5t-99.5 -108t-190.5 -30.5q-122 0 -189.5 30.5t-99.5 108t-32 220.5t32 220.5t99.5 108t189.5 30.5zM353 543q-56 0 -74.5 -39.5t-18.5 -158.5t18.5 -158.5t74.5 -39.5
t74.5 39.5t18.5 158.5t-18.5 158.5t-74.5 39.5z" />
    <glyph glyph-name="Oacute" unicode="&#xd3;" horiz-adv-x="707" 
d="M563 823l-255 -103l-57 86l233 150zM353 704q123 0 190.5 -30.5t99.5 -108t32 -220.5t-32 -220.5t-99.5 -108t-190.5 -30.5q-122 0 -189.5 30.5t-99.5 108t-32 220.5t32 220.5t99.5 108t189.5 30.5zM353 543q-56 0 -74.5 -39.5t-18.5 -158.5t18.5 -158.5t74.5 -39.5
t74.5 39.5t18.5 158.5t-18.5 158.5t-74.5 39.5z" />
    <glyph glyph-name="Ocircumflex" unicode="&#xd4;" horiz-adv-x="707" 
d="M565 779l-48 -69l-159 93h-8l-162 -93l-50 77l140 133h152zM353 704q123 0 190.5 -30.5t99.5 -108t32 -220.5t-32 -220.5t-99.5 -108t-190.5 -30.5q-122 0 -189.5 30.5t-99.5 108t-32 220.5t32 220.5t99.5 108t189.5 30.5zM353 543q-56 0 -74.5 -39.5t-18.5 -158.5
t18.5 -158.5t74.5 -39.5t74.5 39.5t18.5 158.5t-18.5 158.5t-74.5 39.5z" />
    <glyph glyph-name="Otilde" unicode="&#xd5;" horiz-adv-x="707" 
d="M247 920q40 -3 98 -21.5t71 -21.5q21 -4 25 3.5t4 34.5h87q15 -81 -10.5 -126.5t-74.5 -42.5q-39 3 -98 22t-72 21q-20 3 -24 -3t-4 -29v-6h-87q-15 83 12.5 127.5t72.5 41.5zM353 704q123 0 190.5 -30.5t99.5 -108t32 -220.5t-32 -220.5t-99.5 -108t-190.5 -30.5
q-122 0 -189.5 30.5t-99.5 108t-32 220.5t32 220.5t99.5 108t189.5 30.5zM353 543q-56 0 -74.5 -39.5t-18.5 -158.5t18.5 -158.5t74.5 -39.5t74.5 39.5t18.5 158.5t-18.5 158.5t-74.5 39.5z" />
    <glyph glyph-name="Odieresis" unicode="&#xd6;" horiz-adv-x="707" 
d="M222 904h69q39 0 39 -39v-63q0 -39 -39 -39h-69q-39 0 -39 39v63q0 39 39 39zM411 904h69q39 0 39 -39v-63q0 -39 -39 -39h-69q-39 0 -39 39v63q0 39 39 39zM353 704q123 0 190.5 -30.5t99.5 -108t32 -220.5t-32 -220.5t-99.5 -108t-190.5 -30.5q-122 0 -189.5 30.5
t-99.5 108t-32 220.5t32 220.5t99.5 108t189.5 30.5zM353 543q-56 0 -74.5 -39.5t-18.5 -158.5t18.5 -158.5t74.5 -39.5t74.5 39.5t18.5 158.5t-18.5 158.5t-74.5 39.5z" />
    <glyph glyph-name="multiply" unicode="&#xd7;" horiz-adv-x="506" 
d="M367 293l122 -108l-97 -115l-138 122l-139 -122l-96 115l121 108l-121 107l96 116l139 -123l138 123l97 -116z" />
    <glyph glyph-name="Oslash" unicode="&#xd8;" horiz-adv-x="707" 
d="M632 730l-40 -88q44 -39 63.5 -110.5t19.5 -186.5q0 -143 -32 -220.5t-99.5 -108t-190.5 -30.5q-37 0 -70 3l-50 -107l-161 77l43 90q-83 73 -83 296q0 143 32 220.5t99.5 108t189.5 30.5q37 0 70 -3l48 105zM353 147q56 0 74.5 39.5t18.5 158.5t-18.5 158.5t-74.5 39.5
t-74.5 -39.5t-18.5 -158.5t18.5 -158.5t74.5 -39.5z" />
    <glyph glyph-name="Ugrave" unicode="&#xd9;" horiz-adv-x="705" 
d="M453 806l-57 -86l-255 103l79 133zM658 690v-405q0 -165 -66 -232t-228 -67q-175 0 -246 67t-71 232v405h217v-405q0 -83 18 -110.5t71 -27.5q52 0 70 27.5t18 110.5v405h217z" />
    <glyph glyph-name="Uacute" unicode="&#xda;" horiz-adv-x="705" 
d="M563 823l-255 -103l-57 86l233 150zM658 690v-405q0 -165 -66 -232t-228 -67q-175 0 -246 67t-71 232v405h217v-405q0 -83 18 -110.5t71 -27.5q52 0 70 27.5t18 110.5v405h217z" />
    <glyph glyph-name="Ucircumflex" unicode="&#xdb;" horiz-adv-x="705" 
d="M565 779l-48 -69l-159 93h-8l-162 -93l-50 77l140 133h152zM658 690v-405q0 -165 -66 -232t-228 -67q-175 0 -246 67t-71 232v405h217v-405q0 -83 18 -110.5t71 -27.5q52 0 70 27.5t18 110.5v405h217z" />
    <glyph glyph-name="Udieresis" unicode="&#xdc;" horiz-adv-x="705" 
d="M222 904h69q39 0 39 -39v-63q0 -39 -39 -39h-69q-39 0 -39 39v63q0 39 39 39zM411 904h69q39 0 39 -39v-63q0 -39 -39 -39h-69q-39 0 -39 39v63q0 39 39 39zM658 690v-405q0 -165 -66 -232t-228 -67q-175 0 -246 67t-71 232v405h217v-405q0 -83 18 -110.5t71 -27.5
q52 0 70 27.5t18 110.5v405h217z" />
    <glyph glyph-name="Yacute" unicode="&#xdd;" horiz-adv-x="654" 
d="M282 720l-57 86l233 150l79 -133zM436 215v-215h-217v213l-229 477h223l87 -217q9 -22 21 -97h13q12 73 21 98l86 216h223z" />
    <glyph glyph-name="Thorn" unicode="&#xde;" horiz-adv-x="633" 
d="M270 578h67q161 0 220 -49t59 -186q0 -135 -54.5 -184t-194.5 -49q-44 0 -97 5v-115h-217v690h217v-112zM270 263h62q40 0 53.5 16t13.5 64q0 50 -13.5 66t-53.5 16h-62v-162z" />
    <glyph glyph-name="germandbls" unicode="&#xdf;" horiz-adv-x="738" 
d="M598 319l52 -42q51 -44 66.5 -68t15.5 -68q0 -77 -45 -114.5t-161 -37.5q-62 0 -181 11l13 128h117q36 0 41 6q3 4 3 14q0 6 -4 13t-12.5 15.5t-16.5 15.5l-22.5 19l-23.5 20l-30 20q-35 29 -52 55.5t-17 63.5q0 16 5 30t11 22.5l20.5 28l24.5 33.5q21 30 27.5 44.5
t6.5 31.5q0 26 -12.5 34t-53.5 8q-44 0 -57 -11.5t-13 -49.5v-541h-210v374h-82v121l82 5v66q0 98 62 137t216 39q106 0 162.5 -18t76.5 -52.5t20 -97.5q0 -31 -8.5 -53t-37.5 -60q-42 -55 -42 -75q0 -6 3 -12.5t10 -13.5l12 -12t16.5 -14.5z" />
    <glyph glyph-name="agrave" unicode="&#xe0;" 
d="M346 532l-255 103l79 133l233 -150zM333 514q111 0 165 -46t54 -158v-310h-167l-19 70q-66 -84 -173 -84q-74 0 -123 37t-49 105v50q0 60 44 94.5t121 34.5h156v4q-1 27 -14 38.5t-45 11.5q-110 0 -216 -5l-19 133q136 25 285 25zM225 175v-16q0 -31 42 -31q33 0 75 25
v53h-79q-38 0 -38 -31z" />
    <glyph glyph-name="aacute" unicode="&#xe1;" 
d="M258 532l-57 86l233 150l79 -133zM333 514q111 0 165 -46t54 -158v-310h-167l-19 70q-66 -84 -173 -84q-74 0 -123 37t-49 105v50q0 60 44 94.5t121 34.5h156v4q-1 27 -14 38.5t-45 11.5q-110 0 -216 -5l-19 133q136 25 285 25zM225 175v-16q0 -31 42 -31q33 0 75 25v53
h-79q-38 0 -38 -31z" />
    <glyph glyph-name="acircumflex" unicode="&#xe2;" 
d="M138 522l-50 77l140 133h152l135 -141l-48 -69l-159 93h-8zM333 514q111 0 165 -46t54 -158v-310h-167l-19 70q-66 -84 -173 -84q-74 0 -123 37t-49 105v50q0 60 44 94.5t121 34.5h156v4q-1 27 -14 38.5t-45 11.5q-110 0 -216 -5l-19 133q136 25 285 25zM225 175v-16
q0 -31 42 -31q33 0 75 25v53h-79q-38 0 -38 -31z" />
    <glyph glyph-name="atilde" unicode="&#xe3;" 
d="M199 563h-87q-15 83 12.5 127.5t72.5 41.5q40 -3 98 -21.5t71 -21.5q21 -4 25 3.5t4 34.5h87q15 -81 -10.5 -126.5t-74.5 -42.5q-39 3 -98 22t-72 21q-20 3 -24 -3t-4 -29v-6zM333 514q111 0 165 -46t54 -158v-310h-167l-19 70q-66 -84 -173 -84q-74 0 -123 37t-49 105
v50q0 60 44 94.5t121 34.5h156v4q-1 27 -14 38.5t-45 11.5q-110 0 -216 -5l-19 133q136 25 285 25zM225 175v-16q0 -31 42 -31q33 0 75 25v53h-79q-38 0 -38 -31z" />
    <glyph glyph-name="adieresis" unicode="&#xe4;" 
d="M241 575h-69q-39 0 -39 39v63q0 39 39 39h69q39 0 39 -39v-63q0 -39 -39 -39zM430 575h-69q-39 0 -39 39v63q0 39 39 39h69q39 0 39 -39v-63q0 -39 -39 -39zM333 514q111 0 165 -46t54 -158v-310h-167l-19 70q-66 -84 -173 -84q-74 0 -123 37t-49 105v50q0 60 44 94.5
t121 34.5h156v4q-1 27 -14 38.5t-45 11.5q-110 0 -216 -5l-19 133q136 25 285 25zM225 175v-16q0 -31 42 -31q33 0 75 25v53h-79q-38 0 -38 -31z" />
    <glyph glyph-name="aring" unicode="&#xe5;" 
d="M303 525q-53 0 -91 36.5t-38 88.5t38 88.5t91 36.5t91 -36.5t38 -88.5t-38 -88.5t-91 -36.5zM303 695q-18 0 -31 -13.5t-13 -31.5q0 -19 13 -32t31 -13t31 13t13 32q0 18 -13 31.5t-31 13.5zM333 514q111 0 165 -46t54 -158v-310h-167l-19 70q-66 -84 -173 -84
q-74 0 -123 37t-49 105v50q0 60 44 94.5t121 34.5h156v4q-1 27 -14 38.5t-45 11.5q-110 0 -216 -5l-19 133q136 25 285 25zM225 175v-16q0 -31 42 -31q33 0 75 25v53h-79q-38 0 -38 -31z" />
    <glyph glyph-name="ae" unicode="&#xe6;" horiz-adv-x="886" 
d="M634 149q94 0 198 11l19 -126q-89 -46 -240 -46q-172 0 -236 88q-67 -90 -186 -90q-72 0 -120 37t-48 105v50q0 58 43.5 92t117.5 34h149v7q0 27 -12 38.5t-42 11.5q-107 0 -211 -5l-19 133q132 25 280 25q79 0 128 -23q57 23 155 23q135 0 194.5 -44t60.5 -134
q1 -71 -42 -101.5t-151 -30.5h-126q7 -31 26 -43t62 -12zM616 379q-42 1 -56.5 -13t-16.5 -63h70q33 0 42 6.5t9 31.5q0 23 -10.5 30.5t-37.5 7.5zM264 128q34 0 76 27q-6 32 -7 50l-72 1q-36 0 -36 -31v-16q0 -31 39 -31z" />
    <glyph glyph-name="ccedilla" unicode="&#xe7;" horiz-adv-x="528" 
d="M294 514q132 0 209 -37l-21 -130h-152q-49 0 -66.5 -19.5t-17.5 -76.5q0 -58 17.5 -77.5t66.5 -19.5q98 0 161 7l19 -131q-80 -42 -218 -42q-147 0 -206.5 59t-59.5 204t60 204t208 59zM189 -122l19 72q94 15 136.5 3t39.5 -68q-4 -83 -70 -121.5t-164 -25.5l22 78
q40 0 62 9.5t25 41.5q1 10 -11 11h-59z" />
    <glyph glyph-name="egrave" unicode="&#xe8;" 
d="M355 532l-255 103l79 133l233 -150zM333 149q98 0 203 11l19 -126q-91 -46 -245 -46q-153 0 -219 63.5t-66 194.5q0 147 64 207.5t220 60.5q138 0 198.5 -44t61.5 -134q1 -71 -42.5 -101.5t-151.5 -30.5h-125q6 -31 24.5 -43t58.5 -12zM315 379q-40 1 -53.5 -13
t-15.5 -63h70q34 0 43 6.5t9 31.5q0 23 -11.5 30.5t-41.5 7.5z" />
    <glyph glyph-name="eacute" unicode="&#xe9;" 
d="M267 532l-57 86l233 150l79 -133zM333 149q98 0 203 11l19 -126q-91 -46 -245 -46q-153 0 -219 63.5t-66 194.5q0 147 64 207.5t220 60.5q138 0 198.5 -44t61.5 -134q1 -71 -42.5 -101.5t-151.5 -30.5h-125q6 -31 24.5 -43t58.5 -12zM315 379q-40 1 -53.5 -13t-15.5 -63
h70q34 0 43 6.5t9 31.5q0 23 -11.5 30.5t-41.5 7.5z" />
    <glyph glyph-name="ecircumflex" unicode="&#xea;" 
d="M147 522l-50 77l140 133h152l135 -141l-48 -69l-159 93h-8zM333 149q98 0 203 11l19 -126q-91 -46 -245 -46q-153 0 -219 63.5t-66 194.5q0 147 64 207.5t220 60.5q138 0 198.5 -44t61.5 -134q1 -71 -42.5 -101.5t-151.5 -30.5h-125q6 -31 24.5 -43t58.5 -12zM315 379
q-40 1 -53.5 -13t-15.5 -63h70q34 0 43 6.5t9 31.5q0 23 -11.5 30.5t-41.5 7.5z" />
    <glyph glyph-name="edieresis" unicode="&#xeb;" 
d="M250 575h-69q-39 0 -39 39v63q0 39 39 39h69q39 0 39 -39v-63q0 -39 -39 -39zM439 575h-69q-39 0 -39 39v63q0 39 39 39h69q39 0 39 -39v-63q0 -39 -39 -39zM333 149q98 0 203 11l19 -126q-91 -46 -245 -46q-153 0 -219 63.5t-66 194.5q0 147 64 207.5t220 60.5
q138 0 198.5 -44t61.5 -134q1 -71 -42.5 -101.5t-151.5 -30.5h-125q6 -31 24.5 -43t58.5 -12zM315 379q-40 1 -53.5 -13t-15.5 -63h70q34 0 43 6.5t9 31.5q0 23 -11.5 30.5t-41.5 7.5z" />
    <glyph glyph-name="igrave" unicode="&#xec;" horiz-adv-x="305" 
d="M253 618l-57 -86l-255 103l79 133zM258 0h-211v500h211v-500z" />
    <glyph glyph-name="iacute" unicode="&#xed;" horiz-adv-x="305" 
d="M363 635l-255 -103l-57 86l233 150zM258 0h-211v500h211v-500z" />
    <glyph glyph-name="icircumflex" unicode="&#xee;" horiz-adv-x="305" 
d="M365 591l-48 -69l-159 93h-8l-162 -93l-50 77l140 133h152zM258 0h-211v500h211v-500z" />
    <glyph glyph-name="idieresis" unicode="&#xef;" horiz-adv-x="305" 
d="M22 716h69q39 0 39 -39v-63q0 -39 -39 -39h-69q-39 0 -39 39v63q0 39 39 39zM211 716h69q39 0 39 -39v-63q0 -39 -39 -39h-69q-39 0 -39 39v63q0 39 39 39zM258 0h-211v500h211v-500z" />
    <glyph glyph-name="eth" unicode="&#xf0;" horiz-adv-x="604" 
d="M558 641l-67 -67q85 -107 85 -283q0 -169 -65.5 -237t-213.5 -68q-139 0 -204.5 55.5t-65.5 172.5q0 125 51.5 182t173.5 57q54 0 94 -12q-15 76 -63 105.5t-154 21.5l17 130q121 9 211 -27l82 83zM299 130q37 0 47 29t10 131v18q-26 3 -54 3q-31 0 -43 -16t-12 -77
q0 -54 10 -71t42 -17z" />
    <glyph glyph-name="ntilde" unicode="&#xf1;" horiz-adv-x="621" 
d="M216 563h-87q-15 83 12.5 127.5t72.5 41.5q40 -3 98 -21.5t71 -21.5q21 -4 25 3.5t4 34.5h87q15 -81 -10.5 -126.5t-74.5 -42.5q-39 3 -98 22t-72 21q-20 3 -24 -3t-4 -29v-6zM433 514q148 0 148 -140v-374h-210v307q0 16 -8 23t-28 7q-42 0 -82 -12v-325h-210v500h165
l19 -74q95 88 206 88z" />
    <glyph glyph-name="ograve" unicode="&#xf2;" horiz-adv-x="611" 
d="M409 618l-57 -86l-255 103l79 133zM306 514q153 0 216 -59.5t63 -205.5q0 -144 -63 -202.5t-216 -58.5q-154 0 -217 58.5t-63 202.5q0 146 63 205.5t217 59.5zM306 372q-37 0 -48.5 -23t-11.5 -100q0 -74 11.5 -96.5t48.5 -22.5q36 0 47.5 22.5t11.5 96.5q0 77 -11.5 100
t-47.5 23z" />
    <glyph glyph-name="oacute" unicode="&#xf3;" horiz-adv-x="611" 
d="M519 635l-255 -103l-57 86l233 150zM306 514q153 0 216 -59.5t63 -205.5q0 -144 -63 -202.5t-216 -58.5q-154 0 -217 58.5t-63 202.5q0 146 63 205.5t217 59.5zM306 372q-37 0 -48.5 -23t-11.5 -100q0 -74 11.5 -96.5t48.5 -22.5q36 0 47.5 22.5t11.5 96.5
q0 77 -11.5 100t-47.5 23z" />
    <glyph glyph-name="ocircumflex" unicode="&#xf4;" horiz-adv-x="611" 
d="M521 591l-48 -69l-159 93h-8l-162 -93l-50 77l140 133h152zM306 514q153 0 216 -59.5t63 -205.5q0 -144 -63 -202.5t-216 -58.5q-154 0 -217 58.5t-63 202.5q0 146 63 205.5t217 59.5zM306 372q-37 0 -48.5 -23t-11.5 -100q0 -74 11.5 -96.5t48.5 -22.5q36 0 47.5 22.5
t11.5 96.5q0 77 -11.5 100t-47.5 23z" />
    <glyph glyph-name="otilde" unicode="&#xf5;" horiz-adv-x="611" 
d="M203 732q40 -3 98 -21.5t71 -21.5q21 -4 25 3.5t4 34.5h87q15 -81 -10.5 -126.5t-74.5 -42.5q-39 3 -98 22t-72 21q-20 3 -24 -3t-4 -29v-6h-87q-15 83 12.5 127.5t72.5 41.5zM306 514q153 0 216 -59.5t63 -205.5q0 -144 -63 -202.5t-216 -58.5q-154 0 -217 58.5
t-63 202.5q0 146 63 205.5t217 59.5zM306 372q-37 0 -48.5 -23t-11.5 -100q0 -74 11.5 -96.5t48.5 -22.5q36 0 47.5 22.5t11.5 96.5q0 77 -11.5 100t-47.5 23z" />
    <glyph glyph-name="odieresis" unicode="&#xf6;" horiz-adv-x="611" 
d="M178 716h69q39 0 39 -39v-63q0 -39 -39 -39h-69q-39 0 -39 39v63q0 39 39 39zM367 716h69q39 0 39 -39v-63q0 -39 -39 -39h-69q-39 0 -39 39v63q0 39 39 39zM306 514q153 0 216 -59.5t63 -205.5q0 -144 -63 -202.5t-216 -58.5q-154 0 -217 58.5t-63 202.5q0 146 63 205.5
t217 59.5zM306 372q-37 0 -48.5 -23t-11.5 -100q0 -74 11.5 -96.5t48.5 -22.5q36 0 47.5 22.5t11.5 96.5q0 77 -11.5 100t-47.5 23z" />
    <glyph glyph-name="divide" unicode="&#xf7;" horiz-adv-x="535" 
d="M242 577h50q44 0 60.5 -16.5t16.5 -60.5v-18q0 -44 -16.5 -60.5t-60.5 -16.5h-50q-44 0 -60.5 16.5t-16.5 60.5v18q0 44 16.5 60.5t60.5 16.5zM508 219h-481v146h481v-146zM242 176h50q44 0 60.5 -16.5t16.5 -60.5v-18q0 -43 -16.5 -60t-60.5 -17h-50q-44 0 -60.5 16.5
t-16.5 60.5v18q0 44 16.5 60.5t60.5 16.5z" />
    <glyph glyph-name="oslash" unicode="&#xf8;" horiz-adv-x="611" 
d="M530 541l-33 -67q88 -57 88 -225q0 -144 -63 -202.5t-216 -58.5q-29 0 -42 1l-45 -93l-140 71l31 63q-84 56 -84 219q0 146 63 205.5t217 59.5l36 -1l48 100zM306 130q36 0 47.5 22.5t11.5 96.5q0 77 -11.5 100t-47.5 23q-37 0 -48.5 -23t-11.5 -100q0 -74 11.5 -96.5
t48.5 -22.5z" />
    <glyph glyph-name="ugrave" unicode="&#xf9;" horiz-adv-x="615" 
d="M352 543l-255 103l79 133l233 -150zM572 500v-500h-165l-19 73q-96 -87 -200 -87q-148 0 -148 140v374h210v-307q0 -31 37 -31q36 0 74 12v326h211z" />
    <glyph glyph-name="uacute" unicode="&#xfa;" horiz-adv-x="615" 
d="M264 543l-57 86l233 150l79 -133zM572 500v-500h-165l-19 73q-96 -87 -200 -87q-148 0 -148 140v374h210v-307q0 -31 37 -31q36 0 74 12v326h211z" />
    <glyph glyph-name="ucircumflex" unicode="&#xfb;" horiz-adv-x="615" 
d="M144 533l-50 77l140 133h152l135 -141l-48 -69l-159 93h-8zM572 500v-500h-165l-19 73q-96 -87 -200 -87q-148 0 -148 140v374h210v-307q0 -31 37 -31q36 0 74 12v326h211z" />
    <glyph glyph-name="udieresis" unicode="&#xfc;" horiz-adv-x="615" 
d="M247 586h-69q-39 0 -39 39v63q0 39 39 39h69q39 0 39 -39v-63q0 -39 -39 -39zM436 586h-69q-39 0 -39 39v63q0 39 39 39h69q39 0 39 -39v-63q0 -39 -39 -39zM572 500v-500h-165l-19 73q-96 -87 -200 -87q-148 0 -148 140v374h210v-307q0 -31 37 -31q36 0 74 12v326h211z
" />
    <glyph glyph-name="yacute" unicode="&#xfd;" horiz-adv-x="602" 
d="M260 532l-57 86l233 150l79 -133zM604 500l-159 -486q-9 -30 -22 -57t-33.5 -56.5t-46 -50t-60.5 -37t-77 -18t-94 7.5l-14 113q59 12 93 31t54 53h-34q-51 0 -66 49l-148 451h223l59 -276q4 -27 13 -94h9q7 24 21 94l59 276h223z" />
    <glyph glyph-name="thorn" unicode="&#xfe;" horiz-adv-x="620" 
d="M410 512q96 0 139 -68t43 -200q0 -148 -45 -203t-144 -55q-97 0 -154 41q5 -62 4 -108v-99h-210v880h210v-100q1 -44 -6 -143q57 55 163 55zM318 123q34 0 46 21.5t12 97.5t-11.5 97.5t-43.5 21.5t-68 -17v-208q33 -13 65 -13z" />
    <glyph glyph-name="ydieresis" unicode="&#xff;" horiz-adv-x="602" 
d="M243 575h-69q-39 0 -39 39v63q0 39 39 39h69q39 0 39 -39v-63q0 -39 -39 -39zM432 575h-69q-39 0 -39 39v63q0 39 39 39h69q39 0 39 -39v-63q0 -39 -39 -39zM604 500l-159 -486q-9 -30 -22 -57t-33.5 -56.5t-46 -50t-60.5 -37t-77 -18t-94 7.5l-14 113q59 12 93 31t54 53
h-34q-51 0 -66 49l-148 451h223l59 -276q4 -27 13 -94h9q7 24 21 94l59 276h223z" />
    <glyph glyph-name="Amacron" unicode="&#x100;" horiz-adv-x="683" 
d="M504 772h-320v123h320v-123zM436 149h-189l-35 -149h-221l179 634q7 25 27 40.5t46 15.5h197q26 0 46 -15.5t27 -40.5l179 -634h-221zM401 301l-34 148q-9 47 -12 79h-27q-6 -47 -12 -79l-34 -148h119z" />
    <glyph glyph-name="amacron" unicode="&#x101;" 
d="M464 584h-320v123h320v-123zM333 514q111 0 165 -46t54 -158v-310h-167l-19 70q-66 -84 -173 -84q-74 0 -123 37t-49 105v50q0 60 44 94.5t121 34.5h156v4q-1 27 -14 38.5t-45 11.5q-110 0 -216 -5l-19 133q136 25 285 25zM225 175v-16q0 -31 42 -31q33 0 75 25v53h-79
q-38 0 -38 -31z" />
    <glyph glyph-name="Abreve" unicode="&#x102;" horiz-adv-x="683" 
d="M343 737q-90 0 -140.5 51.5t-38.5 120.5l97 13q0 -32 18.5 -45.5t63.5 -13.5q44 0 62.5 13.5t18.5 45.5l97 -13q12 -69 -38 -120.5t-140 -51.5zM436 149h-189l-35 -149h-221l179 634q7 25 27 40.5t46 15.5h197q26 0 46 -15.5t27 -40.5l179 -634h-221zM401 301l-34 148
q-9 47 -12 79h-27q-6 -47 -12 -79l-34 -148h119z" />
    <glyph glyph-name="abreve" unicode="&#x103;" 
d="M303 549q-90 0 -140.5 51.5t-38.5 120.5l97 13q0 -32 18.5 -45.5t63.5 -13.5q44 0 62.5 13.5t18.5 45.5l97 -13q12 -69 -38 -120.5t-140 -51.5zM333 514q111 0 165 -46t54 -158v-310h-167l-19 70q-66 -84 -173 -84q-74 0 -123 37t-49 105v50q0 60 44 94.5t121 34.5h156v4
q-1 27 -14 38.5t-45 11.5q-110 0 -216 -5l-19 133q136 25 285 25zM225 175v-16q0 -31 42 -31q33 0 75 25v53h-79q-38 0 -38 -31z" />
    <glyph glyph-name="Aogonek" unicode="&#x104;" horiz-adv-x="683" 
d="M693 -120l12 -72q-81 -30 -128.5 -21t-65 39.5t-4.5 68.5q18 56 102 105h-138l-35 149h-189l-35 -149h-221l179 634q7 25 27 40.5t46 15.5h197q26 0 46 -15.5t27 -40.5l179 -634q-40 -72 -47 -87q-12 -25 2 -31.5t46 -1.5zM401 301l-34 148q-9 47 -12 79h-27
q-6 -47 -12 -79l-34 -148h119z" />
    <glyph glyph-name="aogonek" unicode="&#x105;" 
d="M553 -120l12 -72q-81 -30 -128.5 -21t-65 39.5t-4.5 68.5q18 56 102 105h-84l-19 70q-66 -84 -173 -84q-74 0 -123 37t-49 105v50q0 60 44 94.5t121 34.5h156v4q-1 27 -14 38.5t-45 11.5q-110 0 -216 -5l-19 133q136 25 285 25q111 0 165 -46t54 -158v-310
q-40 -72 -47 -87q-12 -25 2 -31.5t46 -1.5zM225 175v-16q0 -31 42 -31q33 0 75 25v53h-79q-38 0 -38 -31z" />
    <glyph glyph-name="Cacute" unicode="&#x106;" horiz-adv-x="605" 
d="M554 823l-255 -103l-57 86l233 150zM345 702q129 0 227 -27l-16 -158q-140 2 -211 2q-51 0 -68 -34.5t-17 -139.5t17 -139.5t68 -34.5q149 0 226 8l16 -158q-96 -33 -242 -33q-172 0 -242.5 80t-70.5 277t70.5 277t242.5 80z" />
    <glyph glyph-name="cacute" unicode="&#x107;" horiz-adv-x="528" 
d="M502 635l-255 -103l-57 86l233 150zM294 514q132 0 209 -37l-21 -130h-152q-49 0 -66.5 -19.5t-17.5 -76.5q0 -58 17.5 -77.5t66.5 -19.5q98 0 161 7l19 -131q-80 -42 -218 -42q-147 0 -206.5 59t-59.5 204t60 204t208 59z" />
    <glyph glyph-name="Cdotaccent" unicode="&#x10a;" horiz-adv-x="605" 
d="M313 913h63q59 0 59 -57v-47q0 -57 -59 -57h-63q-59 0 -59 57v47q0 57 59 57zM345 702q129 0 227 -27l-16 -158q-140 2 -211 2q-51 0 -68 -34.5t-17 -139.5t17 -139.5t68 -34.5q149 0 226 8l16 -158q-96 -33 -242 -33q-172 0 -242.5 80t-70.5 277t70.5 277t242.5 80z" />
    <glyph glyph-name="cdotaccent" unicode="&#x10b;" horiz-adv-x="528" 
d="M261 725h63q59 0 59 -57v-47q0 -57 -59 -57h-63q-59 0 -59 57v47q0 57 59 57zM294 514q132 0 209 -37l-21 -130h-152q-49 0 -66.5 -19.5t-17.5 -76.5q0 -58 17.5 -77.5t66.5 -19.5q98 0 161 7l19 -131q-80 -42 -218 -42q-147 0 -206.5 59t-59.5 204t60 204t208 59z" />
    <glyph glyph-name="Ccaron" unicode="&#x10c;" horiz-adv-x="605" 
d="M548 867l-163 -131h-82l-164 131l50 77l151 -76h8l152 76zM345 702q129 0 227 -27l-16 -158q-140 2 -211 2q-51 0 -68 -34.5t-17 -139.5t17 -139.5t68 -34.5q149 0 226 8l16 -158q-96 -33 -242 -33q-172 0 -242.5 80t-70.5 277t70.5 277t242.5 80z" />
    <glyph glyph-name="ccaron" unicode="&#x10d;" horiz-adv-x="528" 
d="M496 679l-163 -131h-82l-164 131l50 77l151 -76h8l152 76zM294 514q132 0 209 -37l-21 -130h-152q-49 0 -66.5 -19.5t-17.5 -76.5q0 -58 17.5 -77.5t66.5 -19.5q98 0 161 7l19 -131q-80 -42 -218 -42q-147 0 -206.5 59t-59.5 204t60 204t208 59z" />
    <glyph glyph-name="Dcaron" unicode="&#x10e;" horiz-adv-x="701" 
d="M307 736l-164 131l50 77l151 -76h8l152 76l48 -77l-163 -131h-82zM347 700q123 0 190.5 -30.5t99.5 -107t32 -217.5t-32 -217.5t-99.5 -107t-190.5 -30.5q-150 0 -295 10v690q176 10 295 10zM269 148l78 -1q56 0 74.5 39.5t18.5 158.5t-18.5 158.5t-74.5 39.5h-78v-395z
" />
    <glyph glyph-name="dcaron" unicode="&#x10f;" horiz-adv-x="620" 
d="M675 704h33q31 0 43.5 -11t12.5 -39v-44q0 -49 -12.5 -81t-39.5 -65l-62 17q13 35 15 95q-46 0 -48 44l3 34q0 28 12 39t43 11zM367 700h210v-700h-167l-17 82q-50 -94 -184 -94q-95 0 -138 68t-43 200q0 147 45.5 202.5t144.5 55.5q96 0 153 -42q-4 70 -4 109v119z
M299 156q38 0 68 15v193q-33 13 -65 13q-34 0 -46 -21.5t-12 -97.5q0 -65 11.5 -83.5t43.5 -18.5z" />
    <glyph glyph-name="Dcroat" unicode="&#x110;" horiz-adv-x="701" 
d="M347 700q123 0 190.5 -30.5t99.5 -107t32 -217.5t-32 -217.5t-99.5 -107t-190.5 -30.5q-150 0 -295 10v305h-45v104h45v281q176 10 295 10zM269 148l78 -1q56 0 74.5 39.5t18.5 158.5t-18.5 158.5t-74.5 39.5h-78v-134h99v-104h-99v-157z" />
    <glyph glyph-name="dcroat" unicode="&#x111;" horiz-adv-x="617" 
d="M631 547h-54v-547h-167l-17 82q-50 -94 -184 -94q-95 0 -138 68t-43 200q0 147 45.5 202.5t144.5 55.5q96 0 153 -42q-2 23 -4 75h-107v84h107v69h210v-69h54v-84zM299 156q38 0 68 15v193q-33 13 -65 13q-34 0 -46 -21.5t-12 -97.5q0 -65 11.5 -83.5t43.5 -18.5z" />
    <glyph glyph-name="Emacron" unicode="&#x112;" horiz-adv-x="596" 
d="M484 772h-320v123h320v-123zM558 162l10 -153q-100 -13 -359 -13q-71 0 -116.5 43.5t-45.5 113.5v384q0 70 45.5 113.5t116.5 43.5q259 0 359 -13l-10 -153h-253q-19 0 -30 -10t-11 -26v-67h258v-144h-258v-83q0 -16 11 -26t30 -10h253z" />
    <glyph glyph-name="emacron" unicode="&#x113;" 
d="M473 584h-320v123h320v-123zM333 149q98 0 203 11l19 -126q-91 -46 -245 -46q-153 0 -219 63.5t-66 194.5q0 147 64 207.5t220 60.5q138 0 198.5 -44t61.5 -134q1 -71 -42.5 -101.5t-151.5 -30.5h-125q6 -31 24.5 -43t58.5 -12zM315 379q-40 1 -53.5 -13t-15.5 -63h70
q34 0 43 6.5t9 31.5q0 23 -11.5 30.5t-41.5 7.5z" />
    <glyph glyph-name="Edotaccent" unicode="&#x116;" horiz-adv-x="596" 
d="M355 752h-63q-59 0 -59 57v47q0 57 59 57h63q59 0 59 -57v-47q0 -57 -59 -57zM558 162l10 -153q-100 -13 -359 -13q-71 0 -116.5 43.5t-45.5 113.5v384q0 70 45.5 113.5t116.5 43.5q259 0 359 -13l-10 -153h-253q-19 0 -30 -10t-11 -26v-67h258v-144h-258v-83
q0 -16 11 -26t30 -10h253z" />
    <glyph glyph-name="edotaccent" unicode="&#x117;" 
d="M344 564h-63q-59 0 -59 57v47q0 57 59 57h63q59 0 59 -57v-47q0 -57 -59 -57zM333 149q98 0 203 11l19 -126q-91 -46 -245 -46q-153 0 -219 63.5t-66 194.5q0 147 64 207.5t220 60.5q138 0 198.5 -44t61.5 -134q1 -71 -42.5 -101.5t-151.5 -30.5h-125q6 -31 24.5 -43
t58.5 -12zM315 379q-40 1 -53.5 -13t-15.5 -63h70q34 0 43 6.5t9 31.5q0 23 -11.5 30.5t-41.5 7.5z" />
    <glyph glyph-name="Eogonek" unicode="&#x118;" horiz-adv-x="596" 
d="M569 -111l12 -72q-81 -30 -128.5 -21t-65 39.5t-4.5 68.5q16 50 88 97q-84 -5 -262 -5q-71 0 -116.5 43.5t-45.5 113.5v384q0 70 45.5 113.5t116.5 43.5q259 0 359 -13l-10 -153h-253q-19 0 -30 -10t-11 -26v-67h258v-144h-258v-83q0 -16 11 -26t30 -10h253l10 -153
q-40 -72 -47 -87q-12 -25 2 -31.5t46 -1.5z" />
    <glyph glyph-name="eogonek" unicode="&#x119;" 
d="M508 -53q-12 -25 2 -31.5t46 -1.5l12 -72q-81 -30 -128.5 -21t-65 39.5t-4.5 68.5q9 31 46 65q-51 -6 -106 -6q-153 0 -219 63.5t-66 194.5q0 147 64 207.5t220 60.5q138 0 198.5 -44t61.5 -134q1 -71 -42.5 -101.5t-151.5 -30.5h-125q6 -31 24.5 -43t58.5 -12
q98 0 203 11l19 -126q-40 -72 -47 -87zM315 379q-40 1 -53.5 -13t-15.5 -63h70q34 0 43 6.5t9 31.5q0 23 -11.5 30.5t-41.5 7.5z" />
    <glyph glyph-name="Ecaron" unicode="&#x11a;" horiz-adv-x="596" 
d="M282 736l-164 131l50 77l151 -76h8l152 76l48 -77l-163 -131h-82zM558 162l10 -153q-100 -13 -359 -13q-71 0 -116.5 43.5t-45.5 113.5v384q0 70 45.5 113.5t116.5 43.5q259 0 359 -13l-10 -153h-253q-19 0 -30 -10t-11 -26v-67h258v-144h-258v-83q0 -16 11 -26t30 -10
h253z" />
    <glyph glyph-name="ecaron" unicode="&#x11b;" 
d="M271 548l-164 131l50 77l151 -76h8l152 76l48 -77l-163 -131h-82zM333 149q98 0 203 11l19 -126q-91 -46 -245 -46q-153 0 -219 63.5t-66 194.5q0 147 64 207.5t220 60.5q138 0 198.5 -44t61.5 -134q1 -71 -42.5 -101.5t-151.5 -30.5h-125q6 -31 24.5 -43t58.5 -12z
M315 379q-40 1 -53.5 -13t-15.5 -63h70q34 0 43 6.5t9 31.5q0 23 -11.5 30.5t-41.5 7.5z" />
    <glyph glyph-name="Gbreve" unicode="&#x11e;" horiz-adv-x="668" 
d="M352 737q-90 0 -140.5 51.5t-38.5 120.5l97 13q0 -32 18.5 -45.5t63.5 -13.5q44 0 62.5 13.5t18.5 45.5l97 -13q12 -69 -38 -120.5t-140 -51.5zM631 397v-397h-160l-19 71q-28 -35 -77.5 -60t-113.5 -25q-121 0 -175 82.5t-54 276.5q0 198 73 278.5t252 80.5
q144 0 245 -29l-16 -156q-152 2 -228 2q-58 0 -78 -35t-20 -141q0 -104 18 -139t70 -35q35 0 75 6v220h208z" />
    <glyph glyph-name="gbreve" unicode="&#x11f;" horiz-adv-x="604" 
d="M292 549q-90 0 -140.5 51.5t-38.5 120.5l97 13q0 -32 18.5 -45.5t63.5 -13.5q44 0 62.5 13.5t18.5 45.5l97 -13q12 -69 -38 -120.5t-140 -51.5zM591 423l-55 -9q8 -23 8 -58q0 -87 -57.5 -122.5t-199.5 -35.5q-41 0 -74 3q-11 -11 -4 -27.5t32 -17.5l182 -12
q84 -6 122 -44t38 -113q0 -102 -64 -135t-225 -33q-119 0 -181 15t-84 43.5t-22 83.5q0 37 17 62t61 44q-33 36 -23.5 85t51.5 69q-84 33 -84 135q0 86 58.5 122t200.5 36q93 0 145 -14h168zM287 312q37 0 49.5 9t12.5 35t-12.5 34.5t-49.5 8.5t-50 -8.5t-13 -34.5t13 -35
t50 -9zM387 -12q0 17 -16 22.5t-62 8.5l-89 7q-17 -13 -17 -33q0 -19 18 -25.5t70 -6.5q57 0 76.5 5.5t19.5 21.5z" />
    <glyph glyph-name="Gdotaccent" unicode="&#x120;" horiz-adv-x="668" 
d="M384 752h-63q-59 0 -59 57v47q0 57 59 57h63q59 0 59 -57v-47q0 -57 -59 -57zM631 397v-397h-160l-19 71q-28 -35 -77.5 -60t-113.5 -25q-121 0 -175 82.5t-54 276.5q0 198 73 278.5t252 80.5q144 0 245 -29l-16 -156q-152 2 -228 2q-58 0 -78 -35t-20 -141
q0 -104 18 -139t70 -35q35 0 75 6v220h208z" />
    <glyph glyph-name="gdotaccent" unicode="&#x121;" horiz-adv-x="604" 
d="M324 564h-63q-59 0 -59 57v47q0 57 59 57h63q59 0 59 -57v-47q0 -57 -59 -57zM591 423l-55 -9q8 -23 8 -58q0 -87 -57.5 -122.5t-199.5 -35.5q-41 0 -74 3q-11 -11 -4 -27.5t32 -17.5l182 -12q84 -6 122 -44t38 -113q0 -102 -64 -135t-225 -33q-119 0 -181 15t-84 43.5
t-22 83.5q0 37 17 62t61 44q-33 36 -23.5 85t51.5 69q-84 33 -84 135q0 86 58.5 122t200.5 36q93 0 145 -14h168zM287 312q37 0 49.5 9t12.5 35t-12.5 34.5t-49.5 8.5t-50 -8.5t-13 -34.5t13 -35t50 -9zM387 -12q0 17 -16 22.5t-62 8.5l-89 7q-17 -13 -17 -33
q0 -19 18 -25.5t70 -6.5q57 0 76.5 5.5t19.5 21.5z" />
    <glyph glyph-name="Gcommaaccent" unicode="&#x122;" horiz-adv-x="668" 
d="M631 397v-397h-160l-19 71q-28 -35 -77.5 -60t-113.5 -25q-121 0 -175 82.5t-54 276.5q0 198 73 278.5t252 80.5q144 0 245 -29l-16 -156q-152 2 -228 2q-58 0 -78 -35t-20 -141q0 -104 18 -139t70 -35q35 0 75 6v220h208zM331 -48h38q36 0 50 -11.5t15 -42.5v-48
q0 -53 -14.5 -87.5t-46.5 -71.5l-71 19q16 39 18 103q-54 0 -56 48l3 37q1 31 14.5 42.5t49.5 11.5z" />
    <glyph glyph-name="gcommaaccent" unicode="&#x123;" horiz-adv-x="604" 
d="M322 548h-38q-36 0 -50 11.5t-15 42.5v48q0 53 14.5 87.5t46.5 71.5l71 -19q-16 -39 -18 -103q54 0 56 -48l-3 -37q-1 -31 -14.5 -42.5t-49.5 -11.5zM591 423l-55 -9q8 -23 8 -58q0 -87 -57.5 -122.5t-199.5 -35.5q-41 0 -74 3q-11 -11 -4 -27.5t32 -17.5l182 -12
q84 -6 122 -44t38 -113q0 -102 -64 -135t-225 -33q-119 0 -181 15t-84 43.5t-22 83.5q0 37 17 62t61 44q-33 36 -23.5 85t51.5 69q-84 33 -84 135q0 86 58.5 122t200.5 36q93 0 145 -14h168zM287 312q37 0 49.5 9t12.5 35t-12.5 34.5t-49.5 8.5t-50 -8.5t-13 -34.5t13 -35
t50 -9zM387 -12q0 17 -16 22.5t-62 8.5l-89 7q-17 -13 -17 -33q0 -19 18 -25.5t70 -6.5q57 0 76.5 5.5t19.5 21.5z" />
    <glyph glyph-name="Hbar" unicode="&#x126;" horiz-adv-x="714" 
d="M712 507h-51v-507h-217v290h-174v-290h-217v507h-49v94h49v89h217v-89h174v89h217v-89h51v-94zM444 507h-174v-65h174v65z" />
    <glyph glyph-name="hbar" unicode="&#x127;" horiz-adv-x="624" 
d="M436 514q148 0 148 -140v-374h-210v307q0 16 -8 23t-28 7q-42 0 -82 -12v-325h-210v547h-55v84h55v69h210v-69h106v-84h-105q0 -45 -10 -107q92 74 189 74z" />
    <glyph glyph-name="Imacron" unicode="&#x12a;" horiz-adv-x="321" 
d="M322 772h-320v123h320v-123zM268 0h-215v690h215v-690z" />
    <glyph glyph-name="imacron" unicode="&#x12b;" horiz-adv-x="305" 
d="M314 584h-320v123h320v-123zM258 0h-211v500h211v-500z" />
    <glyph glyph-name="Iogonek" unicode="&#x12e;" horiz-adv-x="321" 
d="M268 0h-28q-40 -72 -47 -87q-12 -25 2 -31.5t46 -1.5l12 -72q-81 -30 -128.5 -21t-65 39.5t-4.5 68.5q18 56 102 105h-104v690h215v-690z" />
    <glyph glyph-name="iogonek" unicode="&#x12f;" horiz-adv-x="305" 
d="M185 564h-63q-59 0 -59 57v47q0 57 59 57h63q59 0 59 -57v-47q0 -57 -59 -57zM258 0h-20q-40 -72 -47 -87q-12 -25 2 -31.5t46 -1.5l12 -72q-81 -30 -128.5 -21t-65 39.5t-4.5 68.5q18 56 102 105h-108v500h211v-500z" />
    <glyph glyph-name="Idotaccent" unicode="&#x130;" horiz-adv-x="321" 
d="M130 913h63q59 0 59 -57v-47q0 -57 -59 -57h-63q-59 0 -59 57v47q0 57 59 57zM268 0h-215v690h215v-690z" />
    <glyph glyph-name="dotlessi" unicode="&#x131;" horiz-adv-x="305" 
d="M258 0h-211v500h211v-500z" />
    <glyph glyph-name="IJ" unicode="&#x132;" horiz-adv-x="725" 
d="M268 0h-215v690h215v-690zM675 690v-563q0 -67 -49 -104t-134 -37q-39 0 -88.5 7t-72.5 19l23 136h47q59 0 59 35v507h215z" />
    <glyph glyph-name="ij" unicode="&#x133;" horiz-adv-x="607" 
d="M408 739h89q61 0 61 -62v-51q0 -62 -61 -62h-89q-61 0 -61 62v51q0 62 61 62zM107 729h89q61 0 61 -62v-51q0 -62 -61 -62h-89q-61 0 -61 62v51q0 62 61 62zM256 0h-209v500h209v-500zM560 500v-442q0 -80 -44 -149t-118 -99l-116 92q69 69 69 156v442h209z" />
    <glyph glyph-name="Kcommaaccent" unicode="&#x136;" horiz-adv-x="676" 
d="M685 0h-241l-146 288h-36q8 -35 8 -63v-225h-217v690h217v-174q0 -47 -10 -88h38l144 262h233l-159 -270q-25 -46 -61 -61v-4q15 -6 36.5 -26.5t32.5 -41.5zM329 -48h38q36 0 50 -11.5t15 -42.5v-48q0 -53 -14.5 -87.5t-46.5 -71.5l-71 19q16 39 18 103q-54 0 -56 48
l3 37q1 31 14.5 42.5t49.5 11.5z" />
    <glyph glyph-name="kcommaaccent" unicode="&#x137;" horiz-adv-x="609" 
d="M253 0h-210v700h210v-268q0 -47 -8 -98h29l95 166h230l-105 -164q-21 -38 -58 -60v-4q12 -6 29.5 -26.5t28.5 -40.5l124 -205h-231l-114 216h-27q7 -45 7 -73v-143zM287 -38h38q36 0 50 -11.5t15 -42.5v-48q0 -53 -14.5 -87.5t-46.5 -71.5l-71 19q16 39 18 103
q-54 0 -56 48l3 37q1 31 14.5 42.5t49.5 11.5z" />
    <glyph glyph-name="Lacute" unicode="&#x139;" horiz-adv-x="557" 
d="M374 823l-255 -103l-57 86l233 150zM267 690v-482q0 -16 11.5 -26t30.5 -10h232l10 -162q-103 -14 -337 -14q-74 0 -119 43.5t-45 113.5v537h217z" />
    <glyph glyph-name="lacute" unicode="&#x13a;" horiz-adv-x="358" 
d="M365 828l-255 -103l-57 86l233 150zM253 700v-518q0 -36 50 -36h34l23 -134q-20 -12 -65.5 -19t-81.5 -7q-79 0 -124 37t-45 103v574h209z" />
    <glyph glyph-name="Lcommaaccent" unicode="&#x13b;" horiz-adv-x="557" 
d="M267 690v-482q0 -16 11.5 -26t30.5 -10h232l10 -162q-103 -14 -337 -14q-74 0 -119 43.5t-45 113.5v537h217zM275 -48h38q36 0 50 -11.5t15 -42.5v-48q0 -53 -14.5 -87.5t-46.5 -71.5l-71 19q16 39 18 103q-54 0 -56 48l3 37q1 31 14.5 42.5t49.5 11.5z" />
    <glyph glyph-name="lcommaaccent" unicode="&#x13c;" horiz-adv-x="358" 
d="M253 700v-518q0 -36 50 -36h34l23 -134q-20 -12 -65.5 -19t-81.5 -7q-79 0 -124 37t-45 103v574h209zM172 -48h38q36 0 50 -11.5t15 -42.5v-48q0 -53 -14.5 -87.5t-46.5 -71.5l-71 19q16 39 18 103q-54 0 -56 48l3 37q1 31 14.5 42.5t49.5 11.5z" />
    <glyph glyph-name="Lcaron" unicode="&#x13d;" horiz-adv-x="557" 
d="M267 690v-482q0 -16 11.5 -26t30.5 -10h232l10 -162q-103 -14 -337 -14q-74 0 -119 43.5t-45 113.5v537h217zM390 689h38q36 0 50 -11.5t15 -42.5v-48q0 -53 -14.5 -87.5t-46.5 -71.5l-71 19q16 39 18 103q-54 0 -56 48l3 37q1 31 14.5 42.5t49.5 11.5z" />
    <glyph glyph-name="lcaron" unicode="&#x13e;" horiz-adv-x="358" 
d="M350 704h33q31 0 43.5 -11t12.5 -39v-44q0 -49 -12.5 -81t-39.5 -65l-62 17q13 35 15 95q-46 0 -48 44l3 34q0 28 12 39t43 11zM253 700v-518q0 -36 50 -36h34l23 -134q-20 -12 -65.5 -19t-81.5 -7q-79 0 -124 37t-45 103v574h209z" />
    <glyph glyph-name="Ldot" unicode="&#x13f;" horiz-adv-x="557" 
d="M267 690v-482q0 -16 11.5 -26t30.5 -10h232l10 -162q-103 -14 -337 -14q-74 0 -119 43.5t-45 113.5v537h217zM467 343h-63q-59 0 -59 57v47q0 57 59 57h63q59 0 59 -57v-47q0 -57 -59 -57z" />
    <glyph glyph-name="ldot" unicode="&#x140;" horiz-adv-x="478" 
d="M253 700v-518q0 -36 50 -36h34l23 -134q-20 -12 -65.5 -19t-81.5 -7q-79 0 -124 37t-45 103v574h209zM417 311h-63q-59 0 -59 57v47q0 57 59 57h63q59 0 59 -57v-47q0 -57 -59 -57z" />
    <glyph glyph-name="Lslash" unicode="&#x141;" horiz-adv-x="557" 
d="M541 172l10 -162q-103 -14 -337 -14q-74 0 -119 43.5t-45 113.5v133l-43 -17v104l43 17v300h217v-217l104 40v-104l-104 -40v-161q0 -16 11.5 -26t30.5 -10h232z" />
    <glyph glyph-name="lslash" unicode="&#x142;" horiz-adv-x="390" 
d="M366 146l23 -134q-20 -12 -65.5 -19t-81.5 -7q-79 0 -124 37t-45 103v160l-69 -27v104l69 27v310h209v-229l83 32v-104l-83 -32v-185q0 -36 50 -36h34z" />
    <glyph glyph-name="Nacute" unicode="&#x143;" horiz-adv-x="738" 
d="M587 823l-255 -103l-57 86l233 150zM687 690v-615q0 -75 -75 -75h-83q-31 0 -47.5 14t-36.5 49l-150 237q-25 45 -46 118h-7q10 -70 10 -126v-292h-200v615q0 75 75 75h83q31 0 47 -14t37 -49l144 -226q27 -48 53 -118h7q-9 76 -9 125l-1 282h199z" />
    <glyph glyph-name="nacute" unicode="&#x144;" horiz-adv-x="621" 
d="M275 532l-57 86l233 150l79 -133zM433 514q148 0 148 -140v-374h-210v307q0 16 -8 23t-28 7q-42 0 -82 -12v-325h-210v500h165l19 -74q95 88 206 88z" />
    <glyph glyph-name="Ncommaaccent" unicode="&#x145;" horiz-adv-x="738" 
d="M687 690v-615q0 -75 -75 -75h-83q-31 0 -47.5 14t-36.5 49l-150 237q-25 45 -46 118h-7q10 -70 10 -126v-292h-200v615q0 75 75 75h83q31 0 47 -14t37 -49l144 -226q27 -48 53 -118h7q-9 76 -9 125l-1 282h199zM360 -48h38q36 0 50 -11.5t15 -42.5v-48q0 -53 -14.5 -87.5
t-46.5 -71.5l-71 19q16 39 18 103q-54 0 -56 48l3 37q1 31 14.5 42.5t49.5 11.5z" />
    <glyph glyph-name="ncommaaccent" unicode="&#x146;" horiz-adv-x="621" 
d="M433 514q148 0 148 -140v-374h-210v307q0 16 -8 23t-28 7q-42 0 -82 -12v-325h-210v500h165l19 -74q95 88 206 88zM280 -38h38q36 0 50 -11.5t15 -42.5v-48q0 -53 -14.5 -87.5t-46.5 -71.5l-71 19q16 39 18 103q-54 0 -56 48l3 37q1 31 14.5 42.5t49.5 11.5z" />
    <glyph glyph-name="Ncaron" unicode="&#x147;" horiz-adv-x="738" 
d="M581 867l-163 -131h-82l-164 131l50 77l151 -76h8l152 76zM687 690v-615q0 -75 -75 -75h-83q-31 0 -47.5 14t-36.5 49l-150 237q-25 45 -46 118h-7q10 -70 10 -126v-292h-200v615q0 75 75 75h83q31 0 47 -14t37 -49l144 -226q27 -48 53 -118h7q-9 76 -9 125l-1 282h199z
" />
    <glyph glyph-name="ncaron" unicode="&#x148;" horiz-adv-x="621" 
d="M279 548l-164 131l50 77l151 -76h8l152 76l48 -77l-163 -131h-82zM433 514q148 0 148 -140v-374h-210v307q0 16 -8 23t-28 7q-42 0 -82 -12v-325h-210v500h165l19 -74q95 88 206 88z" />
    <glyph glyph-name="Eng" unicode="&#x14a;" horiz-adv-x="740" 
d="M687 690v-723q0 -80 -39.5 -125.5t-105.5 -45.5q-86 0 -144 26l23 136h36q43 0 43 27v24h-5q-13 0 -45 54l-155 237q-19 33 -47 118h-6q9 -70 9 -116v-302h-199v615q0 75 75 75h82q31 0 48.5 -14.5t36.5 -48.5l144 -226q29 -49 52 -118h7q-10 68 -10 123v284h200z" />
    <glyph glyph-name="eng" unicode="&#x14b;" horiz-adv-x="621" 
d="M433 514q148 0 148 -140v-398q0 -81 -41 -126t-116 -45q-37 0 -83.5 7t-69.5 19l23 136h36q41 0 41 27v313q0 16 -8 23t-28 7q-42 0 -82 -11v-326h-210v500h164l19 -73q99 87 207 87z" />
    <glyph glyph-name="Omacron" unicode="&#x14c;" horiz-adv-x="707" 
d="M514 772h-320v123h320v-123zM353 704q123 0 190.5 -30.5t99.5 -108t32 -220.5t-32 -220.5t-99.5 -108t-190.5 -30.5q-122 0 -189.5 30.5t-99.5 108t-32 220.5t32 220.5t99.5 108t189.5 30.5zM353 543q-56 0 -74.5 -39.5t-18.5 -158.5t18.5 -158.5t74.5 -39.5t74.5 39.5
t18.5 158.5t-18.5 158.5t-74.5 39.5z" />
    <glyph glyph-name="omacron" unicode="&#x14d;" horiz-adv-x="611" 
d="M470 584h-320v123h320v-123zM306 514q153 0 216 -59.5t63 -205.5q0 -144 -63 -202.5t-216 -58.5q-154 0 -217 58.5t-63 202.5q0 146 63 205.5t217 59.5zM306 372q-37 0 -48.5 -23t-11.5 -100q0 -74 11.5 -96.5t48.5 -22.5q36 0 47.5 22.5t11.5 96.5q0 77 -11.5 100
t-47.5 23z" />
    <glyph glyph-name="Ohungarumlaut" unicode="&#x150;" horiz-adv-x="707" 
d="M402 884l-169 -176l-83 67l123 193zM617 884l-170 -176l-82 66l123 194zM353 704q123 0 190.5 -30.5t99.5 -108t32 -220.5t-32 -220.5t-99.5 -108t-190.5 -30.5q-122 0 -189.5 30.5t-99.5 108t-32 220.5t32 220.5t99.5 108t189.5 30.5zM353 543q-56 0 -74.5 -39.5
t-18.5 -158.5t18.5 -158.5t74.5 -39.5t74.5 39.5t18.5 158.5t-18.5 158.5t-74.5 39.5z" />
    <glyph glyph-name="ohungarumlaut" unicode="&#x151;" horiz-adv-x="611" 
d="M358 696l-169 -176l-83 67l123 193zM573 696l-170 -176l-82 66l123 194zM306 514q153 0 216 -59.5t63 -205.5q0 -144 -63 -202.5t-216 -58.5q-154 0 -217 58.5t-63 202.5q0 146 63 205.5t217 59.5zM306 372q-37 0 -48.5 -23t-11.5 -100q0 -74 11.5 -96.5t48.5 -22.5
q36 0 47.5 22.5t11.5 96.5q0 77 -11.5 100t-47.5 23z" />
    <glyph glyph-name="OE" unicode="&#x152;" horiz-adv-x="982" 
d="M944 162l10 -153q-97 -13 -352 -13q-48 0 -85 23q-70 -33 -168 -33q-120 0 -186.5 30.5t-98 108t-31.5 220.5t31.5 220.5t98 108t186.5 30.5q105 0 179 -27q34 17 75 17q254 0 351 -13l-10 -153h-241q-18 0 -28.5 -10t-10.5 -26v-72h246v-134h-246v-88q0 -16 10.5 -26
t28.5 -10h241zM262 345q0 -120 17 -159t70 -39q65 0 97 11v376q-34 9 -97 9q-53 0 -70 -39t-17 -159z" />
    <glyph glyph-name="oe" unicode="&#x153;" horiz-adv-x="909" 
d="M657 147q94 0 198 11l19 -126q-89 -46 -240 -46q-102 0 -166 32q-59 -30 -167 -30q-152 0 -213.5 58.5t-61.5 202.5q0 146 61.5 205.5t213.5 59.5q108 0 167 -30q60 28 165 28q135 0 194.5 -44t60.5 -134q1 -71 -42 -101.5t-153 -30.5h-120q6 -31 24.5 -43t59.5 -12z
M636 377q-38 1 -51 -13t-15 -63h65q34 0 43 6.5t9 31.5q0 23 -11.5 30.5t-39.5 7.5zM301 130q34 0 46 17t14 72l-1 25q0 22 1 32q-1 59 -12.5 77.5t-44.5 18.5q-36 0 -46.5 -23t-10.5 -100q0 -75 10 -97t44 -22z" />
    <glyph glyph-name="Racute" unicode="&#x154;" horiz-adv-x="676" 
d="M294 720l-57 86l233 150l79 -133zM663 0h-227l-45 205q-6 28 -18.5 37.5t-40.5 9.5h-67v-252h-213v690q102 10 293 10q156 0 223.5 -46t67.5 -164q0 -150 -140 -164v-6q94 -12 113 -108zM265 405h75q47 0 62.5 14t15.5 57t-15.5 57t-62.5 14h-75v-142z" />
    <glyph glyph-name="racute" unicode="&#x155;" horiz-adv-x="452" 
d="M204 532l-57 86l233 150l79 -133zM207 500l19 -73q93 87 195 87h29l-18 -192h-53q-53 0 -126 -10v-312h-210v500h164z" />
    <glyph glyph-name="Rcommaaccent" unicode="&#x156;" horiz-adv-x="676" 
d="M663 0h-227l-45 205q-6 28 -18.5 37.5t-40.5 9.5h-67v-252h-213v690q102 10 293 10q156 0 223.5 -46t67.5 -164q0 -150 -140 -164v-6q94 -12 113 -108zM265 405h75q47 0 62.5 14t15.5 57t-15.5 57t-62.5 14h-75v-142zM328 -48h38q36 0 50 -11.5t15 -42.5v-48
q0 -53 -14.5 -87.5t-46.5 -71.5l-71 19q16 39 18 103q-54 0 -56 48l3 37q1 31 14.5 42.5t49.5 11.5z" />
    <glyph glyph-name="rcommaaccent" unicode="&#x157;" horiz-adv-x="452" 
d="M450 514l-18 -192h-53q-53 0 -126 -10v-312h-210v500h164l19 -73q93 87 195 87h29zM117 -38h38q36 0 50 -11.5t15 -42.5v-48q0 -53 -14.5 -87.5t-46.5 -71.5l-71 19q16 39 18 103q-54 0 -56 48l3 37q1 31 14.5 42.5t49.5 11.5z" />
    <glyph glyph-name="Rcaron" unicode="&#x158;" horiz-adv-x="676" 
d="M298 736l-164 131l50 77l151 -76h8l152 76l48 -77l-163 -131h-82zM663 0h-227l-45 205q-6 28 -18.5 37.5t-40.5 9.5h-67v-252h-213v690q102 10 293 10q156 0 223.5 -46t67.5 -164q0 -150 -140 -164v-6q94 -12 113 -108zM265 405h75q47 0 62.5 14t15.5 57t-15.5 57
t-62.5 14h-75v-142z" />
    <glyph glyph-name="rcaron" unicode="&#x159;" horiz-adv-x="452" 
d="M208 548l-164 131l50 77l151 -76h8l152 76l48 -77l-163 -131h-82zM207 500l19 -73q93 87 195 87h29l-18 -192h-53q-53 0 -126 -10v-312h-210v500h164z" />
    <glyph glyph-name="Sacute" unicode="&#x15a;" horiz-adv-x="610" 
d="M524 823l-255 -103l-57 86l233 150zM314 704q151 0 251 -35l-13 -139q-120 2 -243 2q-38 0 -51 -5t-13 -21q0 -14 12.5 -23.5t47.5 -23.5l125 -52q85 -37 120 -85t35 -125q0 -117 -61 -164t-221 -47q-135 0 -267 34l13 152q198 -5 251 -5q41 0 54.5 5t13.5 19t-9.5 23
t-37.5 19l-137 60q-84 37 -119 84.5t-35 123.5q0 116 63 159.5t221 43.5z" />
    <glyph glyph-name="sacute" unicode="&#x15b;" horiz-adv-x="553" 
d="M491 635l-255 -103l-57 86l233 150zM256 514q149 0 256 -22l-13 -122h-197q-54 0 -64.5 -1.5t-10.5 -10.5q0 -8 18 -13l16 -4q15 -4 25 -7l115 -29q69 -19 100.5 -53.5t31.5 -97.5q0 -94 -54.5 -129.5t-187.5 -35.5q-138 0 -260 21l13 122h178q74 0 91 2t17 13
q0 2 -0.5 3.5t-2 3t-3 2.5t-4.5 2.5t-6.5 2t-9 2.5t-10.5 3t-13 3.5t-16 4.5l-110 30q-77 22 -104 61t-27 103q0 72 53 109t179 37z" />
    <glyph glyph-name="Scedilla" unicode="&#x15e;" horiz-adv-x="610" 
d="M314 704q151 0 251 -35l-13 -139q-120 2 -243 2q-38 0 -51 -5t-13 -21q0 -14 12.5 -23.5t47.5 -23.5l125 -52q85 -37 120 -85t35 -125q0 -117 -61 -164t-221 -47q-135 0 -267 34l13 152q198 -5 251 -5q41 0 54.5 5t13.5 19t-9.5 23t-37.5 19l-137 60q-84 37 -119 84.5
t-35 123.5q0 116 63 159.5t221 43.5zM218 -139l19 72q94 15 136.5 3t39.5 -68q-4 -83 -70 -121.5t-164 -25.5l22 78q40 0 62 9.5t25 41.5q1 10 -11 11h-59z" />
    <glyph glyph-name="scedilla" unicode="&#x15f;" horiz-adv-x="553" 
d="M256 514q149 0 256 -22l-13 -122h-197q-54 0 -64.5 -1.5t-10.5 -10.5q0 -8 18 -13l16 -4q15 -4 25 -7l115 -29q69 -19 100.5 -53.5t31.5 -97.5q0 -94 -54.5 -129.5t-187.5 -35.5q-138 0 -260 21l13 122h178q74 0 91 2t17 13q0 2 -0.5 3.5t-2 3t-3 2.5t-4.5 2.5t-6.5 2
t-9 2.5t-10.5 3t-13 3.5t-16 4.5l-110 30q-77 22 -104 61t-27 103q0 72 53 109t179 37zM176 -121l19 72q94 15 136.5 3t39.5 -68q-4 -83 -70 -121.5t-164 -25.5l22 78q40 0 62 9.5t25 41.5q1 10 -11 11h-59z" />
    <glyph glyph-name="Scaron" unicode="&#x160;" horiz-adv-x="610" 
d="M518 867l-163 -131h-82l-164 131l50 77l151 -76h8l152 76zM314 704q151 0 251 -35l-13 -139q-120 2 -243 2q-38 0 -51 -5t-13 -21q0 -14 12.5 -23.5t47.5 -23.5l125 -52q85 -37 120 -85t35 -125q0 -117 -61 -164t-221 -47q-135 0 -267 34l13 152q198 -5 251 -5
q41 0 54.5 5t13.5 19t-9.5 23t-37.5 19l-137 60q-84 37 -119 84.5t-35 123.5q0 116 63 159.5t221 43.5z" />
    <glyph glyph-name="scaron" unicode="&#x161;" horiz-adv-x="553" 
d="M485 679l-163 -131h-82l-164 131l50 77l151 -76h8l152 76zM256 514q149 0 256 -22l-13 -122h-197q-54 0 -64.5 -1.5t-10.5 -10.5q0 -8 18 -13l16 -4q15 -4 25 -7l115 -29q69 -19 100.5 -53.5t31.5 -97.5q0 -94 -54.5 -129.5t-187.5 -35.5q-138 0 -260 21l13 122h178
q74 0 91 2t17 13q0 2 -0.5 3.5t-2 3t-3 2.5t-4.5 2.5t-6.5 2t-9 2.5t-10.5 3t-13 3.5t-16 4.5l-110 30q-77 22 -104 61t-27 103q0 72 53 109t179 37z" />
    <glyph glyph-name="Tcedilla" unicode="&#x162;" horiz-adv-x="623" 
d="M613 528h-193v-528h-217v528h-193v162h603v-162zM216 -125l19 72q94 15 136.5 3t39.5 -68q-4 -83 -70 -121.5t-164 -25.5l22 78q40 0 62 9.5t25 41.5q1 10 -11 11h-59z" />
    <glyph glyph-name="tcedilla" unicode="&#x163;" horiz-adv-x="438" 
d="M305 374v-192q0 -19 10 -27.5t33 -8.5h53l23 -134q-62 -26 -170 -26q-73 0 -116 37t-43 103v248h-85v121l84 4v132h211v-131h121v-126h-121zM153 -124l19 72q94 15 136.5 3t39.5 -68q-4 -83 -70 -121.5t-164 -25.5l22 78q40 0 62 9.5t25 41.5q1 10 -11 11h-59z" />
    <glyph glyph-name="Tcaron" unicode="&#x164;" horiz-adv-x="623" 
d="M270 736l-164 131l50 77l151 -76h8l152 76l48 -77l-163 -131h-82zM613 528h-193v-528h-217v528h-193v162h603v-162z" />
    <glyph glyph-name="tcaron" unicode="&#x165;" horiz-adv-x="438" 
d="M367 811h38q36 0 50 -11.5t15 -42.5v-48q0 -53 -14.5 -87.5t-46.5 -71.5l-71 19q16 39 18 103q-54 0 -56 48l3 37q1 31 14.5 42.5t49.5 11.5zM305 500h121v-126h-121v-192q0 -19 10 -27.5t33 -8.5h53l23 -134q-62 -26 -170 -26q-73 0 -116 37t-43 103v248h-85v121l84 4
v132h211v-131z" />
    <glyph glyph-name="Tbar" unicode="&#x166;" horiz-adv-x="627" 
d="M422 528v-127h115v-94h-115v-307h-217v307h-117v94h117v127h-193v162h603v-162h-193z" />
    <glyph glyph-name="tbar" unicode="&#x167;" horiz-adv-x="438" 
d="M305 374v-50h82v-94h-82v-48q0 -19 10 -27.5t33 -8.5h53l23 -134q-62 -26 -170 -26q-73 0 -116 37t-43 103v104h-56v94h56v50h-85v121l84 4v132h211v-131h121v-126h-121z" />
    <glyph glyph-name="Umacron" unicode="&#x16a;" horiz-adv-x="705" 
d="M514 772h-320v123h320v-123zM658 690v-405q0 -165 -66 -232t-228 -67q-175 0 -246 67t-71 232v405h217v-405q0 -83 18 -110.5t71 -27.5q52 0 70 27.5t18 110.5v405h217z" />
    <glyph glyph-name="umacron" unicode="&#x16b;" horiz-adv-x="615" 
d="M470 595h-320v123h320v-123zM572 500v-500h-165l-19 73q-96 -87 -200 -87q-148 0 -148 140v374h210v-307q0 -31 37 -31q36 0 74 12v326h211z" />
    <glyph glyph-name="Uring" unicode="&#x16e;" horiz-adv-x="705" 
d="M353 963q53 0 91 -36.5t38 -88.5t-38 -88.5t-91 -36.5t-91 36.5t-38 88.5t38 88.5t91 36.5zM353 883q-18 0 -31 -13.5t-13 -31.5q0 -19 13 -32t31 -13t31 13t13 32q0 18 -13 31.5t-31 13.5zM658 690v-405q0 -165 -66 -232t-228 -67q-175 0 -246 67t-71 232v405h217v-405
q0 -83 18 -110.5t71 -27.5q52 0 70 27.5t18 110.5v405h217z" />
    <glyph glyph-name="uring" unicode="&#x16f;" horiz-adv-x="615" 
d="M309 536q-53 0 -91 36.5t-38 88.5t38 88.5t91 36.5t91 -36.5t38 -88.5t-38 -88.5t-91 -36.5zM309 706q-18 0 -31 -13.5t-13 -31.5q0 -19 13 -32t31 -13t31 13t13 32q0 18 -13 31.5t-31 13.5zM572 500v-500h-165l-19 73q-96 -87 -200 -87q-148 0 -148 140v374h210v-307
q0 -31 37 -31q36 0 74 12v326h211z" />
    <glyph glyph-name="Uhungarumlaut" unicode="&#x170;" horiz-adv-x="705" 
d="M402 884l-169 -176l-83 67l123 193zM617 884l-170 -176l-82 66l123 194zM658 690v-405q0 -165 -66 -232t-228 -67q-175 0 -246 67t-71 232v405h217v-405q0 -83 18 -110.5t71 -27.5q52 0 70 27.5t18 110.5v405h217z" />
    <glyph glyph-name="uhungarumlaut" unicode="&#x171;" horiz-adv-x="615" 
d="M189 531l-83 67l123 193l129 -84zM321 597l123 194l129 -84l-170 -176zM361 500h211v-500h-165l-19 73q-96 -87 -200 -87q-148 0 -148 140v374h210v-307q0 -31 37 -31q36 0 74 12v326z" />
    <glyph glyph-name="Uogonek" unicode="&#x172;" horiz-adv-x="705" 
d="M658 690v-405q0 -156 -59 -224t-201 -74q-3 -6 -19.5 -35.5t-25.5 -47.5q-12 -25 2 -31.5t46 -1.5l12 -72q-81 -30 -128.5 -21t-65 39.5t-4.5 68.5q16 52 96 102q-144 9 -204 77t-60 220v405h217v-405q0 -83 18 -110.5t71 -27.5q52 0 70 27.5t18 110.5v405h217z" />
    <glyph glyph-name="uogonek" unicode="&#x173;" horiz-adv-x="615" 
d="M573 -120l12 -72q-81 -30 -128.5 -21t-65 39.5t-4.5 68.5q18 56 102 105h-82l-19 73q-96 -87 -200 -87q-148 0 -148 140v374h210v-307q0 -31 37 -31q36 0 74 12v326h211v-500q-40 -72 -47 -87q-12 -25 2 -31.5t46 -1.5z" />
    <glyph glyph-name="Wcircumflex" unicode="&#x174;" horiz-adv-x="1003" 
d="M714 779l-48 -69l-159 93h-8l-162 -93l-50 77l140 133h152zM983 690l-86 -632q-4 -26 -25 -42t-49 -16h-184q-28 0 -49.5 16t-24.5 42l-47 381q-4 31 -8 101h-17q-4 -70 -8 -102l-46 -380q-3 -26 -24.5 -42t-49.5 -16h-185q-28 0 -49 16t-25 42l-86 632h214l35 -423
q4 -68 4 -115h16q14 98 16 116l46 358q3 28 23.5 46t49.5 18h155q29 0 49 -17.5t24 -46.5l47 -360q3 -30 15 -114h16q0 28 5 113l34 425h214z" />
    <glyph glyph-name="wcircumflex" unicode="&#x175;" horiz-adv-x="876" 
d="M652 591l-48 -69l-159 93h-8l-162 -93l-50 77l140 133h152zM868 500l-102 -447q-5 -24 -23.5 -38.5t-44.5 -14.5h-147q-28 0 -48.5 17.5t-23.5 44.5l-29 227q0 4 -6 88h-13q-4 -54 -7 -88l-29 -227q-3 -27 -23.5 -44.5t-48.5 -17.5h-145q-26 0 -44.5 14.5t-23.5 38.5
l-102 447h208l36 -281q6 -62 8 -89h12q1 13 2.5 28t3.5 33t3 28l28 220q3 27 23 44t48 17h115q28 0 48 -17t23 -45l27 -219q1 -10 5 -41t5 -48h12q9 86 9 89l35 281h209z" />
    <glyph glyph-name="Ycircumflex" unicode="&#x176;" horiz-adv-x="654" 
d="M162 710l-50 77l140 133h152l135 -141l-48 -69l-159 93h-8zM436 215v-215h-217v213l-229 477h223l87 -217q9 -22 21 -97h13q12 73 21 98l86 216h223z" />
    <glyph glyph-name="ycircumflex" unicode="&#x177;" horiz-adv-x="602" 
d="M140 522l-50 77l140 133h152l135 -141l-48 -69l-159 93h-8zM604 500l-159 -486q-9 -30 -22 -57t-33.5 -56.5t-46 -50t-60.5 -37t-77 -18t-94 7.5l-14 113q59 12 93 31t54 53h-34q-51 0 -66 49l-148 451h223l59 -276q4 -27 13 -94h9q7 24 21 94l59 276h223z" />
    <glyph glyph-name="Ydieresis" unicode="&#x178;" horiz-adv-x="654" 
d="M265 763h-69q-39 0 -39 39v63q0 39 39 39h69q39 0 39 -39v-63q0 -39 -39 -39zM454 763h-69q-39 0 -39 39v63q0 39 39 39h69q39 0 39 -39v-63q0 -39 -39 -39zM436 215v-215h-217v213l-229 477h223l87 -217q9 -22 21 -97h13q12 73 21 98l86 216h223z" />
    <glyph glyph-name="Zacute" unicode="&#x179;" horiz-adv-x="605" 
d="M264 720l-57 86l233 150l79 -133zM577 152v-152h-548v152l298 386h-288v152h528v-152l-298 -386h308z" />
    <glyph glyph-name="zacute" unicode="&#x17a;" horiz-adv-x="541" 
d="M231 532l-57 86l233 150l79 -133zM512 135v-135h-483v135l232 230h-226v135h471v-135l-232 -230h238z" />
    <glyph glyph-name="Zdotaccent" unicode="&#x17b;" horiz-adv-x="605" 
d="M341 752h-63q-59 0 -59 57v47q0 57 59 57h63q59 0 59 -57v-47q0 -57 -59 -57zM577 152v-152h-548v152l298 386h-288v152h528v-152l-298 -386h308z" />
    <glyph glyph-name="zdotaccent" unicode="&#x17c;" horiz-adv-x="541" 
d="M308 564h-63q-59 0 -59 57v47q0 57 59 57h63q59 0 59 -57v-47q0 -57 -59 -57zM512 135v-135h-483v135l232 230h-226v135h471v-135l-232 -230h238z" />
    <glyph glyph-name="Zcaron" unicode="&#x17d;" horiz-adv-x="605" 
d="M268 736l-164 131l50 77l151 -76h8l152 76l48 -77l-163 -131h-82zM577 152v-152h-548v152l298 386h-288v152h528v-152l-298 -386h308z" />
    <glyph glyph-name="zcaron" unicode="&#x17e;" horiz-adv-x="541" 
d="M235 548l-164 131l50 77l151 -76h8l152 76l48 -77l-163 -131h-82zM512 135v-135h-483v135l232 230h-226v135h471v-135l-232 -230h238z" />
    <glyph glyph-name="florin" unicode="&#x192;" horiz-adv-x="513" 
d="M471 564h-61q-23 0 -33 -11.5t-12 -40.5l-9 -102h94l-10 -126h-95l-26 -301q-16 -163 -192 -163q-97 0 -154 14l31 126h61q23 0 33 11.5t12 40.5l24 272h-91l9 121l93 5l11 131q16 163 192 163q97 0 154 -14z" />
    <glyph glyph-name="Scommaaccent" unicode="&#x218;" horiz-adv-x="610" 
d="M314 704q151 0 251 -35l-13 -139q-120 2 -243 2q-38 0 -51 -5t-13 -21q0 -14 12.5 -23.5t47.5 -23.5l125 -52q85 -37 120 -85t35 -125q0 -117 -61 -164t-221 -47q-135 0 -267 34l13 152q198 -5 251 -5q41 0 54.5 5t13.5 19t-9.5 23t-37.5 19l-137 60q-84 37 -119 84.5
t-35 123.5q0 116 63 159.5t221 43.5zM255 -48h38q36 0 50 -11.5t15 -42.5v-48q0 -53 -14.5 -87.5t-46.5 -71.5l-71 19q16 39 18 103q-54 0 -56 48l3 37q1 31 14.5 42.5t49.5 11.5z" />
    <glyph glyph-name="scommaaccent" unicode="&#x219;" horiz-adv-x="553" 
d="M256 514q149 0 256 -22l-13 -122h-197q-54 0 -64.5 -1.5t-10.5 -10.5q0 -8 18 -13l16 -4q15 -4 25 -7l115 -29q69 -19 100.5 -53.5t31.5 -97.5q0 -94 -54.5 -129.5t-187.5 -35.5q-138 0 -260 21l13 122h178q74 0 91 2t17 13q0 2 -0.5 3.5t-2 3t-3 2.5t-4.5 2.5t-6.5 2
t-9 2.5t-10.5 3t-13 3.5t-16 4.5l-110 30q-77 22 -104 61t-27 103q0 72 53 109t179 37zM246 -38h38q36 0 50 -11.5t15 -42.5v-48q0 -53 -14.5 -87.5t-46.5 -71.5l-71 19q16 39 18 103q-54 0 -56 48l3 37q1 31 14.5 42.5t49.5 11.5z" />
    <glyph glyph-name="uni021A" unicode="&#x21a;" horiz-adv-x="623" 
d="M613 528h-193v-528h-217v528h-193v162h603v-162zM286 -48h38q36 0 50 -11.5t15 -42.5v-48q0 -53 -14.5 -87.5t-46.5 -71.5l-71 19q16 39 18 103q-54 0 -56 48l3 37q1 31 14.5 42.5t49.5 11.5z" />
    <glyph glyph-name="uni021B" unicode="&#x21b;" horiz-adv-x="438" 
d="M305 374v-192q0 -19 10 -27.5t33 -8.5h53l23 -134q-62 -26 -170 -26q-73 0 -116 37t-43 103v248h-85v121l84 4v132h211v-131h121v-126h-121zM221 -48h38q36 0 50 -11.5t15 -42.5v-48q0 -53 -14.5 -87.5t-46.5 -71.5l-71 19q16 39 18 103q-54 0 -56 48l3 37
q1 31 14.5 42.5t49.5 11.5z" />
    <glyph glyph-name="circumflex" unicode="&#x2c6;" horiz-adv-x="477" 
d="M451 594l-48 -69l-159 93h-8l-162 -93l-50 77l140 133h152z" />
    <glyph glyph-name="caron" unicode="&#x2c7;" horiz-adv-x="477" 
d="M444 677l-163 -131h-82l-164 131l50 77l151 -76h8l152 76z" />
    <glyph glyph-name="breve" unicode="&#x2d8;" horiz-adv-x="411" 
d="M287 719l97 -13q12 -69 -38 -120.5t-140 -51.5t-140.5 51.5t-38.5 120.5l97 13q0 -32 18.5 -45.5t63.5 -13.5q44 0 62.5 13.5t18.5 45.5z" />
    <glyph glyph-name="dotaccent" unicode="&#x2d9;" horiz-adv-x="251" 
d="M94 724h63q59 0 59 -57v-47q0 -57 -59 -57h-63q-59 0 -59 57v47q0 57 59 57z" />
    <glyph glyph-name="ring" unicode="&#x2da;" horiz-adv-x="318" 
d="M159 780q53 0 91 -36.5t38 -88.5t-38 -88.5t-91 -36.5t-91 36.5t-38 88.5t38 88.5t91 36.5zM159 700q-18 0 -31 -13.5t-13 -31.5q0 -19 13 -32t31 -13t31 13t13 32q0 18 -13 31.5t-31 13.5z" />
    <glyph glyph-name="ogonek" unicode="&#x2db;" horiz-adv-x="250" 
d="M139 2l80 -2q-40 -72 -47 -87q-12 -25 2 -31.5t46 -1.5l12 -72q-81 -30 -128.5 -21t-65 39.5t-4.5 68.5q18 56 105 107z" />
    <glyph glyph-name="tilde" unicode="&#x2dc;" horiz-adv-x="460" 
d="M130 724q40 -3 98 -21.5t71 -21.5q21 -4 25 3.5t4 34.5h87q15 -81 -10.5 -126.5t-74.5 -42.5q-39 3 -98 22t-72 21q-20 3 -24 -3t-4 -29v-6h-87q-15 83 12.5 127.5t72.5 41.5z" />
    <glyph glyph-name="hungarumlaut" unicode="&#x2dd;" horiz-adv-x="547" 
d="M292 672l-169 -176l-83 67l123 193zM507 672l-170 -176l-82 66l123 194z" />
    <glyph glyph-name="Delta" unicode="&#x394;" horiz-adv-x="704" 
d="M687 68v-68h-670v68l228 622h214zM352 484q-20 -98 -21 -101l-73 -231h188l-74 231q-6 23 -20 101z" />
    <glyph glyph-name="Omega" unicode="&#x3a9;" horiz-adv-x="720" 
d="M361 704q171 0 244 -72.5t73 -230.5q0 -90 -30 -145.5t-107 -113.5q41 20 75 20h68v-162h-305v152q42 42 57.5 89t15.5 131q0 107 -17.5 139.5t-74.5 32.5t-74.5 -33t-17.5 -141q0 -88 15 -130t58 -88v-152h-305v162h68q39 0 75 -20q-76 63 -106.5 119t-30.5 144
q0 155 74 227t245 72z" />
    <glyph glyph-name="mu" unicode="&#x3bc;" horiz-adv-x="653" 
d="M591 500v-500h-164l-19 73q-83 -79 -177 -86q9 -30 9 -60v-107h-181v680h210v-307q0 -31 39 -31q35 0 73 12v326h210z" />
    <glyph glyph-name="pi" unicode="&#x3c0;" horiz-adv-x="655" 
d="M642 365h-64v-365h-210v365h-81v-365h-210v365h-64v136h629v-136z" />
    <glyph glyph-name="uni0401" unicode="&#x401;" horiz-adv-x="598" 
d="M263 763h-69q-39 0 -39 39v63q0 39 39 39h69q39 0 39 -39v-63q0 -39 -39 -39zM452 763h-69q-39 0 -39 39v63q0 39 39 39h69q39 0 39 -39v-63q0 -39 -39 -39zM560 162l10 -153q-100 -13 -359 -13q-71 0 -116.5 43.5t-45.5 113.5v384q0 70 45.5 113.5t116.5 43.5
q259 0 359 -13l-10 -153h-253q-19 0 -30 -10t-11 -26v-67h258v-144h-258v-83q0 -16 11 -26t30 -10h253z" />
    <glyph glyph-name="uni0402" unicode="&#x402;" horiz-adv-x="777" 
d="M584 454q97 0 137.5 -46.5t40.5 -167.5q0 -73 -21 -125t-60 -79.5t-86.5 -39.5t-109.5 -12l-20 150q46 12 62.5 33.5t16.5 63.5q0 37 -8.5 46.5t-38.5 9.5q-42 0 -80 -11v-276h-217v528h-190v162h597v-162h-190v-113q87 39 167 39z" />
    <glyph glyph-name="uni0403" unicode="&#x403;" horiz-adv-x="554" 
d="M514 823l-255 -103l-57 86l233 150zM215 694q241 0 335 -14l-10 -152h-227q-19 0 -30.5 -10t-11.5 -26v-492h-217v537q0 70 45 113.5t116 43.5z" />
    <glyph glyph-name="uni0404" unicode="&#x404;" horiz-adv-x="607" 
d="M568 179l16 -158q-94 -33 -235 -33q-174 0 -245.5 80t-71.5 277t71.5 277t245.5 80q132 0 230 -27l-16 -158q-142 2 -214 2q-46 0 -66 -21t-25 -78h269v-134h-270q4 -67 23.5 -91t68.5 -24q145 0 219 8z" />
    <glyph glyph-name="uni0405" unicode="&#x405;" horiz-adv-x="610" 
d="M314 704q151 0 251 -35l-13 -139q-120 2 -243 2q-38 0 -51 -5t-13 -21q0 -14 12.5 -23.5t47.5 -23.5l125 -52q85 -37 120 -85t35 -125q0 -117 -61 -164t-221 -47q-135 0 -267 34l13 152q198 -5 251 -5q41 0 54.5 5t13.5 19t-9.5 23t-37.5 19l-137 60q-84 37 -119 84.5
t-35 123.5q0 116 63 159.5t221 43.5z" />
    <glyph glyph-name="uni0406" unicode="&#x406;" horiz-adv-x="329" 
d="M272 0h-215v690h215v-690z" />
    <glyph glyph-name="uni0407" unicode="&#x407;" horiz-adv-x="329" 
d="M34 904h69q39 0 39 -39v-63q0 -39 -39 -39h-69q-39 0 -39 39v63q0 39 39 39zM223 904h69q39 0 39 -39v-63q0 -39 -39 -39h-69q-39 0 -39 39v63q0 39 39 39zM272 0h-215v690h215v-690z" />
    <glyph glyph-name="uni0408" unicode="&#x408;" horiz-adv-x="408" 
d="M354 690v-563q0 -67 -49 -104t-134 -37q-39 0 -88.5 7t-72.5 19l23 136h47q59 0 59 35v507h215z" />
    <glyph glyph-name="uni0409" unicode="&#x409;" horiz-adv-x="983" 
d="M645 453h44q156 0 215 -48.5t59 -180.5t-54 -182t-182 -50q-187 0 -290 8h-6v548h-35q-42 0 -47 -46q-22 -252 -47 -338q-33 -113 -100 -151t-177 -18l-15 148q26 5 40.5 10.5t30 22t25.5 46.5q21 61 39 305q12 163 170 163h330v-237zM645 142h44q35 0 45.5 17t10.5 72
t-10.5 73t-45.5 18h-44v-180z" />
    <glyph glyph-name="uni040A" unicode="&#x40a;" horiz-adv-x="974" 
d="M638 436h54q149 0 206 -45.5t57 -167.5q0 -131 -52 -181t-172 -50q-198 0 -301 8h-6v295h-149v-295h-218v690h218v-253h149v253h214v-254zM638 142h54q28 0 36.5 16t8.5 67q0 49 -8.5 64.5t-36.5 15.5h-54v-163z" />
    <glyph glyph-name="uni040B" unicode="&#x40b;" horiz-adv-x="810" 
d="M589 464q100 0 146.5 -43.5t46.5 -136.5v-284h-218v237q0 31 -10.5 40.5t-45.5 9.5h-91v-287h-217v528h-190v162h597v-162h-190v-95q98 31 172 31z" />
    <glyph glyph-name="uni040C" unicode="&#x40c;" horiz-adv-x="681" 
d="M310 720l-57 86l233 150l79 -133zM441 363v-6q83 -12 115 -42q36 -33 70 -143q10 -32 50 -172h-226q-53 197 -68 232q-20 44 -51 52q-15 4 -42 4h-23q8 -35 8 -63v-225h-217v690h217v-174q0 -47 -10 -88h22q62 0 84 39t59 194q5 19 7 29h220q-58 -194 -62 -206
q-26 -72 -65 -95q-28 -18 -88 -26z" />
    <glyph glyph-name="uni040D" unicode="&#x40d;" horiz-adv-x="734" 
d="M476 806l-57 -86l-255 103l79 133zM677 0h-206v317q0 41 11 107h-7q-18 -61 -42 -106l-169 -318h-207v690h206v-306q0 -42 -11 -112h7q19 60 44 106l168 312h206v-690z" />
    <glyph glyph-name="uni040E" unicode="&#x40e;" horiz-adv-x="623" 
d="M316 737q-90 0 -140.5 51.5t-38.5 120.5l97 13q0 -32 18.5 -45.5t63.5 -13.5q44 0 62.5 13.5t18.5 45.5l97 -13q12 -69 -38 -120.5t-140 -51.5zM630 690l-150 -503q-30 -103 -70 -148t-120 -53q-76 -8 -213 14l23 148q79 -4 116.5 0t45.5 28l4 16h-41q-45 0 -70 24
t-38 70l-124 404h222l78 -335q2 -11 16 -11h9l90 346h222z" />
    <glyph glyph-name="uni040F" unicode="&#x40f;" horiz-adv-x="721" 
d="M664 690v-690h-218l-8 -151h-148l-8 151h-225v690h217v-548h173v548h217z" />
    <glyph glyph-name="uni0410" unicode="&#x410;" horiz-adv-x="683" 
d="M436 149h-189l-35 -149h-221l179 634q7 25 27 40.5t46 15.5h197q26 0 46 -15.5t27 -40.5l179 -634h-221zM401 301l-34 148q-9 47 -12 79h-27q-6 -47 -12 -79l-34 -148h119z" />
    <glyph glyph-name="uni0411" unicode="&#x411;" horiz-adv-x="648" 
d="M273 423h69q162 0 224 -45t62 -168t-60 -170.5t-197 -47.5q-202 0 -309 8h-6v690q117 8 257 8q128 0 266 -8l-16 -155h-290v-112zM273 142h69q43 0 56 14.5t13 60.5t-13 60.5t-56 14.5h-69v-150z" />
    <glyph glyph-name="uni0412" unicode="&#x412;" horiz-adv-x="664" 
d="M488 361v-6q80 -7 114.5 -52t34.5 -131q0 -103 -57.5 -141.5t-192.5 -38.5q-219 0 -331 8v690q102 8 298 8q147 0 203.5 -37.5t56.5 -142.5q0 -75 -29.5 -113t-96.5 -44zM407 487q0 40 -12.5 52t-51.5 12h-75v-130h77q38 0 50 13t12 53zM268 139h80q45 0 59 15t14 62
q0 48 -14 63t-60 15h-79v-155z" />
    <glyph glyph-name="uni0413" unicode="&#x413;" horiz-adv-x="554" 
d="M215 694q241 0 335 -14l-10 -152h-227q-19 0 -30.5 -10t-11.5 -26v-492h-217v537q0 70 45 113.5t116 43.5z" />
    <glyph glyph-name="uni0414" unicode="&#x414;" horiz-adv-x="783" 
d="M771 142v-293h-157l-15 151h-416l-15 -151h-157v293h76q61 173 84 395q7 67 53.5 110t117.5 43h334v-548h95zM459 142v406h-41q-42 0 -46 -48q-14 -136 -32 -215t-49 -143h168z" />
    <glyph glyph-name="uni0415" unicode="&#x415;" horiz-adv-x="598" 
d="M560 162l10 -153q-100 -13 -359 -13q-71 0 -116.5 43.5t-45.5 113.5v384q0 70 45.5 113.5t116.5 43.5q259 0 359 -13l-10 -153h-253q-19 0 -30 -10t-11 -26v-67h258v-144h-258v-83q0 -16 11 -26t30 -10h253z" />
    <glyph glyph-name="uni0416" unicode="&#x416;" horiz-adv-x="968" 
d="M735 363v-6q36 -6 57.5 -11.5t41.5 -21t31.5 -32.5t26 -55t25.5 -77.5l31 -111.5q8 -31 13 -48h-227q-63 217 -73 240q-16 40 -39 46q-7 2 -20 2h-23q8 -35 8 -63v-225h-207v225q0 23 9 63h-24q-25 0 -37.5 -14t-26.5 -52.5t-43 -138.5l-24 -83h-227q57 209 75 251
q27 64 71 85q26 13 80 21v6q-24 3 -41 7t-32 12.5t-24.5 14.5t-20.5 24t-16.5 29t-15.5 42t-15.5 51l-18.5 67l-22 80h220q53 -190 62 -212q17 -43 43 -49q6 -1 14 -1h25q-10 41 -10 88v174h206v-174q0 -44 -9 -88h22q34 0 50 31.5t50 155.5l21 75h220l-22 -80l-18.5 -67
t-15.5 -51t-15.5 -42t-16.5 -29t-20.5 -24t-24.5 -14.5t-32 -12.5t-41 -7z" />
    <glyph glyph-name="uni0417" unicode="&#x417;" horiz-adv-x="586" 
d="M283 698q142 0 196.5 -37.5t54.5 -142.5q0 -76 -28 -113.5t-92 -43.5v-6q76 -7 109 -52t33 -131q0 -103 -55.5 -141.5t-185.5 -38.5q-178 0 -295 38l16 141q144 -23 236 -23q37 0 49.5 13.5t12.5 54.5q0 43 -12.5 56.5t-50.5 14.5l-152 3v135l150 3q31 1 41 12.5t10 46.5
q0 33 -10.5 44t-41.5 11q-90 0 -221 -15l-16 148q99 23 252 23z" />
    <glyph glyph-name="uni0418" unicode="&#x418;" horiz-adv-x="734" 
d="M677 0h-206v317q0 41 11 107h-7q-18 -61 -42 -106l-169 -318h-207v690h206v-306q0 -42 -11 -112h7q19 60 44 106l168 312h206v-690z" />
    <glyph glyph-name="uni0419" unicode="&#x419;" horiz-adv-x="734" 
d="M427 910h127q13 -67 -38 -120t-140 -53t-140 53t-39 120h127q-6 -44 7 -60.5t45 -16.5q31 0 44 16.5t7 60.5zM677 0h-206v317q0 41 11 107h-7q-18 -61 -42 -106l-169 -318h-207v690h206v-306q0 -42 -11 -112h7q19 60 44 106l168 312h206v-690z" />
    <glyph glyph-name="uni041A" unicode="&#x41a;" horiz-adv-x="681" 
d="M441 363v-6q83 -12 115 -42q36 -33 70 -143q10 -32 50 -172h-226q-53 197 -68 232q-20 44 -51 52q-15 4 -42 4h-23q8 -35 8 -63v-225h-217v690h217v-174q0 -47 -10 -88h22q62 0 84 39t59 194q5 19 7 29h220q-58 -194 -62 -206q-26 -72 -65 -95q-28 -18 -88 -26z" />
    <glyph glyph-name="uni041B" unicode="&#x41b;" horiz-adv-x="710" 
d="M653 690v-690h-217v548h-42q-50 0 -53 -46q-18 -239 -48 -338q-33 -114 -104 -151t-178 -18l-15 168q28 3 43.5 7t31 16.5t23.5 35.5q27 80 42 295q11 173 182 173h335z" />
    <glyph glyph-name="uni041C" unicode="&#x41c;" horiz-adv-x="960" 
d="M625 690h191q73 0 76 -75l24 -615h-195l-21 528h-15l-68 -352q-11 -66 -82 -66h-112q-71 0 -83 66l-69 352h-15l-17 -528h-195l24 615q3 75 76 75h187q70 0 82 -67l50 -274q5 -32 11 -103h9q0 3 4.5 43t7.5 60l47 274q12 67 83 67z" />
    <glyph glyph-name="uni041D" unicode="&#x41d;" horiz-adv-x="722" 
d="M665 690v-690h-217v290h-174v-290h-217v690h217v-248h174v248h217z" />
    <glyph glyph-name="uni041E" unicode="&#x41e;" horiz-adv-x="707" 
d="M353 704q123 0 190.5 -30.5t99.5 -108t32 -220.5t-32 -220.5t-99.5 -108t-190.5 -30.5q-122 0 -189.5 30.5t-99.5 108t-32 220.5t32 220.5t99.5 108t189.5 30.5zM353 543q-56 0 -74.5 -39.5t-18.5 -158.5t18.5 -158.5t74.5 -39.5t74.5 39.5t18.5 158.5t-18.5 158.5
t-74.5 39.5z" />
    <glyph glyph-name="uni041F" unicode="&#x41f;" horiz-adv-x="718" 
d="M661 690v-690h-217v548h-170v-548h-217v690h604z" />
    <glyph glyph-name="uni0420" unicode="&#x420;" horiz-adv-x="650" 
d="M348 700q165 0 225.5 -49t60.5 -186q0 -135 -56 -184t-200 -49q-54 0 -105 6v-238h-217v690q102 10 292 10zM273 385h70q44 0 59 16t15 64q0 49 -15 65.5t-59 16.5h-70v-162z" />
    <glyph glyph-name="uni0421" unicode="&#x421;" horiz-adv-x="605" 
d="M345 702q129 0 227 -27l-16 -158q-140 2 -211 2q-51 0 -68 -34.5t-17 -139.5t17 -139.5t68 -34.5q149 0 226 8l16 -158q-96 -33 -242 -33q-172 0 -242.5 80t-70.5 277t70.5 277t242.5 80z" />
    <glyph glyph-name="uni0422" unicode="&#x422;" horiz-adv-x="623" 
d="M613 528h-193v-528h-217v528h-193v162h603v-162z" />
    <glyph glyph-name="uni0423" unicode="&#x423;" horiz-adv-x="623" 
d="M630 690l-150 -503q-30 -103 -70 -148t-120 -53q-76 -8 -213 14l23 148q79 -4 116.5 0t45.5 28l4 16h-41q-45 0 -70 24t-38 70l-124 404h222l78 -335q2 -11 16 -11h9l90 346h222z" />
    <glyph glyph-name="uni0424" unicode="&#x424;" horiz-adv-x="877" 
d="M861 355q0 -147 -70 -210.5t-244 -75.5v-83h-217v83q-174 11 -244 75t-70 211q0 153 70 218.5t244 77.5v83h217v-83q174 -12 244 -77.5t70 -218.5zM233 355q0 -72 20.5 -99.5t86.5 -34.5v278q-66 -7 -86.5 -36.5t-20.5 -107.5zM537 499v-278q66 7 86.5 34.5t20.5 99.5
q0 77 -20.5 107t-86.5 37z" />
    <glyph glyph-name="uni0425" unicode="&#x425;" horiz-adv-x="677" 
d="M467 0l-128 290l-129 -290h-215l171 352l-157 338h214l116 -273l115 273h214l-157 -338l171 -352h-215z" />
    <glyph glyph-name="uni0426" unicode="&#x426;" horiz-adv-x="734" 
d="M721 142v-293h-157l-15 151h-492v690h217v-548h154v548h217v-548h76z" />
    <glyph glyph-name="uni0427" unicode="&#x427;" horiz-adv-x="694" 
d="M637 690v-690h-217v262q-100 -46 -189 -46q-101 0 -148.5 43.5t-47.5 136.5v294h217v-247q-2 -30 10 -40t49 -10q61 0 109 14v283h217z" />
    <glyph glyph-name="uni0428" unicode="&#x428;" horiz-adv-x="1019" 
d="M962 690v-690h-905v690h212v-548h135v548h211v-548h135v548h212z" />
    <glyph glyph-name="uni0429" unicode="&#x429;" horiz-adv-x="1048" 
d="M1034 142v-293h-157l-15 151h-805v690h212v-548h133v548h212v-548h133v548h212v-548h75z" />
    <glyph glyph-name="uni042A" unicode="&#x42a;" horiz-adv-x="786" 
d="M436 453h55q156 0 215.5 -48.5t59.5 -181.5q0 -131 -54.5 -181t-181.5 -50q-202 0 -306 8h-6v528h-209v162h427v-237zM436 142h55q36 0 46.5 17t10.5 72q0 56 -10.5 73.5t-46.5 17.5h-55v-180z" />
    <glyph glyph-name="uni042B" unicode="&#x42b;" horiz-adv-x="955" 
d="M275 453h56q157 0 216.5 -48.5t59.5 -181.5q0 -131 -55 -181t-182 -50q-203 0 -307 8h-6v690h218v-237zM898 690v-690h-218v690h218zM275 142h56q36 0 47 17t11 72q0 56 -11 73.5t-47 17.5h-56v-180z" />
    <glyph glyph-name="uni042C" unicode="&#x42c;" horiz-adv-x="634" 
d="M274 453h61q159 0 219 -48.5t60 -181.5q0 -131 -55.5 -181t-184.5 -50q-206 0 -311 8h-6v690h217v-237zM274 142h61q39 0 50.5 17t11.5 72t-11.5 73t-50.5 18h-61v-180z" />
    <glyph glyph-name="uni042D" unicode="&#x42d;" horiz-adv-x="607" 
d="M258 702q174 0 245.5 -80t71.5 -277t-71.5 -277t-245.5 -80q-142 0 -235 33l16 158q74 -8 219 -8q49 0 68.5 24t23.5 91h-270v134h269q-5 57 -25 78t-66 21q-72 0 -214 -2l-16 158q98 27 230 27z" />
    <glyph glyph-name="uni042E" unicode="&#x42e;" horiz-adv-x="1021" 
d="M670 704q122 0 188.5 -30.5t98.5 -108t32 -220.5t-32 -220.5t-98.5 -108t-188.5 -30.5q-156 0 -222 63.5t-74 235.5h-99v-285h-218v690h218v-263h101q11 159 77 218t217 59zM670 147q54 0 71.5 39t17.5 159t-17.5 159t-71.5 39q-52 0 -68.5 -38.5t-16.5 -159.5
t16.5 -159.5t68.5 -38.5z" />
    <glyph glyph-name="uni042F" unicode="&#x42f;" horiz-adv-x="664" 
d="M324 700q185 0 284 -10v-690h-217v252h-54q-27 0 -38 -9.5t-16 -37.5l-43 -205h-227l52 212q18 95 110 108v6q-134 14 -134 164q0 118 65.5 164t217.5 46zM391 405v142h-62q-43 0 -56.5 -14t-13.5 -57t13.5 -57t56.5 -14h62z" />
    <glyph glyph-name="uni0430" unicode="&#x430;" horiz-adv-x="594" 
d="M334 514q111 0 165 -46t54 -158v-310h-167l-19 70q-66 -84 -173 -84q-74 0 -123 37t-49 105v50q0 60 44 94.5t121 34.5h156v4q-1 27 -14 38.5t-45 11.5q-110 0 -216 -5l-19 133q136 25 285 25zM226 175v-16q0 -31 42 -31q33 0 75 25v53h-79q-38 0 -38 -31z" />
    <glyph glyph-name="uni0431" unicode="&#x431;" horiz-adv-x="615" 
d="M531 741l28 -159q-57 -30 -148.5 -31.5t-119.5 -9.5q-59 -16 -78 -41q-18 -22 -26 -76h4q62 58 171 58q125 0 175.5 -54t50.5 -181q0 -135 -61 -197t-205 -62q-59 0 -104 9t-75 23t-51 40t-32 49t-17 62.5t-7 68.5t-1 78q0 75 7.5 129.5t26.5 104.5t56.5 84.5t93.5 54.5
q53 19 156.5 24t155.5 26zM310 362q-38 0 -49 -21t-11 -92q0 -74 11.5 -96.5t47.5 -22.5t47.5 22.5t11.5 96.5q0 71 -11 92t-47 21z" />
    <glyph glyph-name="uni0432" unicode="&#x432;" horiz-adv-x="593" 
d="M441 260v-5q70 -4 100.5 -37t30.5 -94q0 -76 -51 -104.5t-169 -28.5q-198 0 -306 6v503q97 6 276 6q130 0 180 -27.5t50 -105.5q0 -54 -26 -81.5t-85 -31.5zM358 343q0 21 -9.5 28t-36.5 7h-69v-70h71q26 0 35 7.5t9 27.5zM243 122h72q28 0 38.5 9t10.5 35
q0 24 -10.5 32.5t-39.5 8.5h-71v-85z" />
    <glyph glyph-name="uni0433" unicode="&#x433;" horiz-adv-x="493" 
d="M189 508q218 0 299 -17l-10 -146h-193q-19 0 -26.5 -6.5t-7.5 -23.5v-315h-208v376q0 69 35.5 100.5t110.5 31.5z" />
    <glyph glyph-name="uni0434" unicode="&#x434;" horiz-adv-x="673" 
d="M661 136v-272h-139l-14 136h-345l-14 -136h-139v272h61q33 95 58 242q20 122 147 122h299v-364h86zM378 136v236h-28q-34 0 -40 -35q-21 -123 -53 -201h121z" />
    <glyph glyph-name="uni0435" unicode="&#x435;" 
d="M333 149q98 0 203 11l19 -126q-91 -46 -245 -46q-153 0 -219 63.5t-66 194.5q0 147 64 207.5t220 60.5q138 0 198.5 -44t61.5 -134q1 -71 -42.5 -101.5t-151.5 -30.5h-125q6 -31 24.5 -43t58.5 -12zM315 379q-40 1 -53.5 -13t-15.5 -63h70q34 0 43 6.5t9 31.5
q0 23 -11.5 30.5t-41.5 7.5z" />
    <glyph glyph-name="uni0436" unicode="&#x436;" horiz-adv-x="856" 
d="M656 264v-6q73 -11 90 -21q31 -16 54 -79q13 -35 50 -158h-212q-43 133 -55 162.5t-28 31.5h-40q5 -25 5 -40v-154h-184v154q0 18 6 40h-40q-15 -2 -27.5 -33t-55.5 -161h-212q49 167 68 200q20 36 58 46q13 4 68 12v6h-1h-1q-70 9 -88 23q-25 17 -48 85l-22 71
q-11 36 -18 57h206q44 -143 56 -161q14 -15 38 -15h21q-7 31 -7 65v111h183v-111q0 -27 -7 -65h19q27 0 36 11q13 16 49 133l10 32h206q-47 -153 -57 -173q-17 -39 -48 -50q-17 -6 -72 -13z" />
    <glyph glyph-name="uni0437" unicode="&#x437;" horiz-adv-x="535" 
d="M227 514q152 0 209 -25.5t57 -112.5q0 -59 -25.5 -85t-84.5 -31v-5q69 -4 99.5 -36t30.5 -94q0 -37 -11 -62.5t-29 -40.5t-51.5 -23t-68 -10.5t-87.5 -2.5q-144 0 -247 24l13 134q116 -12 219 -12q31 0 39.5 5t8.5 27q0 17 -8 20.5t-41 5.5l-168 4v117l167 4q18 1 25 2.5
t10.5 6t3.5 15.5q0 18 -8 22t-39 4q-96 0 -199 -12l-13 134q90 27 198 27z" />
    <glyph glyph-name="uni0438" unicode="&#x438;" horiz-adv-x="632" 
d="M586 0l-187 -2v196q0 38 8 94h-5q-15 -49 -42 -90l-128 -198h-186v500h186v-209q0 -31 -8 -81h5q8 28 39 78l132 212h186v-500z" />
    <glyph glyph-name="uni0439" unicode="&#x439;" horiz-adv-x="632" 
d="M368 722h127q13 -67 -38 -120t-140 -53t-140 53t-39 120h127q-6 -44 7 -60.5t45 -16.5q31 0 44 16.5t7 60.5zM586 0l-187 -2v196q0 38 8 94h-5q-15 -49 -42 -90l-128 -198h-186v500h186v-209q0 -31 -8 -81h5q8 28 39 78l132 212h186v-500z" />
    <glyph glyph-name="uni043A" unicode="&#x43a;" horiz-adv-x="594" 
d="M401 263v-6q71 -11 86 -18q29 -15 51 -73q12 -34 49 -166h-218q-35 130 -45 159t-28 32h-46q5 -23 5 -39v-152h-209v500h209v-109q0 -34 -7 -66h18q35 0 46 13q13 16 36 116q9 40 10 46h212q-47 -159 -51 -171q-16 -40 -44 -51q-15 -6 -74 -15z" />
    <glyph glyph-name="uni043B" unicode="&#x43b;" horiz-adv-x="622" 
d="M576 500v-500h-209v364h-26q-39 0 -42 -35q-10 -90 -25 -197q-9 -66 -47.5 -102.5t-90.5 -40.5t-112 6l-21 153q7 1 22 2t22 2.5t16.5 5t14.5 11t8 19.5q12 48 22 182q9 130 137 130h331z" />
    <glyph glyph-name="uni043C" unicode="&#x43c;" horiz-adv-x="822" 
d="M525 500h176q69 0 71 -71l11 -429h-190l-11 348h-11l-41 -211q-10 -64 -78 -64h-83q-69 0 -79 64l-42 211h-11l-7 -348h-190l10 429q2 71 72 71h172q68 0 77 -65l29 -156q2 -10 7 -76h6q1 8 2.5 34.5t4.5 41.5l27 156q9 65 78 65z" />
    <glyph glyph-name="uni043D" unicode="&#x43d;" horiz-adv-x="628" 
d="M582 500v-500h-206v195h-123v-195h-207v500h207v-170h123v170h206z" />
    <glyph glyph-name="uni043E" unicode="&#x43e;" horiz-adv-x="611" 
d="M306 514q153 0 216 -59.5t63 -205.5q0 -144 -63 -202.5t-216 -58.5q-154 0 -217 58.5t-63 202.5q0 146 63 205.5t217 59.5zM306 372q-37 0 -48.5 -23t-11.5 -100q0 -74 11.5 -96.5t48.5 -22.5q36 0 47.5 22.5t11.5 96.5q0 77 -11.5 100t-47.5 23z" />
    <glyph glyph-name="uni043F" unicode="&#x43f;" horiz-adv-x="621" 
d="M575 501v-501h-204v365h-121v-365h-204v501h529z" />
    <glyph glyph-name="uni0440" unicode="&#x440;" horiz-adv-x="623" 
d="M415 512q95 0 137.5 -68t42.5 -200q0 -148 -45 -203t-144 -55q-97 0 -153 42q4 -71 3 -109v-99h-210v680h168l17 -68q24 34 75 57t109 23zM322 123q33 0 45 21.5t12 97.5t-11.5 97.5t-42.5 21.5q-33 0 -69 -18v-207q33 -13 66 -13z" />
    <glyph glyph-name="uni0441" unicode="&#x441;" horiz-adv-x="528" 
d="M294 514q132 0 209 -37l-21 -130h-152q-49 0 -66.5 -19.5t-17.5 -76.5q0 -58 17.5 -77.5t66.5 -19.5q98 0 161 7l19 -131q-80 -42 -218 -42q-147 0 -206.5 59t-59.5 204t60 204t208 59z" />
    <glyph glyph-name="uni0442" unicode="&#x442;" horiz-adv-x="537" 
d="M526 344h-153v-344h-209v344h-153v156h515v-156z" />
    <glyph glyph-name="uni0443" unicode="&#x443;" horiz-adv-x="602" 
d="M604 500l-159 -486q-30 -100 -77.5 -145t-121.5 -66q-91 -25 -206 0l16 133q101 -1 148 22q24 12 42 42h-35q-51 0 -66 49l-148 451h223l59 -276q4 -27 13 -94h9q8 27 21 94l59 276h223z" />
    <glyph glyph-name="uni0444" unicode="&#x444;" horiz-adv-x="780" 
d="M754 249q0 -127 -62.5 -186.5t-208.5 -71.5v-171h-187v171q-146 13 -208.5 72.5t-62.5 185.5q0 128 62.5 188.5t208.5 72.5v190h187v-189q146 -13 208.5 -73.5t62.5 -188.5zM473 377v-252q49 8 66 35t17 89q0 64 -17 91.5t-66 36.5zM223 249q0 -62 17 -89t66 -35v252
q-49 -9 -66 -36.5t-17 -91.5z" />
    <glyph glyph-name="uni0445" unicode="&#x445;" horiz-adv-x="606" 
d="M401 0l-98 188l-98 -188h-208l145 255l-134 245h207l88 -175l88 175h207l-134 -245l145 -255h-208z" />
    <glyph glyph-name="uni0446" unicode="&#x446;" horiz-adv-x="659" 
d="M646 136v-272h-139l-14 136h-447v500h207v-364h106v364h207v-364h80z" />
    <glyph glyph-name="uni0447" unicode="&#x447;" horiz-adv-x="605" 
d="M559 500v-500h-209v166q-72 -25 -147 -25q-89 0 -130.5 28.5t-41.5 90.5v240h209v-179q0 -30 35 -30q38 0 75 14v195h209z" />
    <glyph glyph-name="uni0448" unicode="&#x448;" horiz-adv-x="870" 
d="M824 500v-500h-778v500h202v-364h95v364h184v-364h95v364h202z" />
    <glyph glyph-name="uni0449" unicode="&#x449;" horiz-adv-x="914" 
d="M901 136v-272h-139l-14 136h-702v500h202v-364h94v364h184v-364h94v364h202v-364h79z" />
    <glyph glyph-name="uni044A" unicode="&#x44a;" horiz-adv-x="683" 
d="M375 343h34q148 0 203 -36t55 -138q0 -99 -51.5 -137t-169.5 -38q-173 0 -267 6h-6v350h-162v150h364v-157zM375 128h34q30 0 38.5 9t8.5 40q0 32 -8 41t-39 9h-34v-99z" />
    <glyph glyph-name="uni044B" unicode="&#x44b;" horiz-adv-x="842" 
d="M248 343h35q149 0 204 -36t55 -138q0 -99 -51.5 -137t-170.5 -38q-173 0 -268 6h-6v500h202v-157zM796 500v-500h-211v500h211zM248 128h35q31 0 39.5 9t8.5 40q0 32 -8.5 41t-39.5 9h-35v-99z" />
    <glyph glyph-name="uni044C" unicode="&#x44c;" horiz-adv-x="563" 
d="M247 343h39q150 0 205.5 -36t55.5 -138q0 -99 -52.5 -137t-172.5 -38q-175 0 -270 6h-6v500h201v-157zM247 128h39q32 0 41.5 9t9.5 40q0 32 -9.5 41t-41.5 9h-39v-99z" />
    <glyph glyph-name="uni044D" unicode="&#x44d;" horiz-adv-x="564" 
d="M241 514q164 0 230.5 -58.5t66.5 -207.5q0 -145 -66.5 -203.5t-230.5 -58.5q-130 0 -220 33l15 129q83 -4 205 -4q47 0 63.5 8.5t20.5 45.5h-251v110h249q-6 31 -23.5 40t-58.5 9h-200l-16 126q89 31 216 31z" />
    <glyph glyph-name="uni044E" unicode="&#x44e;" horiz-adv-x="870" 
d="M575 514q77 0 125 -11t81.5 -40.5t47.5 -81t14 -133.5q0 -79 -14 -129t-47.5 -79t-81.5 -40t-125 -11q-129 0 -184.5 41t-64.5 157h-70v-187h-210v500h210v-177h71q12 112 67 151.5t181 39.5zM572 144q35 0 44.5 18.5t9.5 88.5q0 71 -9.5 89.5t-44.5 18.5
q-38 0 -47 -18.5t-9 -89.5t9 -89t47 -18z" />
    <glyph glyph-name="uni044F" unicode="&#x44f;" horiz-adv-x="587" 
d="M279 514q191 0 262 -8v-506h-204v157h-44q-21 0 -28.5 -4t-9.5 -19l-29 -134h-214l37 160q15 45 96 51v5q-109 23 -109 133q0 101 47.5 133t195.5 32zM337 280v90h-54q-26 0 -34.5 -7t-8.5 -27q0 -35 8.5 -45.5t34.5 -10.5h54z" />
    <glyph glyph-name="uni0451" unicode="&#x451;" 
d="M250 575h-69q-39 0 -39 39v63q0 39 39 39h69q39 0 39 -39v-63q0 -39 -39 -39zM439 575h-69q-39 0 -39 39v63q0 39 39 39h69q39 0 39 -39v-63q0 -39 -39 -39zM333 149q98 0 203 11l19 -126q-91 -46 -245 -46q-153 0 -219 63.5t-66 194.5q0 147 64 207.5t220 60.5
q138 0 198.5 -44t61.5 -134q1 -71 -42.5 -101.5t-151.5 -30.5h-125q6 -31 24.5 -43t58.5 -12zM315 379q-40 1 -53.5 -13t-15.5 -63h70q34 0 43 6.5t9 31.5q0 23 -11.5 30.5t-41.5 7.5z" />
    <glyph glyph-name="uni0452" unicode="&#x452;" horiz-adv-x="628" 
d="M453 424q147 0 147 -140v-226q0 -80 -41.5 -149t-111.5 -99l-117 92q59 65 59 156v159q0 16 -8 23t-28 7q-39 0 -76 -12v-235h-211v467h-56v90h56v143h211v-143h166v-90h-166v-6q0 -58 -10 -110q91 73 186 73z" />
    <glyph glyph-name="uni0453" unicode="&#x453;" horiz-adv-x="493" 
d="M462 635l-255 -103l-57 86l233 150zM189 508q218 0 299 -17l-10 -146h-193q-19 0 -26.5 -6.5t-7.5 -23.5v-315h-208v376q0 69 35.5 100.5t110.5 31.5z" />
    <glyph glyph-name="uni0454" unicode="&#x454;" horiz-adv-x="564" 
d="M528 148l15 -129q-83 -33 -220 -33q-164 0 -230.5 58.5t-66.5 203.5q0 149 66.5 207.5t230.5 58.5q134 0 216 -31l-16 -126q-66 -1 -200 -1q-41 1 -58.5 -8t-23.5 -40h250v-110h-252q5 -36 22 -45t62 -9q122 0 205 4z" />
    <glyph glyph-name="uni0455" unicode="&#x455;" horiz-adv-x="553" 
d="M256 514q149 0 256 -22l-13 -122h-197q-54 0 -64.5 -1.5t-10.5 -10.5q0 -8 18 -13l16 -4q15 -4 25 -7l115 -29q69 -19 100.5 -53.5t31.5 -97.5q0 -94 -54.5 -129.5t-187.5 -35.5q-138 0 -260 21l13 122h178q74 0 91 2t17 13q0 2 -0.5 3.5t-2 3t-3 2.5t-4.5 2.5t-6.5 2
t-9 2.5t-10.5 3t-13 3.5t-16 4.5l-110 30q-77 22 -104 61t-27 103q0 72 53 109t179 37z" />
    <glyph glyph-name="uni0456" unicode="&#x456;" horiz-adv-x="309" 
d="M110 729h89q61 0 61 -62v-51q0 -62 -61 -62h-89q-61 0 -61 62v51q0 62 61 62zM259 0h-209v500h209v-500z" />
    <glyph glyph-name="uni0457" unicode="&#x457;" horiz-adv-x="311" 
d="M25 716h69q39 0 39 -39v-63q0 -39 -39 -39h-69q-39 0 -39 39v63q0 39 39 39zM214 716h69q39 0 39 -39v-63q0 -39 -39 -39h-69q-39 0 -39 39v63q0 39 39 39zM261 0h-211v500h211v-500z" />
    <glyph glyph-name="uni0458" unicode="&#x458;" horiz-adv-x="309" 
d="M107 739h89q61 0 61 -62v-51q0 -62 -61 -62h-89q-61 0 -61 62v51q0 62 61 62zM259 500v-442q0 -80 -44 -149t-118 -99l-116 92q69 69 69 156v442h209z" />
    <glyph glyph-name="uni0459" unicode="&#x459;" horiz-adv-x="843" 
d="M551 339h27q143 0 196 -36t53 -137q0 -97 -50 -134.5t-165 -37.5q-98 0 -248 6h-6v376h-24q-20 0 -29 -9t-11 -33q-13 -132 -35 -207q-26 -88 -84.5 -118t-148.5 -13l-13 144q23 2 35.5 4.5t25.5 13.5t18 30q13 51 28 183q14 129 144 129h287v-161zM551 124h27
q32 0 40.5 9.5t8.5 40.5q0 32 -8.5 41t-40.5 9h-27v-100z" />
    <glyph glyph-name="uni045A" unicode="&#x45a;" horiz-adv-x="833" 
d="M542 324h37q137 0 188 -33t51 -125q0 -97 -47.5 -134.5t-157.5 -37.5q-172 0 -263 6h-4v201h-109v-201h-191v500h191v-175h109v175h196v-176zM542 124h37q24 0 31.5 8.5t7.5 35.5t-7 34.5t-32 7.5h-37v-86z" />
    <glyph glyph-name="uni045B" unicode="&#x45b;" horiz-adv-x="628" 
d="M453 424q147 0 147 -140v-284h-211v217q0 16 -8 23t-28 7q-39 0 -76 -12v-235h-211v467h-56v90h56v143h211v-143h166v-90h-166v-6q0 -58 -10 -110q91 73 186 73z" />
    <glyph glyph-name="uni045C" unicode="&#x45c;" horiz-adv-x="594" 
d="M266 532l-57 86l233 150l79 -133zM401 263v-6q71 -11 86 -18q29 -15 51 -73q12 -34 49 -166h-218q-35 130 -45 159t-28 32h-46q5 -23 5 -39v-152h-209v500h209v-109q0 -34 -7 -66h18q35 0 46 13q13 16 36 116q9 40 10 46h212q-47 -159 -51 -171q-16 -40 -44 -51
q-15 -6 -74 -15z" />
    <glyph glyph-name="uni045D" unicode="&#x45d;" horiz-adv-x="632" 
d="M417 618l-57 -86l-255 103l79 133zM586 0l-187 -2v196q0 38 8 94h-5q-15 -49 -42 -90l-128 -198h-186v500h186v-209q0 -31 -8 -81h5q8 28 39 78l132 212h186v-500z" />
    <glyph glyph-name="uni045E" unicode="&#x45e;" horiz-adv-x="602" 
d="M300 549q-89 0 -140 53t-39 120h127q-6 -44 7 -60.5t45 -16.5q31 0 44 16.5t7 60.5h127q13 -67 -38 -120t-140 -53zM604 500l-159 -486q-30 -100 -77.5 -145t-121.5 -66q-91 -25 -206 0l16 133q101 -1 148 22q24 12 42 42h-35q-51 0 -66 49l-148 451h223l59 -276
q4 -27 13 -94h9q8 27 21 94l59 276h223z" />
    <glyph glyph-name="uni045F" unicode="&#x45f;" horiz-adv-x="625" 
d="M579 0h-184l-12 -162h-141l-13 162h-183v500h206l2 -364h117l2 364h206v-500z" />
    <glyph glyph-name="uni0490" unicode="&#x490;" horiz-adv-x="555" 
d="M551 843v-163l-10 -152h-228q-19 0 -30.5 -10t-11.5 -26v-492h-217v537q0 70 45 113.5t116 43.5q118 0 177 -2l15 151h144z" />
    <glyph glyph-name="uni0491" unicode="&#x491;" horiz-adv-x="493" 
d="M488 642v-151l-10 -146h-193q-19 0 -26.5 -6.5t-7.5 -23.5v-315h-208v376q0 69 35.5 100.5t110.5 31.5q98 0 147 -2l15 136h137z" />
    <glyph glyph-name="uni04B0" unicode="&#x4b0;" horiz-adv-x="658" 
d="M480 302h91v-104h-133v-198h-217v198h-133v104h90l-186 388h223l87 -217q9 -22 21 -97h13q12 73 21 98l86 216h223z" />
    <glyph glyph-name="uni04B1" unicode="&#x4b1;" horiz-adv-x="654" 
d="M478 117h90v-124h-131v-173h-218v173h-131v124h89l-184 383h223l85 -212q5 -13 9 -29t7.5 -38t4.5 -30h12q2 8 5 30t7 38.5t9 29.5l84 211h223z" />
    <glyph glyph-name="uni04B6" unicode="&#x4b6;" horiz-adv-x="739" 
d="M727 142v-293h-157l-15 151h-139v261q-99 -45 -186 -45q-101 0 -148 43.5t-47 136.5v294h217v-247q-2 -30 10 -40t49 -10q58 0 105 14v283h217v-548h94z" />
    <glyph glyph-name="uni04B7" unicode="&#x4b7;" horiz-adv-x="646" 
d="M633 136v-272h-139l-14 136h-135v166q-70 -25 -144 -25q-88 0 -129 29t-41 90v240h209v-179q0 -30 33 -30q36 0 72 13v196h209l-1 -364h80z" />
    <glyph glyph-name="uni04BA" unicode="&#x4ba;" horiz-adv-x="694" 
d="M463 474q101 0 148.5 -43.5t47.5 -136.5v-294h-217v247q2 30 -10 40t-50 10q-61 0 -108 -14v-283h-217v690h217v-261q101 45 189 45z" />
    <glyph glyph-name="uni04C0" unicode="&#x4c0;" horiz-adv-x="329" 
d="M272 0h-215v690h215v-690z" />
    <glyph glyph-name="Wgrave" unicode="&#x1e80;" horiz-adv-x="1003" 
d="M602 806l-57 -86l-255 103l79 133zM983 690l-86 -632q-4 -26 -25 -42t-49 -16h-184q-28 0 -49.5 16t-24.5 42l-47 381q-4 31 -8 101h-17q-4 -70 -8 -102l-46 -380q-3 -26 -24.5 -42t-49.5 -16h-185q-28 0 -49 16t-25 42l-86 632h214l35 -423q4 -68 4 -115h16
q14 98 16 116l46 358q3 28 23.5 46t49.5 18h155q29 0 49 -17.5t24 -46.5l47 -360q3 -30 15 -114h16q0 28 5 113l34 425h214z" />
    <glyph glyph-name="wgrave" unicode="&#x1e81;" horiz-adv-x="876" 
d="M540 618l-57 -86l-255 103l79 133zM868 500l-102 -447q-5 -24 -23.5 -38.5t-44.5 -14.5h-147q-28 0 -48.5 17.5t-23.5 44.5l-29 227q0 4 -6 88h-13q-4 -54 -7 -88l-29 -227q-3 -27 -23.5 -44.5t-48.5 -17.5h-145q-26 0 -44.5 14.5t-23.5 38.5l-102 447h208l36 -281
q6 -62 8 -89h12q1 13 2.5 28t3.5 33t3 28l28 220q3 27 23 44t48 17h115q28 0 48 -17t23 -45l27 -219q1 -10 5 -41t5 -48h12q9 86 9 89l35 281h209z" />
    <glyph glyph-name="Wacute" unicode="&#x1e82;" horiz-adv-x="1003" 
d="M712 823l-255 -103l-57 86l233 150zM983 690l-86 -632q-4 -26 -25 -42t-49 -16h-184q-28 0 -49.5 16t-24.5 42l-47 381q-4 31 -8 101h-17q-4 -70 -8 -102l-46 -380q-3 -26 -24.5 -42t-49.5 -16h-185q-28 0 -49 16t-25 42l-86 632h214l35 -423q4 -68 4 -115h16
q14 98 16 116l46 358q3 28 23.5 46t49.5 18h155q29 0 49 -17.5t24 -46.5l47 -360q3 -30 15 -114h16q0 28 5 113l34 425h214z" />
    <glyph glyph-name="wacute" unicode="&#x1e83;" horiz-adv-x="876" 
d="M650 635l-255 -103l-57 86l233 150zM868 500l-102 -447q-5 -24 -23.5 -38.5t-44.5 -14.5h-147q-28 0 -48.5 17.5t-23.5 44.5l-29 227q0 4 -6 88h-13q-4 -54 -7 -88l-29 -227q-3 -27 -23.5 -44.5t-48.5 -17.5h-145q-26 0 -44.5 14.5t-23.5 38.5l-102 447h208l36 -281
q6 -62 8 -89h12q1 13 2.5 28t3.5 33t3 28l28 220q3 27 23 44t48 17h115q28 0 48 -17t23 -45l27 -219q1 -10 5 -41t5 -48h12q9 86 9 89l35 281h209z" />
    <glyph glyph-name="Wdieresis" unicode="&#x1e84;" horiz-adv-x="1003" 
d="M371 904h69q39 0 39 -39v-63q0 -39 -39 -39h-69q-39 0 -39 39v63q0 39 39 39zM560 904h69q39 0 39 -39v-63q0 -39 -39 -39h-69q-39 0 -39 39v63q0 39 39 39zM983 690l-86 -632q-4 -26 -25 -42t-49 -16h-184q-28 0 -49.5 16t-24.5 42l-47 381q-4 31 -8 101h-17
q-4 -70 -8 -102l-46 -380q-3 -26 -24.5 -42t-49.5 -16h-185q-28 0 -49 16t-25 42l-86 632h214l35 -423q4 -68 4 -115h16q14 98 16 116l46 358q3 28 23.5 46t49.5 18h155q29 0 49 -17.5t24 -46.5l47 -360q3 -30 15 -114h16q0 28 5 113l34 425h214z" />
    <glyph glyph-name="wdieresis" unicode="&#x1e85;" horiz-adv-x="876" 
d="M309 716h69q39 0 39 -39v-63q0 -39 -39 -39h-69q-39 0 -39 39v63q0 39 39 39zM498 716h69q39 0 39 -39v-63q0 -39 -39 -39h-69q-39 0 -39 39v63q0 39 39 39zM868 500l-102 -447q-5 -24 -23.5 -38.5t-44.5 -14.5h-147q-28 0 -48.5 17.5t-23.5 44.5l-29 227q0 4 -6 88h-13
q-4 -54 -7 -88l-29 -227q-3 -27 -23.5 -44.5t-48.5 -17.5h-145q-26 0 -44.5 14.5t-23.5 38.5l-102 447h208l36 -281q6 -62 8 -89h12q1 13 2.5 28t3.5 33t3 28l28 220q3 27 23 44t48 17h115q28 0 48 -17t23 -45l27 -219q1 -10 5 -41t5 -48h12q9 86 9 89l35 281h209z" />
    <glyph glyph-name="Ygrave" unicode="&#x1ef2;" horiz-adv-x="654" 
d="M370 720l-255 103l79 133l233 -150zM436 215v-215h-217v213l-229 477h223l87 -217q9 -22 21 -97h13q12 73 21 98l86 216h223z" />
    <glyph glyph-name="ygrave" unicode="&#x1ef3;" horiz-adv-x="602" 
d="M348 532l-255 103l79 133l233 -150zM604 500l-159 -486q-9 -30 -22 -57t-33.5 -56.5t-46 -50t-60.5 -37t-77 -18t-94 7.5l-14 113q59 12 93 31t54 53h-34q-51 0 -66 49l-148 451h223l59 -276q4 -27 13 -94h9q7 24 21 94l59 276h223z" />
    <glyph glyph-name="endash" unicode="&#x2013;" horiz-adv-x="529" 
d="M485 196h-441v122h441v-122z" />
    <glyph glyph-name="emdash" unicode="&#x2014;" horiz-adv-x="819" 
d="M775 196h-731v122h731v-122z" />
    <glyph glyph-name="quoteleft" unicode="&#x2018;" horiz-adv-x="221" 
d="M131 395h-35q-35 0 -48.5 14t-14.5 51v58q0 64 14 106.5t44 85.5l68 -22q-15 -48 -17 -125q51 0 53 -58l-2 -45q-1 -37 -14 -51t-48 -14z" />
    <glyph glyph-name="quoteright" unicode="&#x2019;" horiz-adv-x="218" 
d="M89 700h35q35 0 48.5 -14t14.5 -51v-58q0 -65 -14 -107t-44 -85l-68 22q15 48 17 125q-51 0 -53 58l2 45q1 37 14 51t48 14z" />
    <glyph glyph-name="quotesinglbase" unicode="&#x201a;" horiz-adv-x="232" 
d="M98 185h35q35 0 48.5 -15.5t14.5 -56.5v-64q0 -71 -14 -117t-44 -94l-68 25q15 52 17 137q-51 0 -53 64l2 49q1 41 14 56.5t48 15.5z" />
    <glyph glyph-name="quotedblleft" unicode="&#x201c;" horiz-adv-x="420" 
d="M131 395h-35q-35 0 -48.5 14t-14.5 51v58q0 64 14 106.5t44 85.5l68 -22q-15 -48 -17 -125q51 0 53 -58l-2 -45q-1 -37 -14 -51t-48 -14zM330 395h-35q-35 0 -48.5 14t-14.5 51v58q0 64 14 106.5t44 85.5l68 -22q-15 -48 -17 -125q51 0 53 -58l-2 -45q-1 -37 -14 -51
t-48 -14z" />
    <glyph glyph-name="quotedblright" unicode="&#x201d;" horiz-adv-x="417" 
d="M89 700h35q35 0 48.5 -14t14.5 -51v-58q0 -65 -14 -107t-44 -85l-68 22q15 48 17 125q-51 0 -53 58l2 45q1 37 14 51t48 14zM288 700h35q35 0 48.5 -14t14.5 -51v-58q0 -65 -14 -107t-44 -85l-68 22q15 48 17 125q-51 0 -53 58l2 45q1 37 14 51t48 14z" />
    <glyph glyph-name="quotedblbase" unicode="&#x201e;" horiz-adv-x="429" 
d="M97 153h35q35 0 48.5 -14t14.5 -51v-58q0 -64 -14 -106.5t-44 -85.5l-68 22q15 48 17 125q-51 0 -53 58l2 45q1 37 14 51t48 14zM296 153h35q35 0 48.5 -14t14.5 -51v-58q0 -64 -14 -106.5t-44 -85.5l-68 22q15 48 17 125q-51 0 -53 58l2 45q1 37 14 51t48 14z" />
    <glyph glyph-name="dagger" unicode="&#x2020;" horiz-adv-x="486" 
d="M325 -110h-164l10 503l1 91l-11 207h164l-11 -207l1 -91zM22 357v143h129v-121zM464 500v-143l-129 22v121h129z" />
    <glyph glyph-name="daggerdbl" unicode="&#x2021;" horiz-adv-x="522" 
d="M333 500l-1 -403l11 -207h-164l11 207l-1 403l-10 191h164zM169 379l-129 -22v143h129v-121zM482 357l-129 22v121h129v-143zM169 202v-121h-129v143zM482 81h-129v121l129 22v-143z" />
    <glyph glyph-name="bullet" unicode="&#x2022;" horiz-adv-x="381" 
d="M186 402h17q68 0 95 -27t27 -95v-17q0 -74 -26.5 -102t-95.5 -28h-17q-74 0 -102 28t-28 102v17q0 69 28 95.5t102 26.5z" />
    <glyph glyph-name="ellipsis" unicode="&#x2026;" horiz-adv-x="925" 
d="M98 185h47q41 0 56.5 -15.5t15.5 -56.5v-41q0 -41 -15.5 -56.5t-56.5 -15.5h-47q-41 0 -56.5 15.5t-15.5 56.5v41q0 41 15.5 56.5t56.5 15.5zM431 185h47q41 0 56.5 -15.5t15.5 -56.5v-41q0 -41 -15.5 -56.5t-56.5 -15.5h-47q-41 0 -56.5 15.5t-15.5 56.5v41
q0 41 15.5 56.5t56.5 15.5zM764 185h47q41 0 56.5 -15.5t15.5 -56.5v-41q0 -41 -15.5 -56.5t-56.5 -15.5h-47q-41 0 -56.5 15.5t-15.5 56.5v41q0 41 15.5 56.5t56.5 15.5z" />
    <glyph glyph-name="perthousand" unicode="&#x2030;" horiz-adv-x="1325" 
d="M203 704q103 0 143 -44t40 -162t-40 -162t-143 -44q-102 0 -141.5 44t-39.5 162t39.5 162t141.5 44zM333 0h-126l380 690h126zM203 595q-19 0 -23.5 -15t-4.5 -82q0 -68 4.5 -82.5t23.5 -14.5q20 0 25 15t5 82t-5 82t-25 15zM717 398q103 0 143 -44t40 -162t-40 -162
t-143 -44q-102 0 -141.5 44t-39.5 162t39.5 162t141.5 44zM1119 398q103 0 143 -44t40 -162t-40 -162t-143 -44q-102 0 -141.5 44t-39.5 162t39.5 162t141.5 44zM717 289q-19 0 -23.5 -14.5t-4.5 -82.5q0 -67 4.5 -82t23.5 -15q20 0 25 15t5 82t-5 82t-25 15zM1119 289
q-19 0 -23.5 -14.5t-4.5 -82.5q0 -67 4.5 -82t23.5 -15q20 0 25 15t5 82t-5 82t-25 15z" />
    <glyph glyph-name="guilsinglleft" unicode="&#x2039;" horiz-adv-x="317" 
d="M289 401l-86 -150l86 -156l-110 -69l-158 203v44l158 197z" />
    <glyph glyph-name="guilsinglright" unicode="&#x203a;" horiz-adv-x="317" 
d="M296 273v-44l-158 -203l-110 69l87 156l-87 150l110 69z" />
    <glyph glyph-name="fraction" unicode="&#x2044;" horiz-adv-x="160" 
d="M-48 0h-126l380 690h126z" />
    <glyph glyph-name="Euro" unicode="&#x20ac;" horiz-adv-x="644" 
d="M512 361h-484v110h67q21 119 97 175t224 56q102 0 185 -27l-17 -148q-133 13 -185 2q-52 -12 -71 -58h195zM604 169l16 -148q-85 -33 -204 -33q-148 0 -224 56t-97 177h-68v110h479l-11 -110h-169q18 -51 73 -60q32 -5 95 -2.5t110 10.5z" />
    <glyph glyph-name="trademark" unicode="&#x2122;" horiz-adv-x="996" 
d="M400 696v-107h-106v-273h-143v273h-107v107h356zM951 316h-129l-12 273h-8l-22 -163q-6 -43 -54 -43h-76q-48 0 -54 43l-23 163h-8l-9 -273h-130l12 331q2 49 48 49h127q47 0 53 -44l15 -123q2 -11 3 -31.5t2 -26.5h4q1 10 2.5 29t2.5 29l13 123q6 44 54 44h129
q46 0 49 -49z" />
    <glyph glyph-name="partialdiff" unicode="&#x2202;" horiz-adv-x="613" 
d="M104 568v136q134 5 223.5 -9.5t151 -56t86.5 -114.5t20 -185q-5 -105 -26.5 -174.5t-62.5 -108t-92 -53.5t-125 -15q-62 0 -109.5 16.5t-75.5 42.5t-44.5 61t-21 69t-1.5 70q3 40 16.5 75t39 66.5t69.5 50t102 18.5q76 0 121 -32q-2 53 -23.5 82.5t-80.5 45t-167 15.5z
M290 144q41 0 55.5 35t22.5 126q-28 5 -61 5q-65 0 -71 -68q-5 -51 7.5 -74.5t46.5 -23.5z" />
    <glyph glyph-name="emptyset" unicode="&#x2205;" horiz-adv-x="685" 
d="M343 633q121 0 206.5 -85.5t85.5 -206.5t-85.5 -207t-206.5 -86t-207 86t-86 207t86 206.5t207 85.5zM343 545q-51 0 -122 -11l3 -45q60 9 119 9q66 0 66 -46q0 -21 -15 -44.5t-33.5 -42.5t-33.5 -52t-15 -72h54q0 35 14.5 64.5t32.5 46.5t32.5 43.5t14.5 56.5
q0 93 -117 93zM359 171h-39q-7 0 -7 -8v-37q0 -7 7 -7h39q8 0 8 7v37q0 8 -8 8z" />
    <glyph glyph-name="product" unicode="&#x220f;" horiz-adv-x="709" 
d="M684 544h-70v-634h-210v634h-99v-634h-210v634h-70v146h659v-146z" />
    <glyph glyph-name="summation" unicode="&#x2211;" horiz-adv-x="598" 
d="M562 548h-283l119 -227l-133 -342h307v-142h-540v142l132 342l-120 227v142h518v-142z" />
    <glyph glyph-name="minus" unicode="&#x2212;" horiz-adv-x="571" 
d="M526 219h-481v146h481v-146z" />
    <glyph glyph-name="radical" unicode="&#x221a;" 
d="M593 876l-191 -868q-2 -8 -13 -8h-249q-11 0 -13 8l-124 492h166l89 -368h13l154 744h168z" />
    <glyph glyph-name="infinity" unicode="&#x221e;" horiz-adv-x="756" 
d="M572 458q66 0 111 -38.5t45 -112.5q0 -76 -48.5 -118.5t-121.5 -42.5q-94 0 -180 73q-92 -73 -184 -73q-69 0 -117.5 42.5t-48.5 118.5q0 74 46.5 112.5t118.5 38.5q98 0 186 -79q100 79 193 79zM175 303q0 -35 48 -35q40 0 77 35q-27 32 -77 32q-48 0 -48 -32zM534 268
q47 0 47 34q0 33 -47 33q-46 0 -78 -37q34 -30 78 -30z" />
    <glyph glyph-name="integral" unicode="&#x222b;" horiz-adv-x="352" 
d="M187 714q103 0 143 -4l-12 -151h-60q-10 0 -14 -4t-3 -17l53 -627q6 -70 -25 -101.5t-116 -31.5q-106 0 -131 4l12 151h55q13 0 17 6t3 22l-51 620q-4 63 32.5 98t96.5 35z" />
    <glyph glyph-name="approxequal" unicode="&#x2248;" horiz-adv-x="576" 
d="M184 482q22 -2 95 -20.5t92 -20.5q6 1 10.5 -1t7.5 1.5t4.5 3.5t2 5.5t0.5 7.5v9v11h125q22 -88 -13 -134.5t-119 -42.5q-22 1 -95 20t-94 21q-6 -1 -10.5 0.5t-7.5 -1.5t-4.5 -3.5t-1.5 -5.5v-7v-8.5v-10.5h-126q-22 90 17 136.5t117 39.5zM184 279q21 -2 94.5 -21
t92.5 -21q6 -2 10 -0.5t6.5 1t4.5 2.5t3 4t1 5.5v7v8.5v9h125q22 -87 -13 -134t-119 -43q-22 1 -95 20.5t-94 21.5q-6 -1 -10.5 0.5t-7.5 -1.5t-4.5 -3.5t-1.5 -5.5v-7.5v-9v-10.5h-126q-22 90 17 137t117 40z" />
    <glyph glyph-name="notequal" unicode="&#x2260;" horiz-adv-x="613" 
d="M547 483v-146h-481v146h237l44 123l111 -40l-29 -83h118zM66 267h481v-146h-248l-45 -127l-114 41l31 86h-105v146z" />
    <glyph glyph-name="lessequal" unicode="&#x2264;" horiz-adv-x="554" 
d="M492 426l-265 -33l265 -35v-163l-442 118v161l442 115v-163zM489 24h-451v158h451v-158z" />
    <glyph glyph-name="greaterequal" unicode="&#x2265;" horiz-adv-x="554" 
d="M504 474v-161l-442 -118v163l265 35l-265 33v163zM516 24h-451v158h451v-158z" />
    <glyph glyph-name="lozenge" unicode="&#x25ca;" horiz-adv-x="571" 
d="M297 688l252 -331q7 -11 0 -22l-252 -333q-11 -14 -22 0l-253 333q-7 11 0 22l253 331q11 14 22 0zM184 346l102 -142l101 142l-101 140z" />
    <glyph glyph-name="fi" unicode="&#xfb01;" horiz-adv-x="727" 
d="M532 739h87q62 0 62 -62v-51q0 -62 -62 -62h-87q-62 0 -62 62v51q0 62 62 62zM680 500v-500h-211v374h-167v-374h-211v374h-83v121l83 5v61q0 163 183 163q87 0 151 -14v-126h-76q-27 0 -37 -11.5t-10 -40.5v-32h378z" />
    <glyph glyph-name="fl" unicode="&#xfb02;" horiz-adv-x="773" 
d="M750 146l23 -134q-20 -12 -64 -19t-78 -7q-74 0 -116.5 37t-42.5 103v461h-126q-26 0 -36 -12t-10 -43v-32h105v-126h-105v-374h-210v374h-82v121l82 5v61q0 163 181 163q285 0 411 -24v-518q0 -36 41 -36h27z" />
    <glyph glyph-name="uni00630074" horiz-adv-x="882" 
d="M749 374v-192q0 -19 10 -27.5t33 -8.5h53l23 -134q-62 -26 -170 -26q-73 0 -116 37t-43 103v248h-209q-49 0 -66.5 -25t-17.5 -98q0 -58 17.5 -77.5t66.5 -19.5q80 0 131 7l19 -131q-68 -42 -188 -42q-147 0 -206.5 59t-59.5 204q0 137 60 193t208 56h244v131h211v-131
h121v-126h-121z" />
    <glyph glyph-name="f_f" horiz-adv-x="802" 
d="M814 584h-93q-28 0 -38 -11.5t-10 -40.5v-32h124v-126h-124v-374h-203v374h-175v-374h-203v374h-84v121l84 5v51q5 163 181 163q101 0 163 -14l-20 -126h-73q-28 0 -38 -11.5t-10 -40.5v-22h175v61q0 163 181 163q113 0 183 -14z" />
    <glyph glyph-name="f_f_i" horiz-adv-x="1100" 
d="M905 739h87q62 0 62 -62v-51q0 -62 -62 -62h-87q-62 0 -62 62v51q0 62 62 62zM1053 500v-500h-211v374h-169v-374h-202v374h-176v-374h-203v374h-84v121l84 5v51q5 163 181 163q101 0 163 -14l-20 -126h-73q-28 0 -38 -11.5t-10 -40.5v-22h176v61q0 163 183 163
q80 0 144 -14v-126h-69q-33 0 -44.5 -11t-11.5 -41v-32h380z" />
    <glyph glyph-name="f_f_l" horiz-adv-x="1151" 
d="M1130 146l23 -134q-20 -12 -64 -19t-78 -7q-74 0 -116.5 37t-42.5 103v461h-133q-46 0 -46 -55v-32h112v-126h-112v-374h-203v374h-175v-374h-203v374h-84v121l84 5v51q5 163 181 163q101 0 163 -14l-20 -126h-73q-28 0 -38 -11.5t-10 -40.5v-22h175v61q0 163 181 163
q285 0 411 -24v-518q0 -36 41 -36h27z" />
    <glyph glyph-name="uni006600660079" horiz-adv-x="1344" 
d="M1346 500l-159 -486q-9 -30 -22 -57t-33.5 -56.5t-46 -50t-60.5 -37t-77 -18t-94 7.5l-14 113q59 12 93 31t54 53h-34q-51 0 -66 49l-96 292q-11 33 -45 33h-73v-374h-204v374h-174v-374h-203v374h-84v121l84 5v51q5 163 181 163q101 0 163 -14l-20 -126h-73
q-28 0 -38 -11.5t-10 -40.5v-22h174v61q0 163 184 163q106 0 176 -14l-20 -126h-88q-28 0 -38 -11.5t-10 -40.5v-32h153q136 0 164 -133l31 -143q4 -27 13 -94h9q7 24 21 94l59 276h223z" />
    <glyph glyph-name="uni00660074" horiz-adv-x="810" 
d="M677 374v-192q0 -19 10 -27.5t33 -8.5h53l23 -134q-62 -26 -170 -26q-73 0 -116 37t-43 103v248h-164v-374h-211v374h-84v121l84 5v61q0 163 184 163q96 0 153 -14l-20 -126h-58q-28 0 -38 -11.5t-10 -40.5v-32h163v131h211v-131h121v-126h-121z" />
    <glyph glyph-name="uni00660079" horiz-adv-x="967" 
d="M969 500l-159 -486q-9 -30 -22 -57t-33.5 -56.5t-46 -50t-60.5 -37t-77 -18t-94 7.5l-14 113q59 12 93 31t54 53h-34q-51 0 -66 49l-96 292q-10 33 -45 33h-66v-374h-211v374h-84v121l84 5v61q0 163 184 163q113 0 183 -14l-20 -126h-88q-28 0 -38 -11.5t-10 -40.5v-32
h146q136 0 164 -133l31 -143q4 -27 13 -94h9q7 24 21 94l59 276h223z" />
    <glyph glyph-name="s_t" horiz-adv-x="925" 
d="M792 374v-192q0 -19 10 -27.5t33 -8.5h53l23 -134q-62 -26 -170 -26q-73 0 -116 37t-43 103v247h-280q-54 0 -64.5 -1.5t-10.5 -10.5q0 -8 18 -13l16 -4q15 -4 25 -7l115 -32q64 -19 93 -53.5t29 -97.5q0 -94 -52 -129.5t-180 -35.5q-138 0 -260 21l13 122h178q62 0 80 2
t18 13q0 9 -11 13.5t-44 13.5l-110 30q-77 22 -104 61t-27 103q0 65 53 98.5t179 33.5h325v131h211v-131h121v-126h-121z" />
    <glyph glyph-name="uni00740074" horiz-adv-x="825" 
d="M692 374v-192q0 -19 10 -27.5t33 -8.5h53l23 -134q-62 -26 -170 -26q-73 0 -116 37t-43 103v248h-177v-192q0 -19 10 -27.5t33 -8.5h53l23 -134q-62 -26 -170 -26q-73 0 -116 37t-43 103v248h-85v121l84 4v132h211v-131h176v131h211v-131h121v-126h-121z" />
    <glyph glyph-name="uni00740079" horiz-adv-x="992" 
d="M994 500l-159 -486q-9 -30 -22 -57t-33.5 -56.5t-46 -50t-60.5 -37t-77 -18t-94 7.5l-14 113q59 12 93 31t54 53h-34q-51 0 -66 49l-96 292q-11 33 -45 33h-89v-192q0 -19 10 -27.5t33 -8.5h53l23 -134q-62 -26 -170 -26q-73 0 -116 37t-43 103v248h-85v121l84 4v132h211
v-131h169q136 0 164 -133l31 -143q4 -27 13 -94h9q7 24 21 94l59 276h223z" />
    <glyph glyph-name="brevecy" horiz-adv-x="411" 
d="M257 707h127q13 -67 -38 -120t-140 -53t-140 53t-39 120h127q-6 -44 7 -60.5t45 -16.5q31 0 44 16.5t7 60.5z" />
    </font>
</defs>
</svg>
